<svg width="476" height="264" viewBox="0 0 476 264" fill="none" xmlns="http://www.w3.org/2000/svg">
<path d="M99.209 17.9727H85.498V56H79.9023V17.9727H66.2207V13.3438H99.209V17.9727ZM111.572 56H105.947V13.3438H111.572V56ZM129.15 13.3438L143.096 48.1484L157.041 13.3438H164.336V56H158.711V39.3887L159.238 21.459L145.234 56H140.928L126.953 21.5469L127.51 39.3887V56H121.885V13.3438H129.15ZM198.379 36.2832H179.893V51.4004H201.367V56H174.268V13.3438H201.074V17.9727H179.893V31.6836H198.379V36.2832ZM239.746 42.4648C239.219 46.9766 237.549 50.4629 234.736 52.9238C231.943 55.3652 228.223 56.5859 223.574 56.5859C218.535 56.5859 214.492 54.7793 211.445 51.166C208.418 47.5527 206.904 42.7188 206.904 36.6641V32.5625C206.904 28.5977 207.607 25.1113 209.014 22.1035C210.439 19.0957 212.451 16.791 215.049 15.1895C217.646 13.5684 220.654 12.7578 224.072 12.7578C228.604 12.7578 232.236 14.0273 234.971 16.5664C237.705 19.0859 239.297 22.582 239.746 27.0547H234.092C233.604 23.6562 232.539 21.1953 230.898 19.6719C229.277 18.1484 227.002 17.3867 224.072 17.3867C220.479 17.3867 217.656 18.7148 215.605 21.3711C213.574 24.0273 212.559 27.8066 212.559 32.709V36.8398C212.559 41.4688 213.525 45.1504 215.459 47.8848C217.393 50.6191 220.098 51.9863 223.574 51.9863C226.699 51.9863 229.092 51.2832 230.752 49.877C232.432 48.4512 233.545 45.9805 234.092 42.4648H239.746ZM280.264 36.0488C280.264 40.2285 279.561 43.8809 278.154 47.0059C276.748 50.1113 274.756 52.4844 272.178 54.125C269.6 55.7656 266.592 56.5859 263.154 56.5859C259.795 56.5859 256.816 55.7656 254.219 54.125C251.621 52.4648 249.6 50.1113 248.154 47.0645C246.729 43.998 245.996 40.4531 245.957 36.4297V33.3535C245.957 29.252 246.67 25.6289 248.096 22.4844C249.521 19.3398 251.533 16.9375 254.131 15.2773C256.748 13.5977 259.736 12.7578 263.096 12.7578C266.514 12.7578 269.521 13.5879 272.119 15.248C274.736 16.8887 276.748 19.2813 278.154 22.4258C279.561 25.5508 280.264 29.1934 280.264 33.3535V36.0488ZM274.668 33.2949C274.668 28.2363 273.652 24.3594 271.621 21.6641C269.59 18.9492 266.748 17.5918 263.096 17.5918C259.541 17.5918 256.738 18.9492 254.688 21.6641C252.656 24.3594 251.611 28.1094 251.553 32.9141V36.0488C251.553 40.9512 252.578 44.8086 254.629 47.6211C256.699 50.4141 259.541 51.8105 263.154 51.8105C266.787 51.8105 269.6 50.4922 271.592 47.8555C273.584 45.1992 274.609 41.4004 274.668 36.459V33.2949ZM288.701 56V13.3438H300.742C304.453 13.3438 307.734 14.1641 310.586 15.8047C313.438 17.4453 315.635 19.7793 317.178 22.8066C318.74 25.834 319.531 29.3105 319.551 33.2363V35.9609C319.551 39.9844 318.77 43.5098 317.207 46.5371C315.664 49.5645 313.447 51.8887 310.557 53.5098C307.686 55.1309 304.336 55.9609 300.508 56H288.701ZM294.326 17.9727V51.4004H300.244C304.58 51.4004 307.949 50.0527 310.352 47.3574C312.773 44.6621 313.984 40.8242 313.984 35.8438V33.3535C313.984 28.5098 312.842 24.75 310.557 22.0742C308.291 19.3789 305.068 18.0117 300.889 17.9727H294.326ZM352.188 36.2832H333.701V51.4004H355.176V56H328.076V13.3438H354.883V17.9727H333.701V31.6836H352.188V36.2832Z" fill="white"/>
<path d="M35 22.7857C35 22.183 34.5313 21.7143 33.9286 21.7143H31.7857C31.183 21.7143 30.7143 22.183 30.7143 22.7857V34.5714H23.2143C22.6116 34.5714 22.1429 35.0402 22.1429 35.6429V37.7857C22.1429 38.3884 22.6116 38.8571 23.2143 38.8571H33.9286C34.5313 38.8571 35 38.3884 35 37.7857V22.7857ZM48.9286 34.5714C48.9286 44.6161 40.7589 52.7857 30.7143 52.7857C20.6696 52.7857 12.5 44.6161 12.5 34.5714C12.5 24.5268 20.6696 16.3571 30.7143 16.3571C40.7589 16.3571 48.9286 24.5268 48.9286 34.5714ZM56.4286 34.5714C56.4286 20.375 44.9107 8.85714 30.7143 8.85714C16.5179 8.85714 5 20.375 5 34.5714C5 48.7679 16.5179 60.2857 30.7143 60.2857C44.9107 60.2857 56.4286 48.7679 56.4286 34.5714Z" fill="white"/>
<path d="M2.74658 130H1.34033V119.336H2.74658V130ZM6.95068 120.156V122.075H8.43018V123.123H6.95068V128.037C6.95068 128.354 7.0166 128.594 7.14844 128.755C7.28027 128.911 7.50488 128.989 7.82227 128.989C7.97852 128.989 8.19336 128.96 8.4668 128.901V130C8.11035 130.098 7.76367 130.146 7.42676 130.146C6.82129 130.146 6.36475 129.963 6.05713 129.597C5.74951 129.231 5.5957 128.711 5.5957 128.037V123.123H4.15283V122.075H5.5957V120.156H6.95068ZM15.2124 130H13.8574V122.075H15.2124V130ZM13.7476 119.973C13.7476 119.753 13.8135 119.568 13.9453 119.417C14.082 119.265 14.2822 119.189 14.5459 119.189C14.8096 119.189 15.0098 119.265 15.1465 119.417C15.2832 119.568 15.3516 119.753 15.3516 119.973C15.3516 120.193 15.2832 120.376 15.1465 120.522C15.0098 120.669 14.8096 120.742 14.5459 120.742C14.2822 120.742 14.082 120.669 13.9453 120.522C13.8135 120.376 13.7476 120.193 13.7476 119.973ZM22.002 127.898C22.002 127.532 21.8628 127.249 21.5845 127.048C21.311 126.843 20.8301 126.667 20.1416 126.521C19.458 126.375 18.9136 126.199 18.5083 125.994C18.1079 125.789 17.8101 125.544 17.6147 125.261C17.4243 124.978 17.3291 124.641 17.3291 124.25C17.3291 123.601 17.6025 123.052 18.1494 122.603C18.7012 122.153 19.4043 121.929 20.2588 121.929C21.1572 121.929 21.8848 122.161 22.4414 122.625C23.0029 123.088 23.2837 123.682 23.2837 124.404H21.9214C21.9214 124.033 21.7627 123.713 21.4453 123.445C21.1328 123.176 20.7373 123.042 20.2588 123.042C19.7656 123.042 19.3799 123.149 19.1016 123.364C18.8232 123.579 18.6841 123.86 18.6841 124.207C18.6841 124.534 18.8135 124.78 19.0723 124.946C19.3311 125.112 19.7974 125.271 20.4712 125.422C21.1499 125.574 21.6992 125.754 22.1191 125.964C22.5391 126.174 22.8491 126.428 23.0493 126.726C23.2544 127.019 23.3569 127.378 23.3569 127.803C23.3569 128.511 23.0737 129.08 22.5073 129.509C21.9409 129.934 21.2061 130.146 20.3027 130.146C19.668 130.146 19.1064 130.034 18.6182 129.81C18.1299 129.585 17.7466 129.272 17.4683 128.872C17.1948 128.467 17.0581 128.03 17.0581 127.561H18.4131C18.4375 128.015 18.6182 128.376 18.9551 128.645C19.2969 128.909 19.7461 129.041 20.3027 129.041C20.8154 129.041 21.2256 128.938 21.5332 128.733C21.8457 128.523 22.002 128.245 22.002 127.898ZM35.5371 126.125C35.5371 127.332 35.2612 128.303 34.7095 129.041C34.1577 129.778 33.4106 130.146 32.4683 130.146C31.5063 130.146 30.7495 129.841 30.1978 129.231V133.047H28.8428V122.075H30.0806L30.1465 122.954C30.6982 122.271 31.4648 121.929 32.4463 121.929C33.3984 121.929 34.1504 122.288 34.7021 123.005C35.2588 123.723 35.5371 124.722 35.5371 126.001V126.125ZM34.1821 125.972C34.1821 125.078 33.9917 124.373 33.6108 123.855C33.23 123.337 32.7075 123.079 32.0435 123.079C31.2231 123.079 30.6079 123.442 30.1978 124.17V127.957C30.603 128.679 31.2231 129.041 32.0581 129.041C32.7075 129.041 33.2227 128.784 33.6035 128.271C33.9893 127.754 34.1821 126.987 34.1821 125.972ZM41.0962 123.291C40.8911 123.257 40.6689 123.24 40.4297 123.24C39.541 123.24 38.938 123.618 38.6206 124.375V130H37.2656V122.075H38.584L38.606 122.991C39.0503 122.283 39.6802 121.929 40.4956 121.929C40.7593 121.929 40.9595 121.963 41.0962 122.031V123.291ZM41.8433 125.964C41.8433 125.188 41.9946 124.49 42.2974 123.87C42.605 123.25 43.0298 122.771 43.5718 122.434C44.1187 122.097 44.7412 121.929 45.4395 121.929C46.5186 121.929 47.3901 122.302 48.0542 123.049C48.7231 123.796 49.0576 124.79 49.0576 126.03V126.125C49.0576 126.897 48.9087 127.59 48.6108 128.206C48.3179 128.816 47.8955 129.292 47.3438 129.634C46.7969 129.976 46.167 130.146 45.4541 130.146C44.3799 130.146 43.5083 129.773 42.8394 129.026C42.1753 128.279 41.8433 127.29 41.8433 126.06V125.964ZM43.2056 126.125C43.2056 127.004 43.4082 127.71 43.8135 128.242C44.2236 128.774 44.7705 129.041 45.4541 129.041C46.1426 129.041 46.6895 128.772 47.0947 128.235C47.5 127.693 47.7026 126.936 47.7026 125.964C47.7026 125.095 47.4951 124.392 47.0801 123.855C46.6699 123.313 46.123 123.042 45.4395 123.042C44.7705 123.042 44.231 123.308 43.8208 123.84C43.4106 124.373 43.2056 125.134 43.2056 126.125ZM52.5952 120.156V122.075H54.0747V123.123H52.5952V128.037C52.5952 128.354 52.6611 128.594 52.793 128.755C52.9248 128.911 53.1494 128.989 53.4668 128.989C53.623 128.989 53.8379 128.96 54.1113 128.901V130C53.7549 130.098 53.4082 130.146 53.0713 130.146C52.4658 130.146 52.0093 129.963 51.7017 129.597C51.394 129.231 51.2402 128.711 51.2402 128.037V123.123H49.7974V122.075H51.2402V120.156H52.5952ZM55.1587 125.964C55.1587 125.188 55.3101 124.49 55.6128 123.87C55.9204 123.25 56.3452 122.771 56.8872 122.434C57.4341 122.097 58.0566 121.929 58.7549 121.929C59.834 121.929 60.7056 122.302 61.3696 123.049C62.0386 123.796 62.373 124.79 62.373 126.03V126.125C62.373 126.897 62.2241 127.59 61.9263 128.206C61.6333 128.816 61.2109 129.292 60.6592 129.634C60.1123 129.976 59.4824 130.146 58.7695 130.146C57.6953 130.146 56.8237 129.773 56.1548 129.026C55.4907 128.279 55.1587 127.29 55.1587 126.06V125.964ZM56.521 126.125C56.521 127.004 56.7236 127.71 57.1289 128.242C57.5391 128.774 58.0859 129.041 58.7695 129.041C59.458 129.041 60.0049 128.772 60.4102 128.235C60.8154 127.693 61.0181 126.936 61.0181 125.964C61.0181 125.095 60.8105 124.392 60.3955 123.855C59.9854 123.313 59.4385 123.042 58.7549 123.042C58.0859 123.042 57.5464 123.308 57.1362 123.84C56.7261 124.373 56.521 125.134 56.521 126.125ZM65.9106 120.156V122.075H67.3901V123.123H65.9106V128.037C65.9106 128.354 65.9766 128.594 66.1084 128.755C66.2402 128.911 66.4648 128.989 66.7822 128.989C66.9385 128.989 67.1533 128.96 67.4268 128.901V130C67.0703 130.098 66.7236 130.146 66.3867 130.146C65.7812 130.146 65.3247 129.963 65.0171 129.597C64.7095 129.231 64.5557 128.711 64.5557 128.037V123.123H63.1128V122.075H64.5557V120.156H65.9106ZM71.5723 128.015L73.418 122.075H74.8682L71.6821 131.223C71.189 132.542 70.4053 133.201 69.3311 133.201L69.0747 133.179L68.5693 133.083V131.985L68.9355 132.014C69.3945 132.014 69.751 131.921 70.0049 131.736C70.2637 131.55 70.4761 131.211 70.6421 130.718L70.9424 129.912L68.1152 122.075H69.5947L71.5723 128.015ZM82.7783 126.125C82.7783 127.332 82.5024 128.303 81.9507 129.041C81.3989 129.778 80.6519 130.146 79.7095 130.146C78.7476 130.146 77.9907 129.841 77.439 129.231V133.047H76.084V122.075H77.3218L77.3877 122.954C77.9395 122.271 78.7061 121.929 79.6875 121.929C80.6396 121.929 81.3916 122.288 81.9434 123.005C82.5 123.723 82.7783 124.722 82.7783 126.001V126.125ZM81.4233 125.972C81.4233 125.078 81.2329 124.373 80.8521 123.855C80.4712 123.337 79.9487 123.079 79.2847 123.079C78.4644 123.079 77.8491 123.442 77.439 124.17V127.957C77.8442 128.679 78.4644 129.041 79.2993 129.041C79.9487 129.041 80.4639 128.784 80.8447 128.271C81.2305 127.754 81.4233 126.987 81.4233 125.972ZM87.7954 130.146C86.7212 130.146 85.8472 129.795 85.1733 129.092C84.4995 128.384 84.1626 127.439 84.1626 126.257V126.008C84.1626 125.222 84.3115 124.521 84.6094 123.906C84.9121 123.286 85.332 122.803 85.8691 122.456C86.4111 122.104 86.9971 121.929 87.627 121.929C88.6572 121.929 89.458 122.268 90.0293 122.947C90.6006 123.625 90.8862 124.597 90.8862 125.862V126.426H85.5176C85.5371 127.207 85.7642 127.839 86.1987 128.323C86.6382 128.801 87.1948 129.041 87.8687 129.041C88.3472 129.041 88.7524 128.943 89.0845 128.748C89.4165 128.552 89.707 128.293 89.9561 127.971L90.7837 128.616C90.1196 129.636 89.1235 130.146 87.7954 130.146ZM87.627 123.042C87.0801 123.042 86.6211 123.242 86.25 123.643C85.8789 124.038 85.6494 124.595 85.5615 125.312H89.5312V125.21C89.4922 124.521 89.3066 123.989 88.9746 123.613C88.6426 123.232 88.1934 123.042 87.627 123.042ZM95.8228 125.964C95.8228 125.188 95.9741 124.49 96.2769 123.87C96.5845 123.25 97.0093 122.771 97.5513 122.434C98.0981 122.097 98.7207 121.929 99.4189 121.929C100.498 121.929 101.37 122.302 102.034 123.049C102.703 123.796 103.037 124.79 103.037 126.03V126.125C103.037 126.897 102.888 127.59 102.59 128.206C102.297 128.816 101.875 129.292 101.323 129.634C100.776 129.976 100.146 130.146 99.4336 130.146C98.3594 130.146 97.4878 129.773 96.8188 129.026C96.1548 128.279 95.8228 127.29 95.8228 126.06V125.964ZM97.1851 126.125C97.1851 127.004 97.3877 127.71 97.793 128.242C98.2031 128.774 98.75 129.041 99.4336 129.041C100.122 129.041 100.669 128.772 101.074 128.235C101.479 127.693 101.682 126.936 101.682 125.964C101.682 125.095 101.475 124.392 101.06 123.855C100.649 123.313 100.103 123.042 99.4189 123.042C98.75 123.042 98.2104 123.308 97.8003 123.84C97.3901 124.373 97.1851 125.134 97.1851 126.125ZM105.403 130V123.123H104.15V122.075H105.403V121.262C105.403 120.413 105.63 119.756 106.084 119.292C106.538 118.828 107.18 118.596 108.01 118.596C108.323 118.596 108.633 118.638 108.94 118.721L108.867 119.819C108.638 119.775 108.394 119.753 108.135 119.753C107.695 119.753 107.356 119.883 107.117 120.142C106.877 120.396 106.758 120.762 106.758 121.24V122.075H108.45V123.123H106.758V130H105.403ZM115.51 120.156V122.075H116.99V123.123H115.51V128.037C115.51 128.354 115.576 128.594 115.708 128.755C115.84 128.911 116.064 128.989 116.382 128.989C116.538 128.989 116.753 128.96 117.026 128.901V130C116.67 130.098 116.323 130.146 115.986 130.146C115.381 130.146 114.924 129.963 114.617 129.597C114.309 129.231 114.155 128.711 114.155 128.037V123.123H112.712V122.075H114.155V120.156H115.51ZM119.934 123.035C120.535 122.297 121.316 121.929 122.278 121.929C123.953 121.929 124.797 122.874 124.812 124.763V130H123.457V124.756C123.452 124.185 123.32 123.762 123.062 123.489C122.808 123.215 122.41 123.079 121.868 123.079C121.428 123.079 121.042 123.196 120.71 123.43C120.378 123.665 120.12 123.972 119.934 124.353V130H118.579V118.75H119.934V123.035ZM130.129 130.146C129.055 130.146 128.181 129.795 127.507 129.092C126.833 128.384 126.497 127.439 126.497 126.257V126.008C126.497 125.222 126.646 124.521 126.943 123.906C127.246 123.286 127.666 122.803 128.203 122.456C128.745 122.104 129.331 121.929 129.961 121.929C130.991 121.929 131.792 122.268 132.363 122.947C132.935 123.625 133.22 124.597 133.22 125.862V126.426H127.852C127.871 127.207 128.098 127.839 128.533 128.323C128.972 128.801 129.529 129.041 130.203 129.041C130.681 129.041 131.086 128.943 131.418 128.748C131.75 128.552 132.041 128.293 132.29 127.971L133.118 128.616C132.454 129.636 131.458 130.146 130.129 130.146ZM129.961 123.042C129.414 123.042 128.955 123.242 128.584 123.643C128.213 124.038 127.983 124.595 127.896 125.312H131.865V125.21C131.826 124.521 131.641 123.989 131.309 123.613C130.977 123.232 130.527 123.042 129.961 123.042ZM145.225 126.125C145.225 127.336 144.946 128.311 144.39 129.048C143.833 129.78 143.086 130.146 142.148 130.146C141.147 130.146 140.374 129.792 139.827 129.084L139.761 130H138.516V118.75H139.871V122.947C140.417 122.268 141.172 121.929 142.134 121.929C143.096 121.929 143.85 122.292 144.397 123.02C144.949 123.748 145.225 124.744 145.225 126.008V126.125ZM143.87 125.972C143.87 125.049 143.691 124.336 143.335 123.833C142.979 123.33 142.466 123.079 141.797 123.079C140.903 123.079 140.261 123.494 139.871 124.324V127.751C140.286 128.582 140.933 128.997 141.812 128.997C142.461 128.997 142.966 128.745 143.328 128.242C143.689 127.739 143.87 126.982 143.87 125.972ZM150.227 130.146C149.153 130.146 148.279 129.795 147.605 129.092C146.931 128.384 146.594 127.439 146.594 126.257V126.008C146.594 125.222 146.743 124.521 147.041 123.906C147.344 123.286 147.764 122.803 148.301 122.456C148.843 122.104 149.429 121.929 150.059 121.929C151.089 121.929 151.89 122.268 152.461 122.947C153.032 123.625 153.318 124.597 153.318 125.862V126.426H147.949C147.969 127.207 148.196 127.839 148.63 128.323C149.07 128.801 149.626 129.041 150.3 129.041C150.779 129.041 151.184 128.943 151.516 128.748C151.848 128.552 152.139 128.293 152.388 127.971L153.215 128.616C152.551 129.636 151.555 130.146 150.227 130.146ZM150.059 123.042C149.512 123.042 149.053 123.242 148.682 123.643C148.311 124.038 148.081 124.595 147.993 125.312H151.963V125.21C151.924 124.521 151.738 123.989 151.406 123.613C151.074 123.232 150.625 123.042 150.059 123.042ZM159.507 127.898C159.507 127.532 159.368 127.249 159.089 127.048C158.816 126.843 158.335 126.667 157.646 126.521C156.963 126.375 156.418 126.199 156.013 125.994C155.613 125.789 155.315 125.544 155.12 125.261C154.929 124.978 154.834 124.641 154.834 124.25C154.834 123.601 155.107 123.052 155.654 122.603C156.206 122.153 156.909 121.929 157.764 121.929C158.662 121.929 159.39 122.161 159.946 122.625C160.508 123.088 160.789 123.682 160.789 124.404H159.426C159.426 124.033 159.268 123.713 158.95 123.445C158.638 123.176 158.242 123.042 157.764 123.042C157.271 123.042 156.885 123.149 156.606 123.364C156.328 123.579 156.189 123.86 156.189 124.207C156.189 124.534 156.318 124.78 156.577 124.946C156.836 125.112 157.302 125.271 157.976 125.422C158.655 125.574 159.204 125.754 159.624 125.964C160.044 126.174 160.354 126.428 160.554 126.726C160.759 127.019 160.862 127.378 160.862 127.803C160.862 128.511 160.579 129.08 160.012 129.509C159.446 129.934 158.711 130.146 157.808 130.146C157.173 130.146 156.611 130.034 156.123 129.81C155.635 129.585 155.251 129.272 154.973 128.872C154.7 128.467 154.563 128.03 154.563 127.561H155.918C155.942 128.015 156.123 128.376 156.46 128.645C156.802 128.909 157.251 129.041 157.808 129.041C158.32 129.041 158.73 128.938 159.038 128.733C159.351 128.523 159.507 128.245 159.507 127.898ZM164.465 120.156V122.075H165.945V123.123H164.465V128.037C164.465 128.354 164.531 128.594 164.663 128.755C164.795 128.911 165.02 128.989 165.337 128.989C165.493 128.989 165.708 128.96 165.981 128.901V130C165.625 130.098 165.278 130.146 164.941 130.146C164.336 130.146 163.879 129.963 163.572 129.597C163.264 129.231 163.11 128.711 163.11 128.037V123.123H161.667V122.075H163.11V120.156H164.465ZM173.093 120.156V122.075H174.573V123.123H173.093V128.037C173.093 128.354 173.159 128.594 173.291 128.755C173.423 128.911 173.647 128.989 173.965 128.989C174.121 128.989 174.336 128.96 174.609 128.901V130C174.253 130.098 173.906 130.146 173.569 130.146C172.964 130.146 172.507 129.963 172.2 129.597C171.892 129.231 171.738 128.711 171.738 128.037V123.123H170.295V122.075H171.738V120.156H173.093ZM175.657 125.964C175.657 125.188 175.808 124.49 176.111 123.87C176.418 123.25 176.843 122.771 177.385 122.434C177.932 122.097 178.555 121.929 179.253 121.929C180.332 121.929 181.204 122.302 181.868 123.049C182.537 123.796 182.871 124.79 182.871 126.03V126.125C182.871 126.897 182.722 127.59 182.424 128.206C182.131 128.816 181.709 129.292 181.157 129.634C180.61 129.976 179.98 130.146 179.268 130.146C178.193 130.146 177.322 129.773 176.653 129.026C175.989 128.279 175.657 127.29 175.657 126.06V125.964ZM177.019 126.125C177.019 127.004 177.222 127.71 177.627 128.242C178.037 128.774 178.584 129.041 179.268 129.041C179.956 129.041 180.503 128.772 180.908 128.235C181.313 127.693 181.516 126.936 181.516 125.964C181.516 125.095 181.309 124.392 180.894 123.855C180.483 123.313 179.937 123.042 179.253 123.042C178.584 123.042 178.044 123.308 177.634 123.84C177.224 124.373 177.019 125.134 177.019 126.125ZM184.241 125.972C184.241 124.756 184.529 123.779 185.105 123.042C185.681 122.3 186.436 121.929 187.368 121.929C188.296 121.929 189.031 122.246 189.573 122.881V118.75H190.928V130H189.683L189.617 129.15C189.075 129.814 188.32 130.146 187.354 130.146C186.436 130.146 185.686 129.771 185.105 129.019C184.529 128.267 184.241 127.285 184.241 126.074V125.972ZM185.596 126.125C185.596 127.024 185.781 127.727 186.152 128.235C186.523 128.743 187.036 128.997 187.69 128.997C188.55 128.997 189.177 128.611 189.573 127.839V124.199C189.167 123.452 188.545 123.079 187.705 123.079C187.041 123.079 186.523 123.335 186.152 123.848C185.781 124.36 185.596 125.12 185.596 126.125ZM198.596 120.156V122.075H200.076V123.123H198.596V128.037C198.596 128.354 198.662 128.594 198.794 128.755C198.926 128.911 199.15 128.989 199.468 128.989C199.624 128.989 199.839 128.96 200.112 128.901V130C199.756 130.098 199.409 130.146 199.072 130.146C198.467 130.146 198.01 129.963 197.703 129.597C197.395 129.231 197.241 128.711 197.241 128.037V123.123H195.798V122.075H197.241V120.156H198.596ZM201.16 125.964C201.16 125.188 201.311 124.49 201.614 123.87C201.921 123.25 202.346 122.771 202.888 122.434C203.435 122.097 204.058 121.929 204.756 121.929C205.835 121.929 206.707 122.302 207.371 123.049C208.04 123.796 208.374 124.79 208.374 126.03V126.125C208.374 126.897 208.225 127.59 207.927 128.206C207.634 128.816 207.212 129.292 206.66 129.634C206.113 129.976 205.483 130.146 204.771 130.146C203.696 130.146 202.825 129.773 202.156 129.026C201.492 128.279 201.16 127.29 201.16 126.06V125.964ZM202.522 126.125C202.522 127.004 202.725 127.71 203.13 128.242C203.54 128.774 204.087 129.041 204.771 129.041C205.459 129.041 206.006 128.772 206.411 128.235C206.816 127.693 207.019 126.936 207.019 125.964C207.019 125.095 206.812 124.392 206.396 123.855C205.986 123.313 205.439 123.042 204.756 123.042C204.087 123.042 203.547 123.308 203.137 123.84C202.727 124.373 202.522 125.134 202.522 126.125ZM215.068 122.075L215.105 122.954C215.686 122.271 216.47 121.929 217.456 121.929C218.564 121.929 219.319 122.354 219.719 123.203C219.983 122.822 220.325 122.515 220.745 122.28C221.169 122.046 221.67 121.929 222.246 121.929C223.984 121.929 224.868 122.849 224.897 124.69V130H223.542V124.771C223.542 124.204 223.413 123.782 223.154 123.503C222.896 123.22 222.461 123.079 221.851 123.079C221.348 123.079 220.93 123.23 220.598 123.533C220.266 123.831 220.073 124.233 220.02 124.741V130H218.657V124.807C218.657 123.655 218.093 123.079 216.965 123.079C216.077 123.079 215.469 123.457 215.142 124.214V130H213.787V122.075H215.068ZM231.841 130C231.763 129.844 231.699 129.565 231.65 129.165C231.021 129.819 230.269 130.146 229.395 130.146C228.613 130.146 227.971 129.927 227.468 129.487C226.97 129.043 226.721 128.481 226.721 127.803C226.721 126.978 227.034 126.338 227.659 125.884C228.289 125.425 229.172 125.195 230.31 125.195H231.628V124.573C231.628 124.099 231.487 123.723 231.204 123.445C230.92 123.162 230.503 123.02 229.951 123.02C229.468 123.02 229.062 123.142 228.735 123.386C228.408 123.63 228.245 123.926 228.245 124.272H226.882C226.882 123.877 227.021 123.496 227.3 123.13C227.583 122.759 227.964 122.466 228.442 122.251C228.926 122.036 229.456 121.929 230.032 121.929C230.945 121.929 231.66 122.158 232.178 122.617C232.695 123.071 232.964 123.699 232.983 124.5V128.147C232.983 128.875 233.076 129.453 233.262 129.883V130H231.841ZM229.592 128.967C230.017 128.967 230.42 128.857 230.801 128.638C231.182 128.418 231.458 128.132 231.628 127.781V126.155H230.566C228.906 126.155 228.076 126.641 228.076 127.612C228.076 128.037 228.218 128.369 228.501 128.608C228.784 128.848 229.148 128.967 229.592 128.967ZM236.389 122.075L236.433 123.071C237.039 122.31 237.83 121.929 238.806 121.929C240.481 121.929 241.326 122.874 241.34 124.763V130H239.985V124.756C239.98 124.185 239.849 123.762 239.59 123.489C239.336 123.215 238.938 123.079 238.396 123.079C237.957 123.079 237.571 123.196 237.239 123.43C236.907 123.665 236.648 123.972 236.462 124.353V130H235.107V122.075H236.389ZM248.276 130C248.198 129.844 248.135 129.565 248.086 129.165C247.456 129.819 246.704 130.146 245.83 130.146C245.049 130.146 244.407 129.927 243.904 129.487C243.406 129.043 243.157 128.481 243.157 127.803C243.157 126.978 243.469 126.338 244.094 125.884C244.724 125.425 245.608 125.195 246.746 125.195H248.064V124.573C248.064 124.099 247.922 123.723 247.639 123.445C247.356 123.162 246.938 123.02 246.387 123.02C245.903 123.02 245.498 123.142 245.171 123.386C244.844 123.63 244.68 123.926 244.68 124.272H243.318C243.318 123.877 243.457 123.496 243.735 123.13C244.019 122.759 244.399 122.466 244.878 122.251C245.361 122.036 245.891 121.929 246.467 121.929C247.38 121.929 248.096 122.158 248.613 122.617C249.131 123.071 249.399 123.699 249.419 124.5V128.147C249.419 128.875 249.512 129.453 249.697 129.883V130H248.276ZM246.028 128.967C246.453 128.967 246.855 128.857 247.236 128.638C247.617 128.418 247.893 128.132 248.064 127.781V126.155H247.002C245.342 126.155 244.512 126.641 244.512 127.612C244.512 128.037 244.653 128.369 244.937 128.608C245.22 128.848 245.583 128.967 246.028 128.967ZM252.825 122.075L252.869 123.071C253.474 122.31 254.265 121.929 255.242 121.929C256.917 121.929 257.761 122.874 257.776 124.763V130H256.421V124.756C256.416 124.185 256.284 123.762 256.025 123.489C255.771 123.215 255.374 123.079 254.832 123.079C254.392 123.079 254.006 123.196 253.674 123.43C253.342 123.665 253.083 123.972 252.898 124.353V130H251.543V122.075H252.825ZM259.497 125.972C259.497 124.736 259.783 123.755 260.354 123.027C260.925 122.295 261.682 121.929 262.625 121.929C263.591 121.929 264.346 122.271 264.888 122.954L264.954 122.075H266.191V129.81C266.191 130.835 265.886 131.643 265.276 132.234C264.67 132.825 263.855 133.12 262.83 133.12C262.258 133.12 261.699 132.998 261.152 132.754C260.605 132.51 260.188 132.175 259.9 131.75L260.603 130.938C261.184 131.655 261.895 132.014 262.734 132.014C263.394 132.014 263.906 131.829 264.272 131.458C264.644 131.086 264.829 130.564 264.829 129.89V129.209C264.287 129.834 263.547 130.146 262.61 130.146C261.682 130.146 260.93 129.773 260.354 129.026C259.783 128.279 259.497 127.261 259.497 125.972ZM260.859 126.125C260.859 127.019 261.042 127.722 261.409 128.235C261.775 128.743 262.288 128.997 262.947 128.997C263.801 128.997 264.429 128.608 264.829 127.832V124.214C264.414 123.457 263.792 123.079 262.961 123.079C262.302 123.079 261.787 123.335 261.416 123.848C261.045 124.36 260.859 125.12 260.859 126.125ZM271.531 130.146C270.457 130.146 269.583 129.795 268.909 129.092C268.235 128.384 267.898 127.439 267.898 126.257V126.008C267.898 125.222 268.047 124.521 268.345 123.906C268.647 123.286 269.067 122.803 269.604 122.456C270.146 122.104 270.732 121.929 271.362 121.929C272.393 121.929 273.193 122.268 273.765 122.947C274.336 123.625 274.622 124.597 274.622 125.862V126.426H269.253C269.272 127.207 269.5 127.839 269.934 128.323C270.374 128.801 270.93 129.041 271.604 129.041C272.083 129.041 272.488 128.943 272.82 128.748C273.152 128.552 273.442 128.293 273.691 127.971L274.519 128.616C273.855 129.636 272.859 130.146 271.531 130.146ZM271.362 123.042C270.815 123.042 270.356 123.242 269.985 123.643C269.614 124.038 269.385 124.595 269.297 125.312H273.267V125.21C273.228 124.521 273.042 123.989 272.71 123.613C272.378 123.232 271.929 123.042 271.362 123.042ZM280.027 123.291C279.822 123.257 279.6 123.24 279.36 123.24C278.472 123.24 277.869 123.618 277.551 124.375V130H276.196V122.075H277.515L277.537 122.991C277.981 122.283 278.611 121.929 279.426 121.929C279.69 121.929 279.89 121.963 280.027 122.031V123.291ZM287.593 128.015L289.438 122.075H290.889L287.703 131.223C287.209 132.542 286.426 133.201 285.352 133.201L285.095 133.179L284.59 133.083V131.985L284.956 132.014C285.415 132.014 285.771 131.921 286.025 131.736C286.284 131.55 286.497 131.211 286.663 130.718L286.963 129.912L284.136 122.075H285.615L287.593 128.015ZM291.628 125.964C291.628 125.188 291.78 124.49 292.083 123.87C292.39 123.25 292.815 122.771 293.357 122.434C293.904 122.097 294.526 121.929 295.225 121.929C296.304 121.929 297.175 122.302 297.839 123.049C298.508 123.796 298.843 124.79 298.843 126.03V126.125C298.843 126.897 298.694 127.59 298.396 128.206C298.103 128.816 297.681 129.292 297.129 129.634C296.582 129.976 295.952 130.146 295.239 130.146C294.165 130.146 293.293 129.773 292.625 129.026C291.96 128.279 291.628 127.29 291.628 126.06V125.964ZM292.991 126.125C292.991 127.004 293.193 127.71 293.599 128.242C294.009 128.774 294.556 129.041 295.239 129.041C295.928 129.041 296.475 128.772 296.88 128.235C297.285 127.693 297.488 126.936 297.488 125.964C297.488 125.095 297.28 124.392 296.865 123.855C296.455 123.313 295.908 123.042 295.225 123.042C294.556 123.042 294.016 123.308 293.606 123.84C293.196 124.373 292.991 125.134 292.991 126.125ZM305.435 129.216C304.907 129.836 304.133 130.146 303.113 130.146C302.268 130.146 301.624 129.902 301.179 129.414C300.74 128.921 300.518 128.193 300.513 127.231V122.075H301.868V127.195C301.868 128.396 302.356 128.997 303.333 128.997C304.368 128.997 305.056 128.611 305.398 127.839V122.075H306.753V130H305.464L305.435 129.216ZM312.649 123.291C312.444 123.257 312.222 123.24 311.982 123.24C311.094 123.24 310.491 123.618 310.173 124.375V130H308.818V122.075H310.137L310.159 122.991C310.603 122.283 311.233 121.929 312.048 121.929C312.312 121.929 312.512 121.963 312.649 122.031V123.291ZM319.46 120.156V122.075H320.94V123.123H319.46V128.037C319.46 128.354 319.526 128.594 319.658 128.755C319.79 128.911 320.015 128.989 320.332 128.989C320.488 128.989 320.703 128.96 320.977 128.901V130C320.62 130.098 320.273 130.146 319.937 130.146C319.331 130.146 318.875 129.963 318.567 129.597C318.259 129.231 318.105 128.711 318.105 128.037V123.123H316.663V122.075H318.105V120.156H319.46ZM324.001 130H322.646V122.075H324.001V130ZM322.537 119.973C322.537 119.753 322.603 119.568 322.734 119.417C322.871 119.265 323.071 119.189 323.335 119.189C323.599 119.189 323.799 119.265 323.936 119.417C324.072 119.568 324.141 119.753 324.141 119.973C324.141 120.193 324.072 120.376 323.936 120.522C323.799 120.669 323.599 120.742 323.335 120.742C323.071 120.742 322.871 120.669 322.734 120.522C322.603 120.376 322.537 120.193 322.537 119.973ZM327.451 122.075L327.488 122.954C328.069 122.271 328.853 121.929 329.839 121.929C330.947 121.929 331.702 122.354 332.102 123.203C332.366 122.822 332.708 122.515 333.127 122.28C333.552 122.046 334.053 121.929 334.629 121.929C336.367 121.929 337.251 122.849 337.28 124.69V130H335.925V124.771C335.925 124.204 335.796 123.782 335.537 123.503C335.278 123.22 334.844 123.079 334.233 123.079C333.73 123.079 333.313 123.23 332.981 123.533C332.649 123.831 332.456 124.233 332.402 124.741V130H331.04V124.807C331.04 123.655 330.476 123.079 329.348 123.079C328.459 123.079 327.852 123.457 327.524 124.214V130H326.169V122.075H327.451ZM342.62 130.146C341.545 130.146 340.671 129.795 339.998 129.092C339.324 128.384 338.987 127.439 338.987 126.257V126.008C338.987 125.222 339.136 124.521 339.434 123.906C339.736 123.286 340.156 122.803 340.693 122.456C341.235 122.104 341.821 121.929 342.451 121.929C343.481 121.929 344.282 122.268 344.854 122.947C345.425 123.625 345.71 124.597 345.71 125.862V126.426H340.342C340.361 127.207 340.588 127.839 341.023 128.323C341.462 128.801 342.019 129.041 342.693 129.041C343.171 129.041 343.577 128.943 343.909 128.748C344.241 128.552 344.531 128.293 344.78 127.971L345.608 128.616C344.944 129.636 343.948 130.146 342.62 130.146ZM342.451 123.042C341.904 123.042 341.445 123.242 341.074 123.643C340.703 124.038 340.474 124.595 340.386 125.312H344.355V125.21C344.316 124.521 344.131 123.989 343.799 123.613C343.467 123.232 343.018 123.042 342.451 123.042ZM352.844 120.156V122.075H354.324V123.123H352.844V128.037C352.844 128.354 352.91 128.594 353.042 128.755C353.174 128.911 353.398 128.989 353.716 128.989C353.872 128.989 354.087 128.96 354.36 128.901V130C354.004 130.098 353.657 130.146 353.32 130.146C352.715 130.146 352.258 129.963 351.951 129.597C351.643 129.231 351.489 128.711 351.489 128.037V123.123H350.046V122.075H351.489V120.156H352.844ZM360.806 130C360.728 129.844 360.664 129.565 360.615 129.165C359.985 129.819 359.233 130.146 358.359 130.146C357.578 130.146 356.936 129.927 356.433 129.487C355.935 129.043 355.686 128.481 355.686 127.803C355.686 126.978 355.999 126.338 356.624 125.884C357.253 125.425 358.137 125.195 359.275 125.195H360.593V124.573C360.593 124.099 360.452 123.723 360.168 123.445C359.885 123.162 359.468 123.02 358.916 123.02C358.433 123.02 358.027 123.142 357.7 123.386C357.373 123.63 357.209 123.926 357.209 124.272H355.847C355.847 123.877 355.986 123.496 356.265 123.13C356.548 122.759 356.929 122.466 357.407 122.251C357.891 122.036 358.42 121.929 358.997 121.929C359.91 121.929 360.625 122.158 361.143 122.617C361.66 123.071 361.929 123.699 361.948 124.5V128.147C361.948 128.875 362.041 129.453 362.227 129.883V130H360.806ZM358.557 128.967C358.982 128.967 359.385 128.857 359.766 128.638C360.146 128.418 360.422 128.132 360.593 127.781V126.155H359.531C357.871 126.155 357.041 126.641 357.041 127.612C357.041 128.037 357.183 128.369 357.466 128.608C357.749 128.848 358.113 128.967 358.557 128.967ZM368.687 127.898C368.687 127.532 368.547 127.249 368.269 127.048C367.996 126.843 367.515 126.667 366.826 126.521C366.143 126.375 365.598 126.199 365.193 125.994C364.792 125.789 364.495 125.544 364.299 125.261C364.109 124.978 364.014 124.641 364.014 124.25C364.014 123.601 364.287 123.052 364.834 122.603C365.386 122.153 366.089 121.929 366.943 121.929C367.842 121.929 368.569 122.161 369.126 122.625C369.688 123.088 369.968 123.682 369.968 124.404H368.606C368.606 124.033 368.447 123.713 368.13 123.445C367.817 123.176 367.422 123.042 366.943 123.042C366.45 123.042 366.064 123.149 365.786 123.364C365.508 123.579 365.369 123.86 365.369 124.207C365.369 124.534 365.498 124.78 365.757 124.946C366.016 125.112 366.482 125.271 367.156 125.422C367.834 125.574 368.384 125.754 368.804 125.964C369.224 126.174 369.534 126.428 369.734 126.726C369.939 127.019 370.042 127.378 370.042 127.803C370.042 128.511 369.758 129.08 369.192 129.509C368.625 129.934 367.891 130.146 366.987 130.146C366.353 130.146 365.791 130.034 365.303 129.81C364.814 129.585 364.431 129.272 364.153 128.872C363.879 128.467 363.743 128.03 363.743 127.561H365.098C365.122 128.015 365.303 128.376 365.64 128.645C365.981 128.909 366.431 129.041 366.987 129.041C367.5 129.041 367.91 128.938 368.218 128.733C368.53 128.523 368.687 128.245 368.687 127.898ZM374.019 126.331L373.169 127.217V130H371.814V118.75H373.169V125.554L373.894 124.683L376.362 122.075H378.01L374.927 125.386L378.369 130H376.78L374.019 126.331ZM384.023 127.898C384.023 127.532 383.884 127.249 383.606 127.048C383.333 126.843 382.852 126.667 382.163 126.521C381.479 126.375 380.935 126.199 380.53 125.994C380.129 125.789 379.832 125.544 379.636 125.261C379.446 124.978 379.351 124.641 379.351 124.25C379.351 123.601 379.624 123.052 380.171 122.603C380.723 122.153 381.426 121.929 382.28 121.929C383.179 121.929 383.906 122.161 384.463 122.625C385.024 123.088 385.305 123.682 385.305 124.404H383.943C383.943 124.033 383.784 123.713 383.467 123.445C383.154 123.176 382.759 123.042 382.28 123.042C381.787 123.042 381.401 123.149 381.123 123.364C380.845 123.579 380.706 123.86 380.706 124.207C380.706 124.534 380.835 124.78 381.094 124.946C381.353 125.112 381.819 125.271 382.493 125.422C383.171 125.574 383.721 125.754 384.141 125.964C384.561 126.174 384.871 126.428 385.071 126.726C385.276 127.019 385.378 127.378 385.378 127.803C385.378 128.511 385.095 129.08 384.529 129.509C383.962 129.934 383.228 130.146 382.324 130.146C381.689 130.146 381.128 130.034 380.64 129.81C380.151 129.585 379.768 129.272 379.49 128.872C379.216 128.467 379.08 128.03 379.08 127.561H380.435C380.459 128.015 380.64 128.376 380.977 128.645C381.318 128.909 381.768 129.041 382.324 129.041C382.837 129.041 383.247 128.938 383.555 128.733C383.867 128.523 384.023 128.245 384.023 127.898ZM387.173 129.29C387.173 129.055 387.241 128.86 387.378 128.704C387.52 128.547 387.729 128.469 388.008 128.469C388.286 128.469 388.496 128.547 388.638 128.704C388.784 128.86 388.857 129.055 388.857 129.29C388.857 129.514 388.784 129.702 388.638 129.854C388.496 130.005 388.286 130.081 388.008 130.081C387.729 130.081 387.52 130.005 387.378 129.854C387.241 129.702 387.173 129.514 387.173 129.29ZM3.0542 137.336L6.54053 146.037L10.0269 137.336H11.8506V148H10.4443V143.847L10.5762 139.365L7.0752 148H5.99854L2.50488 139.387L2.64404 143.847V148H1.23779V137.336H3.0542ZM19.0137 148C18.9355 147.844 18.8721 147.565 18.8232 147.165C18.1934 147.819 17.4414 148.146 16.5674 148.146C15.7861 148.146 15.144 147.927 14.6411 147.487C14.1431 147.043 13.894 146.481 13.894 145.803C13.894 144.978 14.2065 144.338 14.8315 143.884C15.4614 143.425 16.3452 143.195 17.4829 143.195H18.8013V142.573C18.8013 142.099 18.6597 141.723 18.3765 141.445C18.0933 141.162 17.6758 141.02 17.124 141.02C16.6406 141.02 16.2354 141.142 15.9082 141.386C15.5811 141.63 15.4175 141.926 15.4175 142.272H14.0552C14.0552 141.877 14.1943 141.496 14.4727 141.13C14.7559 140.759 15.1367 140.466 15.6152 140.251C16.0986 140.036 16.6284 139.929 17.2046 139.929C18.1177 139.929 18.833 140.158 19.3506 140.617C19.8682 141.071 20.1367 141.699 20.1562 142.5V146.147C20.1562 146.875 20.249 147.453 20.4346 147.883V148H19.0137ZM16.7651 146.967C17.1899 146.967 17.5928 146.857 17.9736 146.638C18.3545 146.418 18.6304 146.132 18.8013 145.781V144.155H17.7393C16.0791 144.155 15.249 144.641 15.249 145.612C15.249 146.037 15.3906 146.369 15.6738 146.608C15.957 146.848 16.3208 146.967 16.7651 146.967ZM23.562 140.075L23.606 141.071C24.2114 140.31 25.0024 139.929 25.979 139.929C27.6538 139.929 28.4985 140.874 28.5132 142.763V148H27.1582V142.756C27.1533 142.185 27.0215 141.762 26.7627 141.489C26.5088 141.215 26.1108 141.079 25.5688 141.079C25.1294 141.079 24.7437 141.196 24.4116 141.43C24.0796 141.665 23.8208 141.972 23.6353 142.353V148H22.2803V140.075H23.562ZM35.4492 148C35.3711 147.844 35.3076 147.565 35.2588 147.165C34.6289 147.819 33.877 148.146 33.0029 148.146C32.2217 148.146 31.5796 147.927 31.0767 147.487C30.5786 147.043 30.3296 146.481 30.3296 145.803C30.3296 144.978 30.6421 144.338 31.2671 143.884C31.897 143.425 32.7808 143.195 33.9185 143.195H35.2368V142.573C35.2368 142.099 35.0952 141.723 34.812 141.445C34.5288 141.162 34.1113 141.02 33.5596 141.02C33.0762 141.02 32.6709 141.142 32.3438 141.386C32.0166 141.63 31.853 141.926 31.853 142.272H30.4907C30.4907 141.877 30.6299 141.496 30.9082 141.13C31.1914 140.759 31.5723 140.466 32.0508 140.251C32.5342 140.036 33.064 139.929 33.6401 139.929C34.5532 139.929 35.2686 140.158 35.7861 140.617C36.3037 141.071 36.5723 141.699 36.5918 142.5V146.147C36.5918 146.875 36.6846 147.453 36.8701 147.883V148H35.4492ZM33.2007 146.967C33.6255 146.967 34.0283 146.857 34.4092 146.638C34.79 146.418 35.0659 146.132 35.2368 145.781V144.155H34.1748C32.5146 144.155 31.6846 144.641 31.6846 145.612C31.6846 146.037 31.8262 146.369 32.1094 146.608C32.3926 146.848 32.7563 146.967 33.2007 146.967ZM38.3936 143.972C38.3936 142.736 38.6792 141.755 39.2505 141.027C39.8218 140.295 40.5786 139.929 41.521 139.929C42.4878 139.929 43.2422 140.271 43.7842 140.954L43.8501 140.075H45.0879V147.81C45.0879 148.835 44.7827 149.643 44.1724 150.234C43.5669 150.825 42.7515 151.12 41.7261 151.12C41.1548 151.12 40.5957 150.998 40.0488 150.754C39.502 150.51 39.0845 150.175 38.7964 149.75L39.4995 148.938C40.0806 149.655 40.791 150.014 41.6309 150.014C42.29 150.014 42.8027 149.829 43.1689 149.458C43.54 149.086 43.7256 148.564 43.7256 147.89V147.209C43.1836 147.834 42.4438 148.146 41.5063 148.146C40.5786 148.146 39.8267 147.773 39.2505 147.026C38.6792 146.279 38.3936 145.261 38.3936 143.972ZM39.7559 144.125C39.7559 145.019 39.939 145.722 40.3052 146.235C40.6714 146.743 41.1841 146.997 41.8433 146.997C42.6978 146.997 43.3252 146.608 43.7256 145.832V142.214C43.3105 141.457 42.688 141.079 41.8579 141.079C41.1987 141.079 40.6836 141.335 40.3125 141.848C39.9414 142.36 39.7559 143.12 39.7559 144.125ZM50.4272 148.146C49.353 148.146 48.479 147.795 47.8052 147.092C47.1313 146.384 46.7944 145.439 46.7944 144.257V144.008C46.7944 143.222 46.9434 142.521 47.2412 141.906C47.5439 141.286 47.9639 140.803 48.501 140.456C49.043 140.104 49.6289 139.929 50.2588 139.929C51.2891 139.929 52.0898 140.268 52.6611 140.947C53.2324 141.625 53.5181 142.597 53.5181 143.862V144.426H48.1494C48.1689 145.207 48.396 145.839 48.8306 146.323C49.27 146.801 49.8267 147.041 50.5005 147.041C50.979 147.041 51.3843 146.943 51.7163 146.748C52.0483 146.552 52.3389 146.293 52.5879 145.971L53.4155 146.616C52.7515 147.636 51.7554 148.146 50.4272 148.146ZM50.2588 141.042C49.7119 141.042 49.2529 141.242 48.8818 141.643C48.5107 142.038 48.2812 142.595 48.1934 143.312H52.1631V143.21C52.124 142.521 51.9385 141.989 51.6064 141.613C51.2744 141.232 50.8252 141.042 50.2588 141.042ZM60.6519 138.156V140.075H62.1313V141.123H60.6519V146.037C60.6519 146.354 60.7178 146.594 60.8496 146.755C60.9814 146.911 61.2061 146.989 61.5234 146.989C61.6797 146.989 61.8945 146.96 62.168 146.901V148C61.8115 148.098 61.4648 148.146 61.1279 148.146C60.5225 148.146 60.0659 147.963 59.7583 147.597C59.4507 147.231 59.2969 146.711 59.2969 146.037V141.123H57.854V140.075H59.2969V138.156H60.6519ZM68.6133 148C68.5352 147.844 68.4717 147.565 68.4229 147.165C67.793 147.819 67.041 148.146 66.167 148.146C65.3857 148.146 64.7437 147.927 64.2407 147.487C63.7427 147.043 63.4937 146.481 63.4937 145.803C63.4937 144.978 63.8062 144.338 64.4312 143.884C65.061 143.425 65.9448 143.195 67.0825 143.195H68.4009V142.573C68.4009 142.099 68.2593 141.723 67.9761 141.445C67.6929 141.162 67.2754 141.02 66.7236 141.02C66.2402 141.02 65.835 141.142 65.5078 141.386C65.1807 141.63 65.0171 141.926 65.0171 142.272H63.6548C63.6548 141.877 63.7939 141.496 64.0723 141.13C64.3555 140.759 64.7363 140.466 65.2148 140.251C65.6982 140.036 66.228 139.929 66.8042 139.929C67.7173 139.929 68.4326 140.158 68.9502 140.617C69.4678 141.071 69.7363 141.699 69.7559 142.5V146.147C69.7559 146.875 69.8486 147.453 70.0342 147.883V148H68.6133ZM66.3647 146.967C66.7896 146.967 67.1924 146.857 67.5732 146.638C67.9541 146.418 68.23 146.132 68.4009 145.781V144.155H67.3389C65.6787 144.155 64.8486 144.641 64.8486 145.612C64.8486 146.037 64.9902 146.369 65.2734 146.608C65.5566 146.848 65.9204 146.967 66.3647 146.967ZM76.4941 145.898C76.4941 145.532 76.355 145.249 76.0767 145.048C75.8032 144.843 75.3223 144.667 74.6338 144.521C73.9502 144.375 73.4058 144.199 73.0005 143.994C72.6001 143.789 72.3022 143.544 72.1069 143.261C71.9165 142.978 71.8213 142.641 71.8213 142.25C71.8213 141.601 72.0947 141.052 72.6416 140.603C73.1934 140.153 73.8965 139.929 74.751 139.929C75.6494 139.929 76.377 140.161 76.9336 140.625C77.4951 141.088 77.7759 141.682 77.7759 142.404H76.4136C76.4136 142.033 76.2549 141.713 75.9375 141.445C75.625 141.176 75.2295 141.042 74.751 141.042C74.2578 141.042 73.8721 141.149 73.5938 141.364C73.3154 141.579 73.1763 141.86 73.1763 142.207C73.1763 142.534 73.3057 142.78 73.5645 142.946C73.8232 143.112 74.2896 143.271 74.9634 143.422C75.6421 143.574 76.1914 143.754 76.6113 143.964C77.0312 144.174 77.3413 144.428 77.5415 144.726C77.7466 145.019 77.8491 145.378 77.8491 145.803C77.8491 146.511 77.5659 147.08 76.9995 147.509C76.4331 147.934 75.6982 148.146 74.7949 148.146C74.1602 148.146 73.5986 148.034 73.1104 147.81C72.6221 147.585 72.2388 147.272 71.9604 146.872C71.687 146.467 71.5503 146.03 71.5503 145.561H72.9053C72.9297 146.015 73.1104 146.376 73.4473 146.645C73.7891 146.909 74.2383 147.041 74.7949 147.041C75.3076 147.041 75.7178 146.938 76.0254 146.733C76.3379 146.523 76.4941 146.245 76.4941 145.898ZM81.8262 144.331L80.9766 145.217V148H79.6216V136.75H80.9766V143.554L81.7017 142.683L84.1699 140.075H85.8179L82.7344 143.386L86.1768 148H84.5874L81.8262 144.331ZM91.8311 145.898C91.8311 145.532 91.6919 145.249 91.4136 145.048C91.1401 144.843 90.6592 144.667 89.9707 144.521C89.2871 144.375 88.7427 144.199 88.3374 143.994C87.937 143.789 87.6392 143.544 87.4438 143.261C87.2534 142.978 87.1582 142.641 87.1582 142.25C87.1582 141.601 87.4316 141.052 87.9785 140.603C88.5303 140.153 89.2334 139.929 90.0879 139.929C90.9863 139.929 91.7139 140.161 92.2705 140.625C92.832 141.088 93.1128 141.682 93.1128 142.404H91.7505C91.7505 142.033 91.5918 141.713 91.2744 141.445C90.9619 141.176 90.5664 141.042 90.0879 141.042C89.5947 141.042 89.209 141.149 88.9307 141.364C88.6523 141.579 88.5132 141.86 88.5132 142.207C88.5132 142.534 88.6426 142.78 88.9014 142.946C89.1602 143.112 89.6265 143.271 90.3003 143.422C90.979 143.574 91.5283 143.754 91.9482 143.964C92.3682 144.174 92.6782 144.428 92.8784 144.726C93.0835 145.019 93.186 145.378 93.186 145.803C93.186 146.511 92.9028 147.08 92.3364 147.509C91.77 147.934 91.0352 148.146 90.1318 148.146C89.4971 148.146 88.9355 148.034 88.4473 147.81C87.959 147.585 87.5757 147.272 87.2974 146.872C87.0239 146.467 86.8872 146.03 86.8872 145.561H88.2422C88.2666 146.015 88.4473 146.376 88.7842 146.645C89.126 146.909 89.5752 147.041 90.1318 147.041C90.6445 147.041 91.0547 146.938 91.3623 146.733C91.6748 146.523 91.8311 146.245 91.8311 145.898ZM103.564 148C103.486 147.844 103.423 147.565 103.374 147.165C102.744 147.819 101.992 148.146 101.118 148.146C100.337 148.146 99.6948 147.927 99.1919 147.487C98.6938 147.043 98.4448 146.481 98.4448 145.803C98.4448 144.978 98.7573 144.338 99.3823 143.884C100.012 143.425 100.896 143.195 102.034 143.195H103.352V142.573C103.352 142.099 103.21 141.723 102.927 141.445C102.644 141.162 102.227 141.02 101.675 141.02C101.191 141.02 100.786 141.142 100.459 141.386C100.132 141.63 99.9683 141.926 99.9683 142.272H98.606C98.606 141.877 98.7451 141.496 99.0234 141.13C99.3066 140.759 99.6875 140.466 100.166 140.251C100.649 140.036 101.179 139.929 101.755 139.929C102.668 139.929 103.384 140.158 103.901 140.617C104.419 141.071 104.688 141.699 104.707 142.5V146.147C104.707 146.875 104.8 147.453 104.985 147.883V148H103.564ZM101.316 146.967C101.741 146.967 102.144 146.857 102.524 146.638C102.905 146.418 103.181 146.132 103.352 145.781V144.155H102.29C100.63 144.155 99.7998 144.641 99.7998 145.612C99.7998 146.037 99.9414 146.369 100.225 146.608C100.508 146.848 100.872 146.967 101.316 146.967ZM108.113 140.075L108.157 141.071C108.762 140.31 109.553 139.929 110.53 139.929C112.205 139.929 113.049 140.874 113.064 142.763V148H111.709V142.756C111.704 142.185 111.572 141.762 111.313 141.489C111.06 141.215 110.662 141.079 110.12 141.079C109.68 141.079 109.294 141.196 108.962 141.43C108.63 141.665 108.372 141.972 108.186 142.353V148H106.831V140.075H108.113ZM114.778 143.972C114.778 142.756 115.066 141.779 115.642 141.042C116.218 140.3 116.973 139.929 117.905 139.929C118.833 139.929 119.568 140.246 120.11 140.881V136.75H121.465V148H120.22L120.154 147.15C119.612 147.814 118.857 148.146 117.891 148.146C116.973 148.146 116.223 147.771 115.642 147.019C115.066 146.267 114.778 145.285 114.778 144.074V143.972ZM116.133 144.125C116.133 145.024 116.318 145.727 116.689 146.235C117.061 146.743 117.573 146.997 118.228 146.997C119.087 146.997 119.714 146.611 120.11 145.839V142.199C119.705 141.452 119.082 141.079 118.242 141.079C117.578 141.079 117.061 141.335 116.689 141.848C116.318 142.36 116.133 143.12 116.133 144.125ZM129.133 138.156V140.075H130.613V141.123H129.133V146.037C129.133 146.354 129.199 146.594 129.331 146.755C129.463 146.911 129.688 146.989 130.005 146.989C130.161 146.989 130.376 146.96 130.649 146.901V148C130.293 148.098 129.946 148.146 129.609 148.146C129.004 148.146 128.547 147.963 128.24 147.597C127.932 147.231 127.778 146.711 127.778 146.037V141.123H126.335V140.075H127.778V138.156H129.133ZM135.491 148.146C134.417 148.146 133.542 147.795 132.869 147.092C132.195 146.384 131.858 145.439 131.858 144.257V144.008C131.858 143.222 132.007 142.521 132.305 141.906C132.607 141.286 133.027 140.803 133.564 140.456C134.106 140.104 134.692 139.929 135.322 139.929C136.353 139.929 137.153 140.268 137.725 140.947C138.296 141.625 138.582 142.597 138.582 143.862V144.426H133.213C133.232 145.207 133.459 145.839 133.894 146.323C134.333 146.801 134.89 147.041 135.564 147.041C136.042 147.041 136.448 146.943 136.78 146.748C137.112 146.552 137.402 146.293 137.651 145.971L138.479 146.616C137.815 147.636 136.819 148.146 135.491 148.146ZM135.322 141.042C134.775 141.042 134.316 141.242 133.945 141.643C133.574 142.038 133.345 142.595 133.257 143.312H137.227V143.21C137.188 142.521 137.002 141.989 136.67 141.613C136.338 141.232 135.889 141.042 135.322 141.042ZM145.049 148C144.971 147.844 144.907 147.565 144.858 147.165C144.229 147.819 143.477 148.146 142.603 148.146C141.821 148.146 141.179 147.927 140.676 147.487C140.178 147.043 139.929 146.481 139.929 145.803C139.929 144.978 140.242 144.338 140.867 143.884C141.497 143.425 142.38 143.195 143.518 143.195H144.836V142.573C144.836 142.099 144.695 141.723 144.412 141.445C144.128 141.162 143.711 141.02 143.159 141.02C142.676 141.02 142.271 141.142 141.943 141.386C141.616 141.63 141.453 141.926 141.453 142.272H140.09C140.09 141.877 140.229 141.496 140.508 141.13C140.791 140.759 141.172 140.466 141.65 140.251C142.134 140.036 142.664 139.929 143.24 139.929C144.153 139.929 144.868 140.158 145.386 140.617C145.903 141.071 146.172 141.699 146.191 142.5V146.147C146.191 146.875 146.284 147.453 146.47 147.883V148H145.049ZM142.8 146.967C143.225 146.967 143.628 146.857 144.009 146.638C144.39 146.418 144.666 146.132 144.836 145.781V144.155H143.774C142.114 144.155 141.284 144.641 141.284 145.612C141.284 146.037 141.426 146.369 141.709 146.608C141.992 146.848 142.356 146.967 142.8 146.967ZM149.59 140.075L149.626 140.954C150.208 140.271 150.991 139.929 151.978 139.929C153.086 139.929 153.84 140.354 154.241 141.203C154.504 140.822 154.846 140.515 155.266 140.28C155.691 140.046 156.191 139.929 156.768 139.929C158.506 139.929 159.39 140.849 159.419 142.69V148H158.064V142.771C158.064 142.204 157.935 141.782 157.676 141.503C157.417 141.22 156.982 141.079 156.372 141.079C155.869 141.079 155.452 141.23 155.12 141.533C154.788 141.831 154.595 142.233 154.541 142.741V148H153.179V142.807C153.179 141.655 152.615 141.079 151.487 141.079C150.598 141.079 149.99 141.457 149.663 142.214V148H148.308V140.075H149.59ZM166.084 145.898C166.084 145.532 165.945 145.249 165.667 145.048C165.393 144.843 164.912 144.667 164.224 144.521C163.54 144.375 162.996 144.199 162.59 143.994C162.19 143.789 161.892 143.544 161.697 143.261C161.506 142.978 161.411 142.641 161.411 142.25C161.411 141.601 161.685 141.052 162.231 140.603C162.783 140.153 163.486 139.929 164.341 139.929C165.239 139.929 165.967 140.161 166.523 140.625C167.085 141.088 167.366 141.682 167.366 142.404H166.003C166.003 142.033 165.845 141.713 165.527 141.445C165.215 141.176 164.819 141.042 164.341 141.042C163.848 141.042 163.462 141.149 163.184 141.364C162.905 141.579 162.766 141.86 162.766 142.207C162.766 142.534 162.896 142.78 163.154 142.946C163.413 143.112 163.879 143.271 164.553 143.422C165.232 143.574 165.781 143.754 166.201 143.964C166.621 144.174 166.931 144.428 167.131 144.726C167.336 145.019 167.439 145.378 167.439 145.803C167.439 146.511 167.156 147.08 166.589 147.509C166.023 147.934 165.288 148.146 164.385 148.146C163.75 148.146 163.188 148.034 162.7 147.81C162.212 147.585 161.829 147.272 161.55 146.872C161.277 146.467 161.14 146.03 161.14 145.561H162.495C162.52 146.015 162.7 146.376 163.037 146.645C163.379 146.909 163.828 147.041 164.385 147.041C164.897 147.041 165.308 146.938 165.615 146.733C165.928 146.523 166.084 146.245 166.084 145.898ZM169.16 150.124L168.391 149.597C168.85 148.957 169.089 148.298 169.109 147.619V146.396H170.435V147.458C170.435 147.951 170.312 148.444 170.068 148.938C169.829 149.431 169.526 149.826 169.16 150.124ZM179.048 147.041C179.531 147.041 179.954 146.894 180.315 146.601C180.676 146.308 180.876 145.942 180.916 145.502H182.197C182.173 145.957 182.017 146.389 181.729 146.799C181.44 147.209 181.055 147.536 180.571 147.78C180.093 148.024 179.585 148.146 179.048 148.146C177.969 148.146 177.109 147.788 176.47 147.07C175.835 146.347 175.518 145.361 175.518 144.111V143.884C175.518 143.112 175.659 142.426 175.942 141.826C176.226 141.225 176.631 140.759 177.158 140.427C177.69 140.095 178.318 139.929 179.041 139.929C179.929 139.929 180.667 140.195 181.252 140.727C181.843 141.259 182.158 141.95 182.197 142.8H180.916C180.876 142.287 180.681 141.867 180.33 141.54C179.983 141.208 179.553 141.042 179.041 141.042C178.352 141.042 177.817 141.291 177.437 141.789C177.061 142.282 176.873 142.998 176.873 143.935V144.191C176.873 145.104 177.061 145.808 177.437 146.301C177.812 146.794 178.35 147.041 179.048 147.041ZM187.551 141.291C187.346 141.257 187.124 141.24 186.885 141.24C185.996 141.24 185.393 141.618 185.076 142.375V148H183.721V140.075H185.039L185.061 140.991C185.505 140.283 186.135 139.929 186.951 139.929C187.214 139.929 187.415 139.963 187.551 140.031V141.291ZM191.946 148.146C190.872 148.146 189.998 147.795 189.324 147.092C188.65 146.384 188.313 145.439 188.313 144.257V144.008C188.313 143.222 188.462 142.521 188.76 141.906C189.062 141.286 189.482 140.803 190.02 140.456C190.562 140.104 191.147 139.929 191.777 139.929C192.808 139.929 193.608 140.268 194.18 140.947C194.751 141.625 195.037 142.597 195.037 143.862V144.426H189.668C189.688 145.207 189.915 145.839 190.349 146.323C190.789 146.801 191.345 147.041 192.019 147.041C192.498 147.041 192.903 146.943 193.235 146.748C193.567 146.552 193.857 146.293 194.106 145.971L194.934 146.616C194.27 147.636 193.274 148.146 191.946 148.146ZM191.777 141.042C191.23 141.042 190.771 141.242 190.4 141.643C190.029 142.038 189.8 142.595 189.712 143.312H193.682V143.21C193.643 142.521 193.457 141.989 193.125 141.613C192.793 141.232 192.344 141.042 191.777 141.042ZM201.504 148C201.426 147.844 201.362 147.565 201.313 147.165C200.684 147.819 199.932 148.146 199.058 148.146C198.276 148.146 197.634 147.927 197.131 147.487C196.633 147.043 196.384 146.481 196.384 145.803C196.384 144.978 196.697 144.338 197.322 143.884C197.952 143.425 198.835 143.195 199.973 143.195H201.292V142.573C201.292 142.099 201.15 141.723 200.867 141.445C200.583 141.162 200.166 141.02 199.614 141.02C199.131 141.02 198.726 141.142 198.398 141.386C198.071 141.63 197.908 141.926 197.908 142.272H196.545C196.545 141.877 196.685 141.496 196.963 141.13C197.246 140.759 197.627 140.466 198.105 140.251C198.589 140.036 199.119 139.929 199.695 139.929C200.608 139.929 201.323 140.158 201.841 140.617C202.358 141.071 202.627 141.699 202.646 142.5V146.147C202.646 146.875 202.739 147.453 202.925 147.883V148H201.504ZM199.255 146.967C199.68 146.967 200.083 146.857 200.464 146.638C200.845 146.418 201.121 146.132 201.292 145.781V144.155H200.229C198.569 144.155 197.739 144.641 197.739 145.612C197.739 146.037 197.881 146.369 198.164 146.608C198.447 146.848 198.811 146.967 199.255 146.967ZM206.609 138.156V140.075H208.088V141.123H206.609V146.037C206.609 146.354 206.675 146.594 206.807 146.755C206.938 146.911 207.163 146.989 207.48 146.989C207.637 146.989 207.852 146.96 208.125 146.901V148C207.769 148.098 207.422 148.146 207.085 148.146C206.479 148.146 206.023 147.963 205.715 147.597C205.408 147.231 205.254 146.711 205.254 146.037V141.123H203.811V140.075H205.254V138.156H206.609ZM212.966 148.146C211.892 148.146 211.018 147.795 210.344 147.092C209.67 146.384 209.333 145.439 209.333 144.257V144.008C209.333 143.222 209.482 142.521 209.78 141.906C210.083 141.286 210.503 140.803 211.04 140.456C211.582 140.104 212.168 139.929 212.798 139.929C213.828 139.929 214.629 140.268 215.2 140.947C215.771 141.625 216.057 142.597 216.057 143.862V144.426H210.688C210.708 145.207 210.935 145.839 211.37 146.323C211.809 146.801 212.366 147.041 213.04 147.041C213.518 147.041 213.923 146.943 214.255 146.748C214.587 146.552 214.878 146.293 215.127 145.971L215.955 146.616C215.291 147.636 214.294 148.146 212.966 148.146ZM212.798 141.042C212.251 141.042 211.792 141.242 211.421 141.643C211.05 142.038 210.82 142.595 210.732 143.312H214.702V143.21C214.663 142.521 214.478 141.989 214.146 141.613C213.813 141.232 213.364 141.042 212.798 141.042ZM225.183 141.291C224.978 141.257 224.756 141.24 224.517 141.24C223.628 141.24 223.025 141.618 222.708 142.375V148H221.353V140.075H222.671L222.693 140.991C223.137 140.283 223.767 139.929 224.583 139.929C224.846 139.929 225.046 139.963 225.183 140.031V141.291ZM229.578 148.146C228.503 148.146 227.629 147.795 226.956 147.092C226.282 146.384 225.945 145.439 225.945 144.257V144.008C225.945 143.222 226.094 142.521 226.392 141.906C226.694 141.286 227.114 140.803 227.651 140.456C228.193 140.104 228.779 139.929 229.409 139.929C230.439 139.929 231.24 140.268 231.812 140.947C232.383 141.625 232.668 142.597 232.668 143.862V144.426H227.3C227.319 145.207 227.546 145.839 227.981 146.323C228.42 146.801 228.977 147.041 229.651 147.041C230.129 147.041 230.535 146.943 230.867 146.748C231.199 146.552 231.489 146.293 231.738 145.971L232.566 146.616C231.902 147.636 230.906 148.146 229.578 148.146ZM229.409 141.042C228.862 141.042 228.403 141.242 228.032 141.643C227.661 142.038 227.432 142.595 227.344 143.312H231.313V143.21C231.274 142.521 231.089 141.989 230.757 141.613C230.425 141.232 229.976 141.042 229.409 141.042ZM240.938 144.125C240.938 145.332 240.662 146.303 240.11 147.041C239.558 147.778 238.811 148.146 237.869 148.146C236.907 148.146 236.15 147.841 235.598 147.231V151.047H234.243V140.075H235.481L235.547 140.954C236.099 140.271 236.865 139.929 237.847 139.929C238.799 139.929 239.551 140.288 240.103 141.005C240.659 141.723 240.938 142.722 240.938 144.001V144.125ZM239.583 143.972C239.583 143.078 239.392 142.373 239.011 141.855C238.63 141.337 238.108 141.079 237.444 141.079C236.624 141.079 236.008 141.442 235.598 142.17V145.957C236.003 146.679 236.624 147.041 237.458 147.041C238.108 147.041 238.623 146.784 239.004 146.271C239.39 145.754 239.583 144.987 239.583 143.972ZM242.307 143.964C242.307 143.188 242.458 142.49 242.761 141.87C243.069 141.25 243.494 140.771 244.036 140.434C244.583 140.097 245.205 139.929 245.903 139.929C246.982 139.929 247.854 140.302 248.518 141.049C249.187 141.796 249.521 142.79 249.521 144.03V144.125C249.521 144.897 249.373 145.59 249.075 146.206C248.782 146.816 248.359 147.292 247.808 147.634C247.261 147.976 246.631 148.146 245.918 148.146C244.844 148.146 243.972 147.773 243.303 147.026C242.639 146.279 242.307 145.29 242.307 144.06V143.964ZM243.669 144.125C243.669 145.004 243.872 145.71 244.277 146.242C244.688 146.774 245.234 147.041 245.918 147.041C246.606 147.041 247.153 146.772 247.559 146.235C247.964 145.693 248.167 144.936 248.167 143.964C248.167 143.095 247.959 142.392 247.544 141.855C247.134 141.313 246.587 141.042 245.903 141.042C245.234 141.042 244.695 141.308 244.285 141.84C243.875 142.373 243.669 143.134 243.669 144.125ZM255.051 141.291C254.846 141.257 254.624 141.24 254.385 141.24C253.496 141.24 252.893 141.618 252.576 142.375V148H251.221V140.075H252.539L252.561 140.991C253.005 140.283 253.635 139.929 254.451 139.929C254.714 139.929 254.915 139.963 255.051 140.031V141.291ZM258.508 138.156V140.075H259.988V141.123H258.508V146.037C258.508 146.354 258.574 146.594 258.706 146.755C258.838 146.911 259.062 146.989 259.38 146.989C259.536 146.989 259.751 146.96 260.024 146.901V148C259.668 148.098 259.321 148.146 258.984 148.146C258.379 148.146 257.922 147.963 257.615 147.597C257.307 147.231 257.153 146.711 257.153 146.037V141.123H255.71V140.075H257.153V138.156H258.508ZM266.191 145.898C266.191 145.532 266.052 145.249 265.774 145.048C265.5 144.843 265.02 144.667 264.331 144.521C263.647 144.375 263.103 144.199 262.698 143.994C262.297 143.789 262 143.544 261.804 143.261C261.614 142.978 261.519 142.641 261.519 142.25C261.519 141.601 261.792 141.052 262.339 140.603C262.891 140.153 263.594 139.929 264.448 139.929C265.347 139.929 266.074 140.161 266.631 140.625C267.192 141.088 267.473 141.682 267.473 142.404H266.111C266.111 142.033 265.952 141.713 265.635 141.445C265.322 141.176 264.927 141.042 264.448 141.042C263.955 141.042 263.569 141.149 263.291 141.364C263.013 141.579 262.874 141.86 262.874 142.207C262.874 142.534 263.003 142.78 263.262 142.946C263.521 143.112 263.987 143.271 264.661 143.422C265.339 143.574 265.889 143.754 266.309 143.964C266.729 144.174 267.039 144.428 267.239 144.726C267.444 145.019 267.546 145.378 267.546 145.803C267.546 146.511 267.263 147.08 266.697 147.509C266.13 147.934 265.396 148.146 264.492 148.146C263.857 148.146 263.296 148.034 262.808 147.81C262.319 147.585 261.936 147.272 261.658 146.872C261.384 146.467 261.248 146.03 261.248 145.561H262.603C262.627 146.015 262.808 146.376 263.145 146.645C263.486 146.909 263.936 147.041 264.492 147.041C265.005 147.041 265.415 146.938 265.723 146.733C266.035 146.523 266.191 146.245 266.191 145.898ZM277.925 148C277.847 147.844 277.783 147.565 277.734 147.165C277.104 147.819 276.353 148.146 275.479 148.146C274.697 148.146 274.055 147.927 273.552 147.487C273.054 147.043 272.805 146.481 272.805 145.803C272.805 144.978 273.118 144.338 273.743 143.884C274.373 143.425 275.256 143.195 276.394 143.195H277.712V142.573C277.712 142.099 277.571 141.723 277.288 141.445C277.004 141.162 276.587 141.02 276.035 141.02C275.552 141.02 275.146 141.142 274.819 141.386C274.492 141.63 274.329 141.926 274.329 142.272H272.966C272.966 141.877 273.105 141.496 273.384 141.13C273.667 140.759 274.048 140.466 274.526 140.251C275.01 140.036 275.54 139.929 276.116 139.929C277.029 139.929 277.744 140.158 278.262 140.617C278.779 141.071 279.048 141.699 279.067 142.5V146.147C279.067 146.875 279.16 147.453 279.346 147.883V148H277.925ZM275.676 146.967C276.101 146.967 276.504 146.857 276.885 146.638C277.266 146.418 277.542 146.132 277.712 145.781V144.155H276.65C274.99 144.155 274.16 144.641 274.16 145.612C274.16 146.037 274.302 146.369 274.585 146.608C274.868 146.848 275.232 146.967 275.676 146.967ZM282.473 140.075L282.517 141.071C283.123 140.31 283.914 139.929 284.89 139.929C286.565 139.929 287.41 140.874 287.424 142.763V148H286.069V142.756C286.064 142.185 285.933 141.762 285.674 141.489C285.42 141.215 285.022 141.079 284.48 141.079C284.041 141.079 283.655 141.196 283.323 141.43C282.991 141.665 282.732 141.972 282.546 142.353V148H281.191V140.075H282.473ZM289.138 143.972C289.138 142.756 289.426 141.779 290.002 141.042C290.579 140.3 291.333 139.929 292.266 139.929C293.193 139.929 293.928 140.246 294.47 140.881V136.75H295.825V148H294.58L294.514 147.15C293.972 147.814 293.218 148.146 292.251 148.146C291.333 148.146 290.583 147.771 290.002 147.019C289.426 146.267 289.138 145.285 289.138 144.074V143.972ZM290.493 144.125C290.493 145.024 290.679 145.727 291.05 146.235C291.421 146.743 291.934 146.997 292.588 146.997C293.447 146.997 294.075 146.611 294.47 145.839V142.199C294.065 141.452 293.442 141.079 292.603 141.079C291.938 141.079 291.421 141.335 291.05 141.848C290.679 142.36 290.493 143.12 290.493 144.125ZM303.127 148H301.772V140.075H303.127V148ZM301.663 137.973C301.663 137.753 301.729 137.568 301.86 137.417C301.997 137.265 302.197 137.189 302.461 137.189C302.725 137.189 302.925 137.265 303.062 137.417C303.198 137.568 303.267 137.753 303.267 137.973C303.267 138.193 303.198 138.376 303.062 138.522C302.925 138.669 302.725 138.742 302.461 138.742C302.197 138.742 301.997 138.669 301.86 138.522C301.729 138.376 301.663 138.193 301.663 137.973ZM306.577 140.075L306.614 140.954C307.195 140.271 307.979 139.929 308.965 139.929C310.073 139.929 310.828 140.354 311.228 141.203C311.492 140.822 311.833 140.515 312.253 140.28C312.678 140.046 313.179 139.929 313.755 139.929C315.493 139.929 316.377 140.849 316.406 142.69V148H315.051V142.771C315.051 142.204 314.922 141.782 314.663 141.503C314.404 141.22 313.97 141.079 313.359 141.079C312.856 141.079 312.439 141.23 312.107 141.533C311.775 141.831 311.582 142.233 311.528 142.741V148H310.166V142.807C310.166 141.655 309.602 141.079 308.474 141.079C307.585 141.079 306.978 141.457 306.65 142.214V148H305.295V140.075H306.577ZM325.151 144.125C325.151 145.332 324.875 146.303 324.324 147.041C323.772 147.778 323.025 148.146 322.083 148.146C321.121 148.146 320.364 147.841 319.812 147.231V151.047H318.457V140.075H319.695L319.761 140.954C320.312 140.271 321.079 139.929 322.061 139.929C323.013 139.929 323.765 140.288 324.316 141.005C324.873 141.723 325.151 142.722 325.151 144.001V144.125ZM323.796 143.972C323.796 143.078 323.606 142.373 323.225 141.855C322.844 141.337 322.322 141.079 321.658 141.079C320.837 141.079 320.222 141.442 319.812 142.17V145.957C320.217 146.679 320.837 147.041 321.672 147.041C322.322 147.041 322.837 146.784 323.218 146.271C323.604 145.754 323.796 144.987 323.796 143.972ZM330.71 141.291C330.505 141.257 330.283 141.24 330.044 141.24C329.155 141.24 328.552 141.618 328.235 142.375V148H326.88V140.075H328.198L328.22 140.991C328.665 140.283 329.294 139.929 330.11 139.929C330.374 139.929 330.574 139.963 330.71 140.031V141.291ZM331.458 143.964C331.458 143.188 331.609 142.49 331.912 141.87C332.219 141.25 332.644 140.771 333.186 140.434C333.733 140.097 334.355 139.929 335.054 139.929C336.133 139.929 337.004 140.302 337.668 141.049C338.337 141.796 338.672 142.79 338.672 144.03V144.125C338.672 144.897 338.523 145.59 338.225 146.206C337.932 146.816 337.51 147.292 336.958 147.634C336.411 147.976 335.781 148.146 335.068 148.146C333.994 148.146 333.123 147.773 332.454 147.026C331.79 146.279 331.458 145.29 331.458 144.06V143.964ZM332.82 144.125C332.82 145.004 333.022 145.71 333.428 146.242C333.838 146.774 334.385 147.041 335.068 147.041C335.757 147.041 336.304 146.772 336.709 146.235C337.114 145.693 337.317 144.936 337.317 143.964C337.317 143.095 337.109 142.392 336.694 141.855C336.284 141.313 335.737 141.042 335.054 141.042C334.385 141.042 333.845 141.308 333.435 141.84C333.025 142.373 332.82 143.134 332.82 144.125ZM342.869 146.162L344.832 140.075H346.216L343.374 148H342.341L339.47 140.075H340.854L342.869 146.162ZM350.706 148.146C349.631 148.146 348.757 147.795 348.083 147.092C347.41 146.384 347.073 145.439 347.073 144.257V144.008C347.073 143.222 347.222 142.521 347.52 141.906C347.822 141.286 348.242 140.803 348.779 140.456C349.321 140.104 349.907 139.929 350.537 139.929C351.567 139.929 352.368 140.268 352.939 140.947C353.511 141.625 353.796 142.597 353.796 143.862V144.426H348.428C348.447 145.207 348.674 145.839 349.109 146.323C349.548 146.801 350.105 147.041 350.779 147.041C351.257 147.041 351.663 146.943 351.995 146.748C352.327 146.552 352.617 146.293 352.866 145.971L353.694 146.616C353.03 147.636 352.034 148.146 350.706 148.146ZM350.537 141.042C349.99 141.042 349.531 141.242 349.16 141.643C348.789 142.038 348.56 142.595 348.472 143.312H352.441V143.21C352.402 142.521 352.217 141.989 351.885 141.613C351.553 141.232 351.104 141.042 350.537 141.042ZM361.685 146.015L363.53 140.075H364.98L361.794 149.223C361.301 150.542 360.518 151.201 359.443 151.201L359.187 151.179L358.682 151.083V149.985L359.048 150.014C359.507 150.014 359.863 149.921 360.117 149.736C360.376 149.55 360.588 149.211 360.754 148.718L361.055 147.912L358.228 140.075H359.707L361.685 146.015ZM365.72 143.964C365.72 143.188 365.872 142.49 366.174 141.87C366.482 141.25 366.907 140.771 367.449 140.434C367.996 140.097 368.618 139.929 369.316 139.929C370.396 139.929 371.267 140.302 371.931 141.049C372.6 141.796 372.935 142.79 372.935 144.03V144.125C372.935 144.897 372.786 145.59 372.488 146.206C372.195 146.816 371.772 147.292 371.221 147.634C370.674 147.976 370.044 148.146 369.331 148.146C368.257 148.146 367.385 147.773 366.716 147.026C366.052 146.279 365.72 145.29 365.72 144.06V143.964ZM367.083 144.125C367.083 145.004 367.285 145.71 367.69 146.242C368.101 146.774 368.647 147.041 369.331 147.041C370.02 147.041 370.566 146.772 370.972 146.235C371.377 145.693 371.58 144.936 371.58 143.964C371.58 143.095 371.372 142.392 370.957 141.855C370.547 141.313 370 141.042 369.316 141.042C368.647 141.042 368.108 141.308 367.698 141.84C367.288 142.373 367.083 143.134 367.083 144.125ZM379.526 147.216C378.999 147.836 378.225 148.146 377.205 148.146C376.36 148.146 375.715 147.902 375.271 147.414C374.832 146.921 374.609 146.193 374.604 145.231V140.075H375.959V145.195C375.959 146.396 376.448 146.997 377.424 146.997C378.459 146.997 379.148 146.611 379.49 145.839V140.075H380.845V148H379.556L379.526 147.216ZM386.741 141.291C386.536 141.257 386.313 141.24 386.074 141.24C385.186 141.24 384.583 141.618 384.265 142.375V148H382.91V140.075H384.229L384.25 140.991C384.695 140.283 385.325 139.929 386.14 139.929C386.404 139.929 386.604 139.963 386.741 140.031V141.291ZM7.71973 162.125C7.71973 163.332 7.44385 164.303 6.89209 165.041C6.34033 165.778 5.59326 166.146 4.65088 166.146C3.68896 166.146 2.93213 165.841 2.38037 165.231V169.047H1.02539V158.075H2.26318L2.3291 158.954C2.88086 158.271 3.64746 157.929 4.62891 157.929C5.58105 157.929 6.33301 158.288 6.88477 159.005C7.44141 159.723 7.71973 160.722 7.71973 162.001V162.125ZM6.36475 161.972C6.36475 161.078 6.17432 160.373 5.79346 159.855C5.4126 159.337 4.89014 159.079 4.22607 159.079C3.40576 159.079 2.79053 159.442 2.38037 160.17V163.957C2.78564 164.679 3.40576 165.041 4.24072 165.041C4.89014 165.041 5.40527 164.784 5.78613 164.271C6.17188 163.754 6.36475 162.987 6.36475 161.972ZM12.7368 166.146C11.6626 166.146 10.7886 165.795 10.1147 165.092C9.44092 164.384 9.104 163.439 9.104 162.257V162.008C9.104 161.222 9.25293 160.521 9.55078 159.906C9.85352 159.286 10.2734 158.803 10.8105 158.456C11.3525 158.104 11.9385 157.929 12.5684 157.929C13.5986 157.929 14.3994 158.268 14.9707 158.947C15.542 159.625 15.8276 160.597 15.8276 161.862V162.426H10.459C10.4785 163.207 10.7056 163.839 11.1401 164.323C11.5796 164.801 12.1362 165.041 12.8101 165.041C13.2886 165.041 13.6938 164.943 14.0259 164.748C14.3579 164.552 14.6484 164.293 14.8975 163.971L15.7251 164.616C15.061 165.636 14.0649 166.146 12.7368 166.146ZM12.5684 159.042C12.0215 159.042 11.5625 159.242 11.1914 159.643C10.8203 160.038 10.5908 160.595 10.5029 161.312H14.4727V161.21C14.4336 160.521 14.248 159.989 13.916 159.613C13.584 159.232 13.1348 159.042 12.5684 159.042ZM21.2329 159.291C21.0278 159.257 20.8057 159.24 20.5664 159.24C19.6777 159.24 19.0747 159.618 18.7573 160.375V166H17.4023V158.075H18.7207L18.7427 158.991C19.187 158.283 19.8169 157.929 20.6323 157.929C20.896 157.929 21.0962 157.963 21.2329 158.031V159.291ZM23.269 166V159.123H22.0166V158.075H23.269V157.262C23.269 156.413 23.4961 155.756 23.9502 155.292C24.4043 154.828 25.0464 154.596 25.8765 154.596C26.189 154.596 26.499 154.638 26.8066 154.721L26.7334 155.819C26.5039 155.775 26.2598 155.753 26.001 155.753C25.5615 155.753 25.2222 155.883 24.9829 156.142C24.7437 156.396 24.624 156.762 24.624 157.24V158.075H26.3159V159.123H24.624V166H23.269ZM27.4585 161.964C27.4585 161.188 27.6099 160.49 27.9126 159.87C28.2202 159.25 28.645 158.771 29.187 158.434C29.7339 158.097 30.3564 157.929 31.0547 157.929C32.1338 157.929 33.0054 158.302 33.6694 159.049C34.3384 159.796 34.6729 160.79 34.6729 162.03V162.125C34.6729 162.897 34.5239 163.59 34.2261 164.206C33.9331 164.816 33.5107 165.292 32.959 165.634C32.4121 165.976 31.7822 166.146 31.0693 166.146C29.9951 166.146 29.1235 165.773 28.4546 165.026C27.7905 164.279 27.4585 163.29 27.4585 162.06V161.964ZM28.8208 162.125C28.8208 163.004 29.0234 163.71 29.4287 164.242C29.8389 164.774 30.3857 165.041 31.0693 165.041C31.7578 165.041 32.3047 164.772 32.71 164.235C33.1152 163.693 33.3179 162.936 33.3179 161.964C33.3179 161.095 33.1104 160.392 32.6953 159.855C32.2852 159.313 31.7383 159.042 31.0547 159.042C30.3857 159.042 29.8462 159.308 29.436 159.84C29.0259 160.373 28.8208 161.134 28.8208 162.125ZM40.2026 159.291C39.9976 159.257 39.7754 159.24 39.5361 159.24C38.6475 159.24 38.0444 159.618 37.7271 160.375V166H36.3721V158.075H37.6904L37.7124 158.991C38.1567 158.283 38.7866 157.929 39.6021 157.929C39.8657 157.929 40.0659 157.963 40.2026 158.031V159.291ZM42.7295 158.075L42.7661 158.954C43.3472 158.271 44.1309 157.929 45.1172 157.929C46.2256 157.929 46.98 158.354 47.3804 159.203C47.644 158.822 47.9858 158.515 48.4058 158.28C48.8306 158.046 49.3311 157.929 49.9072 157.929C51.6455 157.929 52.5293 158.849 52.5586 160.69V166H51.2036V160.771C51.2036 160.204 51.0742 159.782 50.8154 159.503C50.5566 159.22 50.1221 159.079 49.5117 159.079C49.0088 159.079 48.5913 159.23 48.2593 159.533C47.9272 159.831 47.7344 160.233 47.6807 160.741V166H46.3184V160.807C46.3184 159.655 45.7544 159.079 44.6265 159.079C43.7378 159.079 43.1299 159.457 42.8027 160.214V166H41.4478V158.075H42.7295ZM59.502 166C59.4238 165.844 59.3604 165.565 59.3115 165.165C58.6816 165.819 57.9297 166.146 57.0557 166.146C56.2744 166.146 55.6323 165.927 55.1294 165.487C54.6313 165.043 54.3823 164.481 54.3823 163.803C54.3823 162.978 54.6948 162.338 55.3198 161.884C55.9497 161.425 56.8335 161.195 57.9712 161.195H59.2896V160.573C59.2896 160.099 59.1479 159.723 58.8647 159.445C58.5815 159.162 58.1641 159.02 57.6123 159.02C57.1289 159.02 56.7236 159.142 56.3965 159.386C56.0693 159.63 55.9058 159.926 55.9058 160.272H54.5435C54.5435 159.877 54.6826 159.496 54.9609 159.13C55.2441 158.759 55.625 158.466 56.1035 158.251C56.5869 158.036 57.1167 157.929 57.6929 157.929C58.606 157.929 59.3213 158.158 59.8389 158.617C60.3564 159.071 60.625 159.699 60.6445 160.5V164.147C60.6445 164.875 60.7373 165.453 60.9229 165.883V166H59.502ZM57.2534 164.967C57.6782 164.967 58.0811 164.857 58.4619 164.638C58.8428 164.418 59.1187 164.132 59.2896 163.781V162.155H58.2275C56.5674 162.155 55.7373 162.641 55.7373 163.612C55.7373 164.037 55.8789 164.369 56.1621 164.608C56.4453 164.848 56.8091 164.967 57.2534 164.967ZM65.9473 165.041C66.4307 165.041 66.853 164.894 67.2144 164.601C67.5757 164.308 67.7759 163.942 67.8149 163.502H69.0967C69.0723 163.957 68.916 164.389 68.6279 164.799C68.3398 165.209 67.9541 165.536 67.4707 165.78C66.9922 166.024 66.4844 166.146 65.9473 166.146C64.8682 166.146 64.0088 165.788 63.3691 165.07C62.7344 164.347 62.417 163.361 62.417 162.111V161.884C62.417 161.112 62.5586 160.426 62.8418 159.826C63.125 159.225 63.5303 158.759 64.0576 158.427C64.5898 158.095 65.2173 157.929 65.9399 157.929C66.8286 157.929 67.5659 158.195 68.1519 158.727C68.7427 159.259 69.0576 159.95 69.0967 160.8H67.8149C67.7759 160.287 67.5806 159.867 67.229 159.54C66.8823 159.208 66.4526 159.042 65.9399 159.042C65.2515 159.042 64.7168 159.291 64.3359 159.789C63.96 160.282 63.772 160.998 63.772 161.935V162.191C63.772 163.104 63.96 163.808 64.3359 164.301C64.7119 164.794 65.249 165.041 65.9473 165.041ZM73.9087 166.146C72.8345 166.146 71.9604 165.795 71.2866 165.092C70.6128 164.384 70.2759 163.439 70.2759 162.257V162.008C70.2759 161.222 70.4248 160.521 70.7227 159.906C71.0254 159.286 71.4453 158.803 71.9824 158.456C72.5244 158.104 73.1104 157.929 73.7402 157.929C74.7705 157.929 75.5713 158.268 76.1426 158.947C76.7139 159.625 76.9995 160.597 76.9995 161.862V162.426H71.6309C71.6504 163.207 71.8774 163.839 72.312 164.323C72.7515 164.801 73.3081 165.041 73.9819 165.041C74.4604 165.041 74.8657 164.943 75.1978 164.748C75.5298 164.552 75.8203 164.293 76.0693 163.971L76.897 164.616C76.2329 165.636 75.2368 166.146 73.9087 166.146ZM73.7402 159.042C73.1934 159.042 72.7344 159.242 72.3633 159.643C71.9922 160.038 71.7627 160.595 71.6748 161.312H75.6445V161.21C75.6055 160.521 75.4199 159.989 75.0879 159.613C74.7559 159.232 74.3066 159.042 73.7402 159.042Z" fill="white"/>
<path d="M6.23779 258V247.336H9.24805C10.1758 247.336 10.9961 247.541 11.709 247.951C12.4219 248.361 12.9712 248.945 13.3569 249.702C13.7476 250.458 13.9453 251.328 13.9502 252.309V252.99C13.9502 253.996 13.7549 254.877 13.3643 255.634C12.9785 256.391 12.4243 256.972 11.7017 257.377C10.9839 257.783 10.1465 257.99 9.18945 258H6.23779ZM7.64404 248.493V256.85H9.12354C10.2075 256.85 11.0498 256.513 11.6504 255.839C12.2559 255.166 12.5586 254.206 12.5586 252.961V252.338C12.5586 251.127 12.2729 250.188 11.7017 249.519C11.1353 248.845 10.3296 248.503 9.28467 248.493H7.64404ZM19.1577 258.146C18.0835 258.146 17.2095 257.795 16.5356 257.092C15.8618 256.384 15.5249 255.439 15.5249 254.257V254.008C15.5249 253.222 15.6738 252.521 15.9717 251.906C16.2744 251.286 16.6943 250.803 17.2314 250.456C17.7734 250.104 18.3594 249.929 18.9893 249.929C20.0195 249.929 20.8203 250.268 21.3916 250.947C21.9629 251.625 22.2485 252.597 22.2485 253.862V254.426H16.8799C16.8994 255.207 17.1265 255.839 17.561 256.323C18.0005 256.801 18.5571 257.041 19.231 257.041C19.7095 257.041 20.1147 256.943 20.4468 256.748C20.7788 256.552 21.0693 256.293 21.3184 255.971L22.146 256.616C21.4819 257.636 20.4858 258.146 19.1577 258.146ZM18.9893 251.042C18.4424 251.042 17.9834 251.242 17.6123 251.643C17.2412 252.038 17.0117 252.595 16.9238 253.312H20.8936V253.21C20.8545 252.521 20.6689 251.989 20.3369 251.613C20.0049 251.232 19.5557 251.042 18.9893 251.042ZM26.3354 256.162L28.2983 250.075H29.6826L26.8408 258H25.8081L22.937 250.075H24.3213L26.3354 256.162ZM34.1724 258.146C33.0981 258.146 32.2241 257.795 31.5503 257.092C30.8765 256.384 30.5396 255.439 30.5396 254.257V254.008C30.5396 253.222 30.6885 252.521 30.9863 251.906C31.2891 251.286 31.709 250.803 32.2461 250.456C32.7881 250.104 33.374 249.929 34.0039 249.929C35.0342 249.929 35.835 250.268 36.4062 250.947C36.9775 251.625 37.2632 252.597 37.2632 253.862V254.426H31.8945C31.9141 255.207 32.1411 255.839 32.5757 256.323C33.0151 256.801 33.5718 257.041 34.2456 257.041C34.7241 257.041 35.1294 256.943 35.4614 256.748C35.7935 256.552 36.084 256.293 36.333 255.971L37.1606 256.616C36.4966 257.636 35.5005 258.146 34.1724 258.146ZM34.0039 251.042C33.457 251.042 32.998 251.242 32.627 251.643C32.2559 252.038 32.0264 252.595 31.9385 253.312H35.9082V253.21C35.8691 252.521 35.6836 251.989 35.3516 251.613C35.0195 251.232 34.5703 251.042 34.0039 251.042ZM40.3101 258H38.9551V246.75H40.3101V258ZM42.1265 253.964C42.1265 253.188 42.2778 252.49 42.5806 251.87C42.8882 251.25 43.313 250.771 43.855 250.434C44.4019 250.097 45.0244 249.929 45.7227 249.929C46.8018 249.929 47.6733 250.302 48.3374 251.049C49.0063 251.796 49.3408 252.79 49.3408 254.03V254.125C49.3408 254.897 49.1919 255.59 48.894 256.206C48.6011 256.816 48.1787 257.292 47.627 257.634C47.0801 257.976 46.4502 258.146 45.7373 258.146C44.6631 258.146 43.7915 257.773 43.1226 257.026C42.4585 256.279 42.1265 255.29 42.1265 254.06V253.964ZM43.4888 254.125C43.4888 255.004 43.6914 255.71 44.0967 256.242C44.5068 256.774 45.0537 257.041 45.7373 257.041C46.4258 257.041 46.9727 256.772 47.3779 256.235C47.7832 255.693 47.9858 254.936 47.9858 253.964C47.9858 253.095 47.7783 252.392 47.3633 251.855C46.9531 251.313 46.4062 251.042 45.7227 251.042C45.0537 251.042 44.5142 251.308 44.104 251.84C43.6938 252.373 43.4888 253.134 43.4888 254.125ZM57.7344 254.125C57.7344 255.332 57.4585 256.303 56.9067 257.041C56.355 257.778 55.6079 258.146 54.6655 258.146C53.7036 258.146 52.9468 257.841 52.395 257.231V261.047H51.04V250.075H52.2778L52.3438 250.954C52.8955 250.271 53.6621 249.929 54.6436 249.929C55.5957 249.929 56.3477 250.288 56.8994 251.005C57.4561 251.723 57.7344 252.722 57.7344 254.001V254.125ZM56.3794 253.972C56.3794 253.078 56.189 252.373 55.8081 251.855C55.4272 251.337 54.9048 251.079 54.2407 251.079C53.4204 251.079 52.8052 251.442 52.395 252.17V255.957C52.8003 256.679 53.4204 257.041 54.2554 257.041C54.9048 257.041 55.4199 256.784 55.8008 256.271C56.1865 255.754 56.3794 254.987 56.3794 253.972ZM62.7515 258.146C61.6772 258.146 60.8032 257.795 60.1294 257.092C59.4556 256.384 59.1187 255.439 59.1187 254.257V254.008C59.1187 253.222 59.2676 252.521 59.5654 251.906C59.8682 251.286 60.2881 250.803 60.8252 250.456C61.3672 250.104 61.9531 249.929 62.583 249.929C63.6133 249.929 64.4141 250.268 64.9854 250.947C65.5566 251.625 65.8423 252.597 65.8423 253.862V254.426H60.4736C60.4932 255.207 60.7202 255.839 61.1548 256.323C61.5942 256.801 62.1509 257.041 62.8247 257.041C63.3032 257.041 63.7085 256.943 64.0405 256.748C64.3726 256.552 64.6631 256.293 64.9121 255.971L65.7397 256.616C65.0757 257.636 64.0796 258.146 62.7515 258.146ZM62.583 251.042C62.0361 251.042 61.5771 251.242 61.2061 251.643C60.835 252.038 60.6055 252.595 60.5176 253.312H64.4873V253.21C64.4482 252.521 64.2627 251.989 63.9307 251.613C63.5986 251.232 63.1494 251.042 62.583 251.042ZM67.0874 253.972C67.0874 252.756 67.3755 251.779 67.9517 251.042C68.5278 250.3 69.2822 249.929 70.2148 249.929C71.1426 249.929 71.8774 250.246 72.4194 250.881V246.75H73.7744V258H72.5293L72.4634 257.15C71.9214 257.814 71.167 258.146 70.2002 258.146C69.2822 258.146 68.5327 257.771 67.9517 257.019C67.3755 256.267 67.0874 255.285 67.0874 254.074V253.972ZM68.4424 254.125C68.4424 255.024 68.6279 255.727 68.999 256.235C69.3701 256.743 69.8828 256.997 70.5371 256.997C71.3965 256.997 72.0239 256.611 72.4194 255.839V252.199C72.0142 251.452 71.3916 251.079 70.5518 251.079C69.8877 251.079 69.3701 251.335 68.999 251.848C68.6279 252.36 68.4424 253.12 68.4424 254.125ZM86.3135 254.125C86.3135 255.336 86.0352 256.311 85.4785 257.048C84.9219 257.78 84.1748 258.146 83.2373 258.146C82.2363 258.146 81.4624 257.792 80.9155 257.084L80.8496 258H79.6045V246.75H80.9595V250.947C81.5063 250.268 82.2607 249.929 83.2227 249.929C84.1846 249.929 84.939 250.292 85.4858 251.02C86.0376 251.748 86.3135 252.744 86.3135 254.008V254.125ZM84.9585 253.972C84.9585 253.049 84.7803 252.336 84.4238 251.833C84.0674 251.33 83.5547 251.079 82.8857 251.079C81.9922 251.079 81.3501 251.494 80.9595 252.324V255.751C81.3745 256.582 82.0215 256.997 82.9004 256.997C83.5498 256.997 84.0552 256.745 84.4165 256.242C84.7778 255.739 84.9585 254.982 84.9585 253.972ZM90.5322 256.015L92.3779 250.075H93.8281L90.6421 259.223C90.1489 260.542 89.3652 261.201 88.291 261.201L88.0347 261.179L87.5293 261.083V259.985L87.8955 260.014C88.3545 260.014 88.7109 259.921 88.9648 259.736C89.2236 259.55 89.436 259.211 89.6021 258.718L89.9023 257.912L87.0752 250.075H88.5547L90.5322 256.015ZM100.889 254.243V258H98.6914V247.336H102.852C103.652 247.336 104.355 247.482 104.961 247.775C105.571 248.068 106.04 248.486 106.367 249.028C106.694 249.565 106.858 250.178 106.858 250.866C106.858 251.911 106.499 252.736 105.781 253.342C105.068 253.942 104.08 254.243 102.815 254.243H100.889ZM100.889 252.463H102.852C103.433 252.463 103.875 252.326 104.177 252.053C104.485 251.779 104.639 251.389 104.639 250.881C104.639 250.358 104.485 249.936 104.177 249.614C103.87 249.292 103.445 249.125 102.903 249.116H100.889V252.463ZM112.688 252.06C112.4 252.021 112.146 252.001 111.926 252.001C111.125 252.001 110.601 252.272 110.352 252.814V258H108.235V250.075H110.234L110.293 251.02C110.718 250.292 111.306 249.929 112.058 249.929C112.292 249.929 112.512 249.96 112.717 250.024L112.688 252.06ZM115.947 258H113.823V250.075H115.947V258ZM113.699 248.024C113.699 247.707 113.804 247.446 114.014 247.241C114.229 247.036 114.519 246.933 114.885 246.933C115.247 246.933 115.535 247.036 115.75 247.241C115.964 247.446 116.072 247.707 116.072 248.024C116.072 248.347 115.962 248.61 115.742 248.815C115.527 249.021 115.242 249.123 114.885 249.123C114.529 249.123 114.241 249.021 114.021 248.815C113.806 248.61 113.699 248.347 113.699 248.024ZM120.664 255.415L122.136 250.075H124.348L121.675 258H119.653L116.98 250.075H119.192L120.664 255.415ZM129.761 258C129.663 257.81 129.592 257.573 129.548 257.29C129.036 257.861 128.369 258.146 127.549 258.146C126.772 258.146 126.128 257.922 125.615 257.473C125.107 257.023 124.854 256.457 124.854 255.773C124.854 254.934 125.164 254.289 125.784 253.84C126.409 253.391 127.31 253.164 128.486 253.159H129.46V252.705C129.46 252.338 129.365 252.045 129.175 251.826C128.989 251.606 128.694 251.496 128.289 251.496C127.932 251.496 127.651 251.582 127.446 251.752C127.246 251.923 127.146 252.158 127.146 252.456H125.029C125.029 251.997 125.171 251.572 125.454 251.181C125.737 250.791 126.138 250.485 126.655 250.266C127.173 250.041 127.754 249.929 128.398 249.929C129.375 249.929 130.149 250.175 130.72 250.668C131.296 251.157 131.584 251.845 131.584 252.734V256.169C131.589 256.921 131.694 257.49 131.899 257.875V258H129.761ZM128.01 256.528C128.323 256.528 128.611 256.459 128.875 256.323C129.138 256.181 129.333 255.993 129.46 255.759V254.396H128.669C127.61 254.396 127.046 254.763 126.978 255.495L126.97 255.62C126.97 255.883 127.063 256.101 127.249 256.271C127.434 256.442 127.688 256.528 128.01 256.528ZM135.745 248.127V250.075H137.1V251.628H135.745V255.583C135.745 255.876 135.801 256.086 135.913 256.213C136.025 256.34 136.24 256.403 136.558 256.403C136.792 256.403 137 256.386 137.18 256.352V257.956C136.765 258.083 136.338 258.146 135.898 258.146C134.414 258.146 133.657 257.397 133.628 255.898V251.628H132.471V250.075H133.628V248.127H135.745ZM141.926 258.146C140.764 258.146 139.817 257.79 139.084 257.077C138.357 256.364 137.993 255.415 137.993 254.228V254.023C137.993 253.227 138.147 252.517 138.455 251.892C138.762 251.262 139.197 250.778 139.758 250.441C140.325 250.1 140.969 249.929 141.692 249.929C142.776 249.929 143.628 250.271 144.248 250.954C144.873 251.638 145.186 252.607 145.186 253.862V254.726H140.139C140.208 255.244 140.413 255.659 140.754 255.971C141.101 256.284 141.538 256.44 142.065 256.44C142.881 256.44 143.518 256.145 143.977 255.554L145.017 256.718C144.7 257.167 144.27 257.519 143.728 257.773C143.186 258.022 142.585 258.146 141.926 258.146ZM141.685 251.643C141.265 251.643 140.923 251.784 140.659 252.067C140.4 252.351 140.234 252.756 140.161 253.283H143.105V253.115C143.096 252.646 142.969 252.285 142.725 252.031C142.48 251.772 142.134 251.643 141.685 251.643ZM158.64 254.448C158.557 255.595 158.132 256.499 157.366 257.158C156.604 257.817 155.598 258.146 154.348 258.146C152.981 258.146 151.904 257.688 151.118 256.77C150.337 255.847 149.946 254.582 149.946 252.976V252.324C149.946 251.298 150.127 250.395 150.488 249.614C150.85 248.833 151.365 248.234 152.034 247.819C152.708 247.399 153.489 247.189 154.377 247.189C155.608 247.189 156.599 247.519 157.351 248.178C158.103 248.837 158.538 249.763 158.655 250.954H156.458C156.404 250.266 156.211 249.768 155.879 249.46C155.552 249.147 155.051 248.991 154.377 248.991C153.645 248.991 153.096 249.255 152.729 249.782C152.368 250.305 152.183 251.118 152.173 252.221V253.027C152.173 254.179 152.346 255.021 152.693 255.554C153.044 256.086 153.596 256.352 154.348 256.352C155.027 256.352 155.532 256.198 155.864 255.891C156.201 255.578 156.394 255.097 156.443 254.448H158.64ZM159.614 253.964C159.614 253.178 159.766 252.478 160.068 251.862C160.371 251.247 160.806 250.771 161.372 250.434C161.943 250.097 162.605 249.929 163.357 249.929C164.426 249.929 165.298 250.256 165.972 250.91C166.65 251.564 167.029 252.453 167.107 253.576L167.122 254.118C167.122 255.334 166.782 256.311 166.104 257.048C165.425 257.78 164.514 258.146 163.372 258.146C162.229 258.146 161.316 257.78 160.632 257.048C159.954 256.315 159.614 255.319 159.614 254.06V253.964ZM161.731 254.118C161.731 254.87 161.873 255.446 162.156 255.847C162.439 256.242 162.844 256.44 163.372 256.44C163.884 256.44 164.285 256.245 164.573 255.854C164.861 255.458 165.005 254.829 165.005 253.964C165.005 253.227 164.861 252.656 164.573 252.25C164.285 251.845 163.879 251.643 163.357 251.643C162.839 251.643 162.439 251.845 162.156 252.25C161.873 252.651 161.731 253.273 161.731 254.118ZM168.096 253.979C168.096 252.744 168.372 251.76 168.923 251.027C169.48 250.295 170.239 249.929 171.201 249.929C171.973 249.929 172.61 250.217 173.113 250.793V246.75H175.237V258H173.325L173.223 257.158C172.695 257.817 172.017 258.146 171.187 258.146C170.254 258.146 169.504 257.78 168.938 257.048C168.376 256.311 168.096 255.288 168.096 253.979ZM170.212 254.133C170.212 254.875 170.342 255.444 170.601 255.839C170.859 256.235 171.235 256.433 171.729 256.433C172.383 256.433 172.844 256.157 173.113 255.605V252.478C172.849 251.926 172.393 251.65 171.743 251.65C170.723 251.65 170.212 252.478 170.212 254.133ZM180.525 258.146C179.363 258.146 178.416 257.79 177.683 257.077C176.956 256.364 176.592 255.415 176.592 254.228V254.023C176.592 253.227 176.746 252.517 177.053 251.892C177.361 251.262 177.795 250.778 178.357 250.441C178.923 250.1 179.568 249.929 180.291 249.929C181.375 249.929 182.227 250.271 182.847 250.954C183.472 251.638 183.784 252.607 183.784 253.862V254.726H178.738C178.806 255.244 179.011 255.659 179.353 255.971C179.7 256.284 180.137 256.44 180.664 256.44C181.479 256.44 182.117 256.145 182.576 255.554L183.616 256.718C183.298 257.167 182.869 257.519 182.327 257.773C181.785 258.022 181.184 258.146 180.525 258.146ZM180.283 251.643C179.863 251.643 179.521 251.784 179.258 252.067C178.999 252.351 178.833 252.756 178.76 253.283H181.704V253.115C181.694 252.646 181.567 252.285 181.323 252.031C181.079 251.772 180.732 251.643 180.283 251.643Z" fill="white"/>
</svg>
