<svg width="583" height="291" viewBox="0 0 583 291" fill="none" xmlns="http://www.w3.org/2000/svg">
<path d="M120.136 24.2498H101.855V74.9529H94.394V24.2498H76.1519V18.0779H120.136V24.2498ZM136.621 74.9529H129.121V18.0779H136.621V74.9529ZM160.058 18.0779L178.652 64.4841L197.246 18.0779H206.972V74.9529H199.472V52.8044L200.175 28.8982L181.503 74.9529H175.761L157.128 29.0154L157.871 52.8044V74.9529H150.371V18.0779H160.058ZM252.363 48.6638H227.714V68.8201H256.347V74.9529H220.214V18.0779H255.957V24.2498H227.714V42.531H252.363V48.6638ZM307.519 56.906C306.816 62.9216 304.589 67.5701 300.839 70.8513C297.115 74.1065 292.154 75.7341 285.957 75.7341C279.238 75.7341 273.847 73.3253 269.785 68.5076C265.748 63.6899 263.73 57.2445 263.73 49.1716V43.7029C263.73 38.4164 264.667 33.768 266.542 29.7576C268.444 25.7472 271.126 22.6742 274.589 20.5388C278.053 18.3774 282.063 17.2966 286.621 17.2966C292.662 17.2966 297.506 18.9893 301.152 22.3748C304.798 25.7341 306.92 30.3956 307.519 36.3591H299.98C299.329 31.8279 297.91 28.5466 295.722 26.5154C293.561 24.4841 290.527 23.4685 286.621 23.4685C281.829 23.4685 278.066 25.2393 275.332 28.781C272.623 32.3227 271.269 37.3617 271.269 43.8982V49.406C271.269 55.5779 272.558 60.4867 275.136 64.1326C277.714 67.7784 281.321 69.6013 285.957 69.6013C290.123 69.6013 293.313 68.6638 295.527 66.7888C297.766 64.8878 299.251 61.5935 299.98 56.906H307.519ZM361.542 48.3513C361.542 53.9242 360.605 58.794 358.73 62.9607C356.855 67.1013 354.199 70.2654 350.761 72.4529C347.324 74.6404 343.313 75.7341 338.73 75.7341C334.251 75.7341 330.279 74.6404 326.816 72.4529C323.352 70.2393 320.657 67.1013 318.73 63.0388C316.829 58.9503 315.852 54.2237 315.8 48.8591V44.7576C315.8 39.2888 316.751 34.4581 318.652 30.2654C320.553 26.0727 323.235 22.8695 326.699 20.656C330.188 18.4164 334.173 17.2966 338.652 17.2966C343.209 17.2966 347.22 18.4034 350.683 20.6169C354.173 22.8044 356.855 25.9945 358.73 30.1873C360.605 34.3539 361.542 39.2107 361.542 44.7576V48.3513ZM354.082 44.6794C354.082 37.9347 352.727 32.7654 350.019 29.1716C347.311 25.5518 343.522 23.7419 338.652 23.7419C333.912 23.7419 330.175 25.5518 327.441 29.1716C324.733 32.7654 323.339 37.7654 323.261 44.1716V48.3513C323.261 54.8878 324.628 60.031 327.363 63.781C330.123 67.505 333.912 69.3669 338.73 69.3669C343.574 69.3669 347.324 67.6091 349.98 64.0935C352.636 60.5518 354.003 55.4867 354.082 48.8982V44.6794ZM372.792 74.9529V18.0779H388.847C393.795 18.0779 398.17 19.1716 401.972 21.3591C405.774 23.5466 408.704 26.6586 410.761 30.6951C412.845 34.7315 413.899 39.3669 413.925 44.6013V48.2341C413.925 53.5987 412.884 58.2992 410.8 62.3357C408.743 66.3722 405.787 69.4711 401.933 71.6326C398.105 73.794 393.639 74.9008 388.535 74.9529H372.792ZM380.292 24.2498V68.8201H388.183C393.964 68.8201 398.457 67.0232 401.66 63.4294C404.889 59.8357 406.503 54.7185 406.503 48.0779V44.7576C406.503 38.2992 404.98 33.2862 401.933 29.7185C398.912 26.1248 394.615 24.3018 389.042 24.2498H380.292ZM457.441 48.6638H432.792V68.8201H461.425V74.9529H425.292V18.0779H461.035V24.2498H432.792V42.531H457.441V48.6638Z" fill="white"/>
<path d="M35.2131 31.5086C35.2131 30.8055 34.6663 30.2586 33.9631 30.2586H31.4631C30.76 30.2586 30.2131 30.8055 30.2131 31.5086V45.2586H21.4631C20.76 45.2586 20.2131 45.8055 20.2131 46.5086V49.0086C20.2131 49.7117 20.76 50.2586 21.4631 50.2586H33.9631C34.6663 50.2586 35.2131 49.7117 35.2131 49.0086V31.5086ZM51.4631 45.2586C51.4631 56.9774 41.9319 66.5086 30.2131 66.5086C18.4944 66.5086 8.96313 56.9774 8.96313 45.2586C8.96313 33.5399 18.4944 24.0086 30.2131 24.0086C41.9319 24.0086 51.4631 33.5399 51.4631 45.2586ZM60.2131 45.2586C60.2131 28.6961 46.7756 15.2586 30.2131 15.2586C13.6506 15.2586 0.213135 28.6961 0.213135 45.2586C0.213135 61.8211 13.6506 75.2586 30.2131 75.2586C46.7756 75.2586 60.2131 61.8211 60.2131 45.2586Z" fill="white"/>
<path d="M2.95972 158.202H1.55347V147.538H2.95972V158.202ZM7.16382 148.358V150.277H8.64331V151.325H7.16382V156.239C7.16382 156.557 7.22974 156.796 7.36157 156.957C7.49341 157.113 7.71802 157.191 8.0354 157.191C8.19165 157.191 8.40649 157.162 8.67993 157.104V158.202C8.32349 158.3 7.97681 158.349 7.63989 158.349C7.03442 158.349 6.57788 158.166 6.27026 157.799C5.96265 157.433 5.80884 156.913 5.80884 156.239V151.325H4.36597V150.277H5.80884V148.358H7.16382ZM15.4255 158.202H14.0706V150.277H15.4255V158.202ZM13.9607 148.175C13.9607 147.956 14.0266 147.77 14.1584 147.619C14.2952 147.467 14.4954 147.392 14.759 147.392C15.0227 147.392 15.2229 147.467 15.3596 147.619C15.4963 147.77 15.5647 147.956 15.5647 148.175C15.5647 148.395 15.4963 148.578 15.3596 148.725C15.2229 148.871 15.0227 148.944 14.759 148.944C14.4954 148.944 14.2952 148.871 14.1584 148.725C14.0266 148.578 13.9607 148.395 13.9607 148.175ZM22.2151 156.1C22.2151 155.734 22.0759 155.451 21.7976 155.25C21.5242 155.045 21.0432 154.87 20.3547 154.723C19.6711 154.577 19.1267 154.401 18.7214 154.196C18.321 153.991 18.0232 153.747 17.8279 153.463C17.6375 153.18 17.5422 152.843 17.5422 152.453C17.5422 151.803 17.8157 151.254 18.3625 150.805C18.9143 150.355 19.6174 150.131 20.4719 150.131C21.3704 150.131 22.0979 150.363 22.6545 150.827C23.2161 151.291 23.4968 151.884 23.4968 152.606H22.1345C22.1345 152.235 21.9758 151.916 21.6584 151.647C21.3459 151.378 20.9504 151.244 20.4719 151.244C19.9788 151.244 19.593 151.352 19.3147 151.566C19.0364 151.781 18.8972 152.062 18.8972 152.409C18.8972 152.736 19.0266 152.982 19.2854 153.148C19.5442 153.314 20.0105 153.473 20.6843 153.625C21.363 153.776 21.9124 153.957 22.3323 154.167C22.7522 154.376 23.0623 154.63 23.2625 154.928C23.4675 155.221 23.5701 155.58 23.5701 156.005C23.5701 156.713 23.2869 157.282 22.7205 157.711C22.1541 158.136 21.4192 158.349 20.5159 158.349C19.8811 158.349 19.3196 158.236 18.8313 158.012C18.343 157.787 17.9597 157.475 17.6814 157.074C17.408 156.669 17.2712 156.232 17.2712 155.763H18.6262C18.6506 156.217 18.8313 156.579 19.1682 156.847C19.51 157.111 19.9592 157.243 20.5159 157.243C21.0286 157.243 21.4387 157.14 21.7463 156.935C22.0588 156.725 22.2151 156.447 22.2151 156.1ZM35.7502 154.328C35.7502 155.534 35.4744 156.505 34.9226 157.243C34.3708 157.98 33.6238 158.349 32.6814 158.349C31.7195 158.349 30.9626 158.043 30.4109 157.433V161.249H29.0559V150.277H30.2937L30.3596 151.156C30.9114 150.473 31.678 150.131 32.6594 150.131C33.6116 150.131 34.3635 150.49 34.9153 151.208C35.4719 151.925 35.7502 152.924 35.7502 154.203V154.328ZM34.3953 154.174C34.3953 153.28 34.2048 152.575 33.824 152.057C33.4431 151.54 32.9207 151.281 32.2566 151.281C31.4363 151.281 30.821 151.645 30.4109 152.372V156.159C30.8162 156.881 31.4363 157.243 32.2712 157.243C32.9207 157.243 33.4358 156.986 33.8167 156.474C34.2024 155.956 34.3953 155.189 34.3953 154.174ZM41.3093 151.493C41.1042 151.459 40.8821 151.442 40.6428 151.442C39.7542 151.442 39.1511 151.82 38.8337 152.577V158.202H37.4788V150.277H38.7971L38.8191 151.193C39.2634 150.485 39.8933 150.131 40.7087 150.131C40.9724 150.131 41.1726 150.165 41.3093 150.233V151.493ZM42.0564 154.167C42.0564 153.39 42.2078 152.692 42.5105 152.072C42.8181 151.452 43.2429 150.973 43.7849 150.636C44.3318 150.299 44.9543 150.131 45.6526 150.131C46.7317 150.131 47.6033 150.504 48.2673 151.251C48.9363 151.999 49.2708 152.992 49.2708 154.232V154.328C49.2708 155.099 49.1218 155.792 48.824 156.408C48.531 157.018 48.1086 157.494 47.5569 157.836C47.01 158.178 46.3801 158.349 45.6672 158.349C44.593 158.349 43.7214 157.975 43.0525 157.228C42.3884 156.481 42.0564 155.492 42.0564 154.262V154.167ZM43.4187 154.328C43.4187 155.207 43.6213 155.912 44.0266 156.444C44.4368 156.977 44.9836 157.243 45.6672 157.243C46.3557 157.243 46.9026 156.974 47.3079 156.437C47.7131 155.895 47.9158 155.138 47.9158 154.167C47.9158 153.297 47.7083 152.594 47.2932 152.057C46.8831 151.515 46.3362 151.244 45.6526 151.244C44.9836 151.244 44.4441 151.51 44.0339 152.042C43.6238 152.575 43.4187 153.336 43.4187 154.328ZM52.8083 148.358V150.277H54.2878V151.325H52.8083V156.239C52.8083 156.557 52.8743 156.796 53.0061 156.957C53.1379 157.113 53.3625 157.191 53.6799 157.191C53.8362 157.191 54.051 157.162 54.3245 157.104V158.202C53.968 158.3 53.6213 158.349 53.2844 158.349C52.679 158.349 52.2224 158.166 51.9148 157.799C51.6072 157.433 51.4534 156.913 51.4534 156.239V151.325H50.0105V150.277H51.4534V148.358H52.8083ZM55.3718 154.167C55.3718 153.39 55.5232 152.692 55.8259 152.072C56.1335 151.452 56.5583 150.973 57.1003 150.636C57.6472 150.299 58.2698 150.131 58.968 150.131C60.0471 150.131 60.9187 150.504 61.5828 151.251C62.2517 151.999 62.5862 152.992 62.5862 154.232V154.328C62.5862 155.099 62.4373 155.792 62.1394 156.408C61.8464 157.018 61.4241 157.494 60.8723 157.836C60.3254 158.178 59.6956 158.349 58.9827 158.349C57.9084 158.349 57.0369 157.975 56.3679 157.228C55.7039 156.481 55.3718 155.492 55.3718 154.262V154.167ZM56.7341 154.328C56.7341 155.207 56.9368 155.912 57.342 156.444C57.7522 156.977 58.2991 157.243 58.9827 157.243C59.6711 157.243 60.218 156.974 60.6233 156.437C61.0286 155.895 61.2312 155.138 61.2312 154.167C61.2312 153.297 61.0237 152.594 60.6086 152.057C60.1985 151.515 59.6516 151.244 58.968 151.244C58.2991 151.244 57.7595 151.51 57.3494 152.042C56.9392 152.575 56.7341 153.336 56.7341 154.328ZM66.1238 148.358V150.277H67.6033V151.325H66.1238V156.239C66.1238 156.557 66.1897 156.796 66.3215 156.957C66.4534 157.113 66.678 157.191 66.9954 157.191C67.1516 157.191 67.3665 157.162 67.6399 157.104V158.202C67.2834 158.3 66.9368 158.349 66.5999 158.349C65.9944 158.349 65.5378 158.166 65.2302 157.799C64.9226 157.433 64.7688 156.913 64.7688 156.239V151.325H63.3259V150.277H64.7688V148.358H66.1238ZM71.7854 156.217L73.6311 150.277H75.0813L71.8953 159.425C71.4021 160.744 70.6184 161.403 69.5442 161.403L69.2878 161.381L68.7825 161.286V160.187L69.1487 160.216C69.6077 160.216 69.9641 160.124 70.218 159.938C70.4768 159.752 70.6892 159.413 70.8552 158.92L71.1555 158.114L68.3284 150.277H69.8079L71.7854 156.217ZM82.9915 154.328C82.9915 155.534 82.7156 156.505 82.1638 157.243C81.6121 157.98 80.865 158.349 79.9226 158.349C78.9607 158.349 78.2039 158.043 77.6521 157.433V161.249H76.2971V150.277H77.5349L77.6008 151.156C78.1526 150.473 78.9192 150.131 79.9006 150.131C80.8528 150.131 81.6047 150.49 82.1565 151.208C82.7131 151.925 82.9915 152.924 82.9915 154.203V154.328ZM81.6365 154.174C81.6365 153.28 81.446 152.575 81.0652 152.057C80.6843 151.54 80.1619 151.281 79.4978 151.281C78.6775 151.281 78.0623 151.645 77.6521 152.372V156.159C78.0574 156.881 78.6775 157.243 79.5125 157.243C80.1619 157.243 80.677 156.986 81.0579 156.474C81.4436 155.956 81.6365 155.189 81.6365 154.174ZM88.0085 158.349C86.9343 158.349 86.0603 157.997 85.3865 157.294C84.7126 156.586 84.3757 155.641 84.3757 154.459V154.21C84.3757 153.424 84.5247 152.724 84.8225 152.108C85.1252 151.488 85.5452 151.005 86.0823 150.658C86.6243 150.307 87.2102 150.131 87.8401 150.131C88.8704 150.131 89.6711 150.47 90.2424 151.149C90.8137 151.828 91.0994 152.799 91.0994 154.064V154.628H85.7307C85.7502 155.409 85.9773 156.042 86.4119 156.525C86.8513 157.003 87.408 157.243 88.0818 157.243C88.5603 157.243 88.9656 157.145 89.2976 156.95C89.6296 156.754 89.9202 156.496 90.1692 156.173L90.9968 156.818C90.3328 157.838 89.3367 158.349 88.0085 158.349ZM87.8401 151.244C87.2932 151.244 86.8342 151.444 86.4631 151.845C86.092 152.24 85.8625 152.797 85.7747 153.515H89.7444V153.412C89.7053 152.724 89.5198 152.191 89.1877 151.815C88.8557 151.435 88.4065 151.244 87.8401 151.244ZM96.0359 154.167C96.0359 153.39 96.1873 152.692 96.49 152.072C96.7976 151.452 97.2224 150.973 97.7644 150.636C98.3113 150.299 98.9338 150.131 99.6321 150.131C100.711 150.131 101.583 150.504 102.247 151.251C102.916 151.999 103.25 152.992 103.25 154.232V154.328C103.25 155.099 103.101 155.792 102.803 156.408C102.51 157.018 102.088 157.494 101.536 157.836C100.99 158.178 100.36 158.349 99.6467 158.349C98.5725 158.349 97.7009 157.975 97.032 157.228C96.3679 156.481 96.0359 155.492 96.0359 154.262V154.167ZM97.3982 154.328C97.3982 155.207 97.6008 155.912 98.0061 156.444C98.4163 156.977 98.9631 157.243 99.6467 157.243C100.335 157.243 100.882 156.974 101.287 156.437C101.693 155.895 101.895 155.138 101.895 154.167C101.895 153.297 101.688 152.594 101.273 152.057C100.863 151.515 100.316 151.244 99.6321 151.244C98.9631 151.244 98.4236 151.51 98.0134 152.042C97.6033 152.575 97.3982 153.336 97.3982 154.328ZM105.616 158.202V151.325H104.364V150.277H105.616V149.464C105.616 148.615 105.843 147.958 106.297 147.494C106.751 147.03 107.393 146.798 108.223 146.798C108.536 146.798 108.846 146.84 109.154 146.923L109.08 148.021C108.851 147.978 108.607 147.956 108.348 147.956C107.908 147.956 107.569 148.085 107.33 148.344C107.091 148.598 106.971 148.964 106.971 149.442V150.277H108.663V151.325H106.971V158.202H105.616ZM115.723 148.358V150.277H117.203V151.325H115.723V156.239C115.723 156.557 115.789 156.796 115.921 156.957C116.053 157.113 116.278 157.191 116.595 157.191C116.751 157.191 116.966 157.162 117.24 157.104V158.202C116.883 158.3 116.536 158.349 116.199 158.349C115.594 158.349 115.137 158.166 114.83 157.799C114.522 157.433 114.368 156.913 114.368 156.239V151.325H112.926V150.277H114.368V148.358H115.723ZM120.147 151.237C120.748 150.5 121.529 150.131 122.491 150.131C124.166 150.131 125.01 151.076 125.025 152.965V158.202H123.67V152.958C123.665 152.387 123.533 151.964 123.275 151.691C123.021 151.417 122.623 151.281 122.081 151.281C121.641 151.281 121.256 151.398 120.924 151.632C120.592 151.867 120.333 152.174 120.147 152.555V158.202H118.792V146.952H120.147V151.237ZM130.343 158.349C129.268 158.349 128.394 157.997 127.72 157.294C127.047 156.586 126.71 155.641 126.71 154.459V154.21C126.71 153.424 126.859 152.724 127.156 152.108C127.459 151.488 127.879 151.005 128.416 150.658C128.958 150.307 129.544 150.131 130.174 150.131C131.204 150.131 132.005 150.47 132.576 151.149C133.148 151.828 133.433 152.799 133.433 154.064V154.628H128.065C128.084 155.409 128.311 156.042 128.746 156.525C129.185 157.003 129.742 157.243 130.416 157.243C130.894 157.243 131.3 157.145 131.632 156.95C131.964 156.754 132.254 156.496 132.503 156.173L133.331 156.818C132.667 157.838 131.671 158.349 130.343 158.349ZM130.174 151.244C129.627 151.244 129.168 151.444 128.797 151.845C128.426 152.24 128.197 152.797 128.109 153.515H132.078V153.412C132.039 152.724 131.854 152.191 131.522 151.815C131.19 151.435 130.74 151.244 130.174 151.244ZM145.438 154.328C145.438 155.539 145.159 156.513 144.603 157.25C144.046 157.982 143.299 158.349 142.362 158.349C141.361 158.349 140.587 157.995 140.04 157.287L139.974 158.202H138.729V146.952H140.084V151.149C140.631 150.47 141.385 150.131 142.347 150.131C143.309 150.131 144.063 150.495 144.61 151.222C145.162 151.95 145.438 152.946 145.438 154.21V154.328ZM144.083 154.174C144.083 153.251 143.905 152.538 143.548 152.035C143.192 151.532 142.679 151.281 142.01 151.281C141.116 151.281 140.474 151.696 140.084 152.526V155.954C140.499 156.784 141.146 157.199 142.025 157.199C142.674 157.199 143.179 156.947 143.541 156.444C143.902 155.941 144.083 155.185 144.083 154.174ZM150.44 158.349C149.366 158.349 148.492 157.997 147.818 157.294C147.144 156.586 146.807 155.641 146.807 154.459V154.21C146.807 153.424 146.956 152.724 147.254 152.108C147.557 151.488 147.977 151.005 148.514 150.658C149.056 150.307 149.642 150.131 150.272 150.131C151.302 150.131 152.103 150.47 152.674 151.149C153.245 151.828 153.531 152.799 153.531 154.064V154.628H148.162C148.182 155.409 148.409 156.042 148.844 156.525C149.283 157.003 149.84 157.243 150.513 157.243C150.992 157.243 151.397 157.145 151.729 156.95C152.061 156.754 152.352 156.496 152.601 156.173L153.428 156.818C152.764 157.838 151.768 158.349 150.44 158.349ZM150.272 151.244C149.725 151.244 149.266 151.444 148.895 151.845C148.524 152.24 148.294 152.797 148.206 153.515H152.176V153.412C152.137 152.724 151.951 152.191 151.619 151.815C151.287 151.435 150.838 151.244 150.272 151.244ZM159.72 156.1C159.72 155.734 159.581 155.451 159.302 155.25C159.029 155.045 158.548 154.87 157.86 154.723C157.176 154.577 156.632 154.401 156.226 154.196C155.826 153.991 155.528 153.747 155.333 153.463C155.142 153.18 155.047 152.843 155.047 152.453C155.047 151.803 155.321 151.254 155.867 150.805C156.419 150.355 157.122 150.131 157.977 150.131C158.875 150.131 159.603 150.363 160.159 150.827C160.721 151.291 161.002 151.884 161.002 152.606H159.639C159.639 152.235 159.481 151.916 159.163 151.647C158.851 151.378 158.455 151.244 157.977 151.244C157.484 151.244 157.098 151.352 156.82 151.566C156.541 151.781 156.402 152.062 156.402 152.409C156.402 152.736 156.531 152.982 156.79 153.148C157.049 153.314 157.515 153.473 158.189 153.625C158.868 153.776 159.417 153.957 159.837 154.167C160.257 154.376 160.567 154.63 160.767 154.928C160.972 155.221 161.075 155.58 161.075 156.005C161.075 156.713 160.792 157.282 160.225 157.711C159.659 158.136 158.924 158.349 158.021 158.349C157.386 158.349 156.824 158.236 156.336 158.012C155.848 157.787 155.465 157.475 155.186 157.074C154.913 156.669 154.776 156.232 154.776 155.763H156.131C156.156 156.217 156.336 156.579 156.673 156.847C157.015 157.111 157.464 157.243 158.021 157.243C158.533 157.243 158.944 157.14 159.251 156.935C159.564 156.725 159.72 156.447 159.72 156.1ZM164.678 148.358V150.277H166.158V151.325H164.678V156.239C164.678 156.557 164.744 156.796 164.876 156.957C165.008 157.113 165.233 157.191 165.55 157.191C165.706 157.191 165.921 157.162 166.195 157.104V158.202C165.838 158.3 165.491 158.349 165.155 158.349C164.549 158.349 164.093 158.166 163.785 157.799C163.477 157.433 163.323 156.913 163.323 156.239V151.325H161.881V150.277H163.323V148.358H164.678ZM173.306 148.358V150.277H174.786V151.325H173.306V156.239C173.306 156.557 173.372 156.796 173.504 156.957C173.636 157.113 173.861 157.191 174.178 157.191C174.334 157.191 174.549 157.162 174.823 157.104V158.202C174.466 158.3 174.119 158.349 173.782 158.349C173.177 158.349 172.72 158.166 172.413 157.799C172.105 157.433 171.951 156.913 171.951 156.239V151.325H170.509V150.277H171.951V148.358H173.306ZM175.87 154.167C175.87 153.39 176.021 152.692 176.324 152.072C176.632 151.452 177.056 150.973 177.598 150.636C178.145 150.299 178.768 150.131 179.466 150.131C180.545 150.131 181.417 150.504 182.081 151.251C182.75 151.999 183.084 152.992 183.084 154.232V154.328C183.084 155.099 182.935 155.792 182.637 156.408C182.344 157.018 181.922 157.494 181.37 157.836C180.823 158.178 180.194 158.349 179.481 158.349C178.406 158.349 177.535 157.975 176.866 157.228C176.202 156.481 175.87 155.492 175.87 154.262V154.167ZM177.232 154.328C177.232 155.207 177.435 155.912 177.84 156.444C178.25 156.977 178.797 157.243 179.481 157.243C180.169 157.243 180.716 156.974 181.121 156.437C181.527 155.895 181.729 155.138 181.729 154.167C181.729 153.297 181.522 152.594 181.107 152.057C180.697 151.515 180.15 151.244 179.466 151.244C178.797 151.244 178.258 151.51 177.847 152.042C177.437 152.575 177.232 153.336 177.232 154.328ZM184.454 154.174C184.454 152.958 184.742 151.981 185.318 151.244C185.894 150.502 186.649 150.131 187.581 150.131C188.509 150.131 189.244 150.448 189.786 151.083V146.952H191.141V158.202H189.896L189.83 157.353C189.288 158.017 188.533 158.349 187.567 158.349C186.649 158.349 185.899 157.973 185.318 157.221C184.742 156.469 184.454 155.487 184.454 154.276V154.174ZM185.809 154.328C185.809 155.226 185.994 155.929 186.365 156.437C186.737 156.945 187.249 157.199 187.904 157.199C188.763 157.199 189.39 156.813 189.786 156.042V152.401C189.381 151.654 188.758 151.281 187.918 151.281C187.254 151.281 186.737 151.537 186.365 152.05C185.994 152.562 185.809 153.322 185.809 154.328ZM198.809 148.358V150.277H200.289V151.325H198.809V156.239C198.809 156.557 198.875 156.796 199.007 156.957C199.139 157.113 199.364 157.191 199.681 157.191C199.837 157.191 200.052 157.162 200.325 157.104V158.202C199.969 158.3 199.622 158.349 199.285 158.349C198.68 158.349 198.223 158.166 197.916 157.799C197.608 157.433 197.454 156.913 197.454 156.239V151.325H196.011V150.277H197.454V148.358H198.809ZM201.373 154.167C201.373 153.39 201.524 152.692 201.827 152.072C202.135 151.452 202.559 150.973 203.101 150.636C203.648 150.299 204.271 150.131 204.969 150.131C206.048 150.131 206.92 150.504 207.584 151.251C208.253 151.999 208.587 152.992 208.587 154.232V154.328C208.587 155.099 208.438 155.792 208.14 156.408C207.847 157.018 207.425 157.494 206.873 157.836C206.326 158.178 205.697 158.349 204.984 158.349C203.909 158.349 203.038 157.975 202.369 157.228C201.705 156.481 201.373 155.492 201.373 154.262V154.167ZM202.735 154.328C202.735 155.207 202.938 155.912 203.343 156.444C203.753 156.977 204.3 157.243 204.984 157.243C205.672 157.243 206.219 156.974 206.624 156.437C207.03 155.895 207.232 155.138 207.232 154.167C207.232 153.297 207.025 152.594 206.61 152.057C206.199 151.515 205.653 151.244 204.969 151.244C204.3 151.244 203.76 151.51 203.35 152.042C202.94 152.575 202.735 153.336 202.735 154.328ZM215.281 150.277L215.318 151.156C215.899 150.473 216.683 150.131 217.669 150.131C218.778 150.131 219.532 150.556 219.932 151.405C220.196 151.024 220.538 150.717 220.958 150.482C221.383 150.248 221.883 150.131 222.459 150.131C224.198 150.131 225.081 151.051 225.111 152.892V158.202H223.756V152.973C223.756 152.406 223.626 151.984 223.367 151.706C223.109 151.422 222.674 151.281 222.064 151.281C221.561 151.281 221.143 151.432 220.811 151.735C220.479 152.033 220.286 152.436 220.233 152.943V158.202H218.87V153.009C218.87 151.857 218.306 151.281 217.178 151.281C216.29 151.281 215.682 151.659 215.355 152.416V158.202H214V150.277H215.281ZM232.054 158.202C231.976 158.046 231.912 157.768 231.864 157.367C231.234 158.021 230.482 158.349 229.608 158.349C228.826 158.349 228.184 158.129 227.681 157.689C227.183 157.245 226.934 156.684 226.934 156.005C226.934 155.18 227.247 154.54 227.872 154.086C228.502 153.627 229.385 153.397 230.523 153.397H231.842V152.775C231.842 152.301 231.7 151.925 231.417 151.647C231.134 151.364 230.716 151.222 230.164 151.222C229.681 151.222 229.276 151.344 228.948 151.588C228.621 151.833 228.458 152.128 228.458 152.475H227.095C227.095 152.079 227.235 151.698 227.513 151.332C227.796 150.961 228.177 150.668 228.656 150.453C229.139 150.238 229.669 150.131 230.245 150.131C231.158 150.131 231.873 150.36 232.391 150.819C232.908 151.273 233.177 151.901 233.197 152.702V156.349C233.197 157.077 233.289 157.655 233.475 158.085V158.202H232.054ZM229.805 157.169C230.23 157.169 230.633 157.06 231.014 156.84C231.395 156.62 231.671 156.334 231.842 155.983V154.357H230.78C229.119 154.357 228.289 154.843 228.289 155.814C228.289 156.239 228.431 156.571 228.714 156.811C228.997 157.05 229.361 157.169 229.805 157.169ZM236.602 150.277L236.646 151.273C237.252 150.512 238.043 150.131 239.019 150.131C240.694 150.131 241.539 151.076 241.553 152.965V158.202H240.198V152.958C240.194 152.387 240.062 151.964 239.803 151.691C239.549 151.417 239.151 151.281 238.609 151.281C238.17 151.281 237.784 151.398 237.452 151.632C237.12 151.867 236.861 152.174 236.676 152.555V158.202H235.321V150.277H236.602ZM248.49 158.202C248.411 158.046 248.348 157.768 248.299 157.367C247.669 158.021 246.917 158.349 246.043 158.349C245.262 158.349 244.62 158.129 244.117 157.689C243.619 157.245 243.37 156.684 243.37 156.005C243.37 155.18 243.682 154.54 244.307 154.086C244.937 153.627 245.821 153.397 246.959 153.397H248.277V152.775C248.277 152.301 248.135 151.925 247.852 151.647C247.569 151.364 247.152 151.222 246.6 151.222C246.116 151.222 245.711 151.344 245.384 151.588C245.057 151.833 244.893 152.128 244.893 152.475H243.531C243.531 152.079 243.67 151.698 243.948 151.332C244.232 150.961 244.613 150.668 245.091 150.453C245.574 150.238 246.104 150.131 246.68 150.131C247.594 150.131 248.309 150.36 248.826 150.819C249.344 151.273 249.613 151.901 249.632 152.702V156.349C249.632 157.077 249.725 157.655 249.91 158.085V158.202H248.49ZM246.241 157.169C246.666 157.169 247.069 157.06 247.449 156.84C247.83 156.62 248.106 156.334 248.277 155.983V154.357H247.215C245.555 154.357 244.725 154.843 244.725 155.814C244.725 156.239 244.866 156.571 245.15 156.811C245.433 157.05 245.797 157.169 246.241 157.169ZM253.038 150.277L253.082 151.273C253.687 150.512 254.478 150.131 255.455 150.131C257.13 150.131 257.974 151.076 257.989 152.965V158.202H256.634V152.958C256.629 152.387 256.497 151.964 256.239 151.691C255.985 151.417 255.587 151.281 255.045 151.281C254.605 151.281 254.219 151.398 253.887 151.632C253.555 151.867 253.297 152.174 253.111 152.555V158.202H251.756V150.277H253.038ZM259.71 154.174C259.71 152.938 259.996 151.957 260.567 151.229C261.138 150.497 261.895 150.131 262.838 150.131C263.804 150.131 264.559 150.473 265.101 151.156L265.167 150.277H266.405V158.012C266.405 159.037 266.099 159.845 265.489 160.436C264.884 161.027 264.068 161.322 263.043 161.322C262.471 161.322 261.912 161.2 261.365 160.956C260.819 160.712 260.401 160.377 260.113 159.953L260.816 159.14C261.397 159.857 262.108 160.216 262.948 160.216C263.607 160.216 264.119 160.031 264.486 159.66C264.857 159.289 265.042 158.766 265.042 158.092V157.411C264.5 158.036 263.76 158.349 262.823 158.349C261.895 158.349 261.143 157.975 260.567 157.228C259.996 156.481 259.71 155.463 259.71 154.174ZM261.073 154.328C261.073 155.221 261.256 155.924 261.622 156.437C261.988 156.945 262.501 157.199 263.16 157.199C264.014 157.199 264.642 156.811 265.042 156.034V152.416C264.627 151.659 264.005 151.281 263.175 151.281C262.515 151.281 262 151.537 261.629 152.05C261.258 152.562 261.073 153.322 261.073 154.328ZM271.744 158.349C270.67 158.349 269.796 157.997 269.122 157.294C268.448 156.586 268.111 155.641 268.111 154.459V154.21C268.111 153.424 268.26 152.724 268.558 152.108C268.861 151.488 269.281 151.005 269.818 150.658C270.36 150.307 270.946 150.131 271.575 150.131C272.606 150.131 273.406 150.47 273.978 151.149C274.549 151.828 274.835 152.799 274.835 154.064V154.628H269.466C269.486 155.409 269.713 156.042 270.147 156.525C270.587 157.003 271.143 157.243 271.817 157.243C272.296 157.243 272.701 157.145 273.033 156.95C273.365 156.754 273.656 156.496 273.905 156.173L274.732 156.818C274.068 157.838 273.072 158.349 271.744 158.349ZM271.575 151.244C271.029 151.244 270.57 151.444 270.198 151.845C269.827 152.24 269.598 152.797 269.51 153.515H273.48V153.412C273.441 152.724 273.255 152.191 272.923 151.815C272.591 151.435 272.142 151.244 271.575 151.244ZM280.24 151.493C280.035 151.459 279.813 151.442 279.573 151.442C278.685 151.442 278.082 151.82 277.764 152.577V158.202H276.409V150.277H277.728L277.75 151.193C278.194 150.485 278.824 150.131 279.639 150.131C279.903 150.131 280.103 150.165 280.24 150.233V151.493ZM287.806 156.217L289.652 150.277H291.102L287.916 159.425C287.423 160.744 286.639 161.403 285.565 161.403L285.308 161.381L284.803 161.286V160.187L285.169 160.216C285.628 160.216 285.985 160.124 286.239 159.938C286.497 159.752 286.71 159.413 286.876 158.92L287.176 158.114L284.349 150.277H285.828L287.806 156.217ZM291.842 154.167C291.842 153.39 291.993 152.692 292.296 152.072C292.603 151.452 293.028 150.973 293.57 150.636C294.117 150.299 294.74 150.131 295.438 150.131C296.517 150.131 297.388 150.504 298.052 151.251C298.721 151.999 299.056 152.992 299.056 154.232V154.328C299.056 155.099 298.907 155.792 298.609 156.408C298.316 157.018 297.894 157.494 297.342 157.836C296.795 158.178 296.165 158.349 295.452 158.349C294.378 158.349 293.507 157.975 292.838 157.228C292.174 156.481 291.842 155.492 291.842 154.262V154.167ZM293.204 154.328C293.204 155.207 293.406 155.912 293.812 156.444C294.222 156.977 294.769 157.243 295.452 157.243C296.141 157.243 296.688 156.974 297.093 156.437C297.498 155.895 297.701 155.138 297.701 154.167C297.701 153.297 297.493 152.594 297.078 152.057C296.668 151.515 296.121 151.244 295.438 151.244C294.769 151.244 294.229 151.51 293.819 152.042C293.409 152.575 293.204 153.336 293.204 154.328ZM305.648 157.418C305.12 158.039 304.346 158.349 303.326 158.349C302.481 158.349 301.837 158.104 301.392 157.616C300.953 157.123 300.731 156.396 300.726 155.434V150.277H302.081V155.397C302.081 156.598 302.569 157.199 303.546 157.199C304.581 157.199 305.269 156.813 305.611 156.042V150.277H306.966V158.202H305.677L305.648 157.418ZM312.862 151.493C312.657 151.459 312.435 151.442 312.196 151.442C311.307 151.442 310.704 151.82 310.386 152.577V158.202H309.031V150.277H310.35L310.372 151.193C310.816 150.485 311.446 150.131 312.261 150.131C312.525 150.131 312.725 150.165 312.862 150.233V151.493ZM319.674 148.358V150.277H321.153V151.325H319.674V156.239C319.674 156.557 319.74 156.796 319.871 156.957C320.003 157.113 320.228 157.191 320.545 157.191C320.701 157.191 320.916 157.162 321.19 157.104V158.202C320.833 158.3 320.487 158.349 320.15 158.349C319.544 158.349 319.088 158.166 318.78 157.799C318.472 157.433 318.319 156.913 318.319 156.239V151.325H316.876V150.277H318.319V148.358H319.674ZM324.215 158.202H322.86V150.277H324.215V158.202ZM322.75 148.175C322.75 147.956 322.816 147.77 322.948 147.619C323.084 147.467 323.284 147.392 323.548 147.392C323.812 147.392 324.012 147.467 324.149 147.619C324.285 147.77 324.354 147.956 324.354 148.175C324.354 148.395 324.285 148.578 324.149 148.725C324.012 148.871 323.812 148.944 323.548 148.944C323.284 148.944 323.084 148.871 322.948 148.725C322.816 148.578 322.75 148.395 322.75 148.175ZM327.664 150.277L327.701 151.156C328.282 150.473 329.066 150.131 330.052 150.131C331.16 150.131 331.915 150.556 332.315 151.405C332.579 151.024 332.921 150.717 333.341 150.482C333.765 150.248 334.266 150.131 334.842 150.131C336.58 150.131 337.464 151.051 337.493 152.892V158.202H336.138V152.973C336.138 152.406 336.009 151.984 335.75 151.706C335.491 151.422 335.057 151.281 334.447 151.281C333.944 151.281 333.526 151.432 333.194 151.735C332.862 152.033 332.669 152.436 332.615 152.943V158.202H331.253V153.009C331.253 151.857 330.689 151.281 329.561 151.281C328.673 151.281 328.065 151.659 327.738 152.416V158.202H326.383V150.277H327.664ZM342.833 158.349C341.759 158.349 340.885 157.997 340.211 157.294C339.537 156.586 339.2 155.641 339.2 154.459V154.21C339.2 153.424 339.349 152.724 339.647 152.108C339.949 151.488 340.369 151.005 340.906 150.658C341.448 150.307 342.034 150.131 342.664 150.131C343.695 150.131 344.495 150.47 345.067 151.149C345.638 151.828 345.924 152.799 345.924 154.064V154.628H340.555C340.574 155.409 340.802 156.042 341.236 156.525C341.676 157.003 342.232 157.243 342.906 157.243C343.385 157.243 343.79 157.145 344.122 156.95C344.454 156.754 344.744 156.496 344.993 156.173L345.821 156.818C345.157 157.838 344.161 158.349 342.833 158.349ZM342.664 151.244C342.117 151.244 341.658 151.444 341.287 151.845C340.916 152.24 340.687 152.797 340.599 153.515H344.569V153.412C344.53 152.724 344.344 152.191 344.012 151.815C343.68 151.435 343.231 151.244 342.664 151.244ZM353.057 148.358V150.277H354.537V151.325H353.057V156.239C353.057 156.557 353.123 156.796 353.255 156.957C353.387 157.113 353.612 157.191 353.929 157.191C354.085 157.191 354.3 157.162 354.573 157.104V158.202C354.217 158.3 353.87 158.349 353.533 158.349C352.928 158.349 352.471 158.166 352.164 157.799C351.856 157.433 351.702 156.913 351.702 156.239V151.325H350.26V150.277H351.702V148.358H353.057ZM361.019 158.202C360.941 158.046 360.877 157.768 360.828 157.367C360.198 158.021 359.447 158.349 358.573 158.349C357.791 158.349 357.149 158.129 356.646 157.689C356.148 157.245 355.899 156.684 355.899 156.005C355.899 155.18 356.212 154.54 356.837 154.086C357.467 153.627 358.35 153.397 359.488 153.397H360.806V152.775C360.806 152.301 360.665 151.925 360.382 151.647C360.098 151.364 359.681 151.222 359.129 151.222C358.646 151.222 358.24 151.344 357.913 151.588C357.586 151.833 357.423 152.128 357.423 152.475H356.06C356.06 152.079 356.199 151.698 356.478 151.332C356.761 150.961 357.142 150.668 357.62 150.453C358.104 150.238 358.634 150.131 359.21 150.131C360.123 150.131 360.838 150.36 361.356 150.819C361.873 151.273 362.142 151.901 362.161 152.702V156.349C362.161 157.077 362.254 157.655 362.44 158.085V158.202H361.019ZM358.77 157.169C359.195 157.169 359.598 157.06 359.979 156.84C360.36 156.62 360.635 156.334 360.806 155.983V154.357H359.744C358.084 154.357 357.254 154.843 357.254 155.814C357.254 156.239 357.396 156.571 357.679 156.811C357.962 157.05 358.326 157.169 358.77 157.169ZM368.9 156.1C368.9 155.734 368.76 155.451 368.482 155.25C368.209 155.045 367.728 154.87 367.039 154.723C366.356 154.577 365.811 154.401 365.406 154.196C365.006 153.991 364.708 153.747 364.512 153.463C364.322 153.18 364.227 152.843 364.227 152.453C364.227 151.803 364.5 151.254 365.047 150.805C365.599 150.355 366.302 150.131 367.156 150.131C368.055 150.131 368.782 150.363 369.339 150.827C369.901 151.291 370.181 151.884 370.181 152.606H368.819C368.819 152.235 368.66 151.916 368.343 151.647C368.031 151.378 367.635 151.244 367.156 151.244C366.663 151.244 366.278 151.352 365.999 151.566C365.721 151.781 365.582 152.062 365.582 152.409C365.582 152.736 365.711 152.982 365.97 153.148C366.229 153.314 366.695 153.473 367.369 153.625C368.048 153.776 368.597 153.957 369.017 154.167C369.437 154.376 369.747 154.63 369.947 154.928C370.152 155.221 370.255 155.58 370.255 156.005C370.255 156.713 369.971 157.282 369.405 157.711C368.839 158.136 368.104 158.349 367.2 158.349C366.566 158.349 366.004 158.236 365.516 158.012C365.028 157.787 364.644 157.475 364.366 157.074C364.093 156.669 363.956 156.232 363.956 155.763H365.311C365.335 156.217 365.516 156.579 365.853 156.847C366.195 157.111 366.644 157.243 367.2 157.243C367.713 157.243 368.123 157.14 368.431 156.935C368.743 156.725 368.9 156.447 368.9 156.1ZM374.232 154.533L373.382 155.419V158.202H372.027V146.952H373.382V153.756L374.107 152.885L376.575 150.277H378.223L375.14 153.588L378.582 158.202H376.993L374.232 154.533ZM384.237 156.1C384.237 155.734 384.097 155.451 383.819 155.25C383.546 155.045 383.065 154.87 382.376 154.723C381.693 154.577 381.148 154.401 380.743 154.196C380.343 153.991 380.045 153.747 379.849 153.463C379.659 153.18 379.564 152.843 379.564 152.453C379.564 151.803 379.837 151.254 380.384 150.805C380.936 150.355 381.639 150.131 382.493 150.131C383.392 150.131 384.119 150.363 384.676 150.827C385.238 151.291 385.518 151.884 385.518 152.606H384.156C384.156 152.235 383.997 151.916 383.68 151.647C383.367 151.378 382.972 151.244 382.493 151.244C382 151.244 381.615 151.352 381.336 151.566C381.058 151.781 380.919 152.062 380.919 152.409C380.919 152.736 381.048 152.982 381.307 153.148C381.566 153.314 382.032 153.473 382.706 153.625C383.385 153.776 383.934 153.957 384.354 154.167C384.774 154.376 385.084 154.63 385.284 154.928C385.489 155.221 385.592 155.58 385.592 156.005C385.592 156.713 385.308 157.282 384.742 157.711C384.176 158.136 383.441 158.349 382.537 158.349C381.903 158.349 381.341 158.236 380.853 158.012C380.365 157.787 379.981 157.475 379.703 157.074C379.429 156.669 379.293 156.232 379.293 155.763H380.648C380.672 156.217 380.853 156.579 381.19 156.847C381.531 157.111 381.981 157.243 382.537 157.243C383.05 157.243 383.46 157.14 383.768 156.935C384.08 156.725 384.237 156.447 384.237 156.1ZM387.386 157.492C387.386 157.257 387.454 157.062 387.591 156.906C387.733 156.75 387.943 156.671 388.221 156.671C388.499 156.671 388.709 156.75 388.851 156.906C388.997 157.062 389.071 157.257 389.071 157.492C389.071 157.716 388.997 157.904 388.851 158.056C388.709 158.207 388.499 158.283 388.221 158.283C387.943 158.283 387.733 158.207 387.591 158.056C387.454 157.904 387.386 157.716 387.386 157.492ZM397.061 147.538L400.548 156.239L404.034 147.538H405.858V158.202H404.451V154.049L404.583 149.567L401.082 158.202H400.006L396.512 149.589L396.651 154.049V158.202H395.245V147.538H397.061ZM413.021 158.202C412.943 158.046 412.879 157.768 412.83 157.367C412.2 158.021 411.448 158.349 410.574 158.349C409.793 158.349 409.151 158.129 408.648 157.689C408.15 157.245 407.901 156.684 407.901 156.005C407.901 155.18 408.214 154.54 408.839 154.086C409.469 153.627 410.352 153.397 411.49 153.397H412.808V152.775C412.808 152.301 412.667 151.925 412.384 151.647C412.1 151.364 411.683 151.222 411.131 151.222C410.648 151.222 410.242 151.344 409.915 151.588C409.588 151.833 409.425 152.128 409.425 152.475H408.062C408.062 152.079 408.201 151.698 408.48 151.332C408.763 150.961 409.144 150.668 409.622 150.453C410.106 150.238 410.635 150.131 411.212 150.131C412.125 150.131 412.84 150.36 413.358 150.819C413.875 151.273 414.144 151.901 414.163 152.702V156.349C414.163 157.077 414.256 157.655 414.442 158.085V158.202H413.021ZM410.772 157.169C411.197 157.169 411.6 157.06 411.981 156.84C412.362 156.62 412.637 156.334 412.808 155.983V154.357H411.746C410.086 154.357 409.256 154.843 409.256 155.814C409.256 156.239 409.398 156.571 409.681 156.811C409.964 157.05 410.328 157.169 410.772 157.169ZM417.569 150.277L417.613 151.273C418.219 150.512 419.01 150.131 419.986 150.131C421.661 150.131 422.506 151.076 422.52 152.965V158.202H421.165V152.958C421.16 152.387 421.029 151.964 420.77 151.691C420.516 151.417 420.118 151.281 419.576 151.281C419.136 151.281 418.751 151.398 418.419 151.632C418.087 151.867 417.828 152.174 417.642 152.555V158.202H416.287V150.277H417.569ZM429.456 158.202C429.378 158.046 429.315 157.768 429.266 157.367C428.636 158.021 427.884 158.349 427.01 158.349C426.229 158.349 425.587 158.129 425.084 157.689C424.586 157.245 424.337 156.684 424.337 156.005C424.337 155.18 424.649 154.54 425.274 154.086C425.904 153.627 426.788 153.397 427.926 153.397H429.244V152.775C429.244 152.301 429.102 151.925 428.819 151.647C428.536 151.364 428.118 151.222 427.567 151.222C427.083 151.222 426.678 151.344 426.351 151.588C426.024 151.833 425.86 152.128 425.86 152.475H424.498C424.498 152.079 424.637 151.698 424.915 151.332C425.198 150.961 425.579 150.668 426.058 150.453C426.541 150.238 427.071 150.131 427.647 150.131C428.56 150.131 429.276 150.36 429.793 150.819C430.311 151.273 430.579 151.901 430.599 152.702V156.349C430.599 157.077 430.692 157.655 430.877 158.085V158.202H429.456ZM427.208 157.169C427.633 157.169 428.035 157.06 428.416 156.84C428.797 156.62 429.073 156.334 429.244 155.983V154.357H428.182C426.522 154.357 425.692 154.843 425.692 155.814C425.692 156.239 425.833 156.571 426.116 156.811C426.4 157.05 426.763 157.169 427.208 157.169ZM432.401 154.174C432.401 152.938 432.686 151.957 433.258 151.229C433.829 150.497 434.586 150.131 435.528 150.131C436.495 150.131 437.249 150.473 437.791 151.156L437.857 150.277H439.095V158.012C439.095 159.037 438.79 159.845 438.179 160.436C437.574 161.027 436.759 161.322 435.733 161.322C435.162 161.322 434.603 161.2 434.056 160.956C433.509 160.712 433.092 160.377 432.803 159.953L433.507 159.14C434.088 159.857 434.798 160.216 435.638 160.216C436.297 160.216 436.81 160.031 437.176 159.66C437.547 159.289 437.733 158.766 437.733 158.092V157.411C437.191 158.036 436.451 158.349 435.513 158.349C434.586 158.349 433.834 157.975 433.258 157.228C432.686 156.481 432.401 155.463 432.401 154.174ZM433.763 154.328C433.763 155.221 433.946 155.924 434.312 156.437C434.678 156.945 435.191 157.199 435.85 157.199C436.705 157.199 437.332 156.811 437.733 156.034V152.416C437.318 151.659 436.695 151.281 435.865 151.281C435.206 151.281 434.691 151.537 434.32 152.05C433.948 152.562 433.763 153.322 433.763 154.328ZM444.434 158.349C443.36 158.349 442.486 157.997 441.812 157.294C441.138 156.586 440.802 155.641 440.802 154.459V154.21C440.802 153.424 440.95 152.724 441.248 152.108C441.551 151.488 441.971 151.005 442.508 150.658C443.05 150.307 443.636 150.131 444.266 150.131C445.296 150.131 446.097 150.47 446.668 151.149C447.24 151.828 447.525 152.799 447.525 154.064V154.628H442.156C442.176 155.409 442.403 156.042 442.838 156.525C443.277 157.003 443.834 157.243 444.508 157.243C444.986 157.243 445.391 157.145 445.723 156.95C446.055 156.754 446.346 156.496 446.595 156.173L447.423 156.818C446.759 157.838 445.762 158.349 444.434 158.349ZM444.266 151.244C443.719 151.244 443.26 151.444 442.889 151.845C442.518 152.24 442.288 152.797 442.2 153.515H446.17V153.412C446.131 152.724 445.946 152.191 445.614 151.815C445.281 151.435 444.832 151.244 444.266 151.244ZM454.659 148.358V150.277H456.138V151.325H454.659V156.239C454.659 156.557 454.725 156.796 454.857 156.957C454.989 157.113 455.213 157.191 455.531 157.191C455.687 157.191 455.902 157.162 456.175 157.104V158.202C455.819 158.3 455.472 158.349 455.135 158.349C454.53 158.349 454.073 158.166 453.765 157.799C453.458 157.433 453.304 156.913 453.304 156.239V151.325H451.861V150.277H453.304V148.358H454.659ZM462.62 158.202C462.542 158.046 462.479 157.768 462.43 157.367C461.8 158.021 461.048 158.349 460.174 158.349C459.393 158.349 458.751 158.129 458.248 157.689C457.75 157.245 457.501 156.684 457.501 156.005C457.501 155.18 457.813 154.54 458.438 154.086C459.068 153.627 459.952 153.397 461.09 153.397H462.408V152.775C462.408 152.301 462.266 151.925 461.983 151.647C461.7 151.364 461.282 151.222 460.731 151.222C460.247 151.222 459.842 151.344 459.515 151.588C459.188 151.833 459.024 152.128 459.024 152.475H457.662C457.662 152.079 457.801 151.698 458.079 151.332C458.363 150.961 458.743 150.668 459.222 150.453C459.705 150.238 460.235 150.131 460.811 150.131C461.724 150.131 462.44 150.36 462.957 150.819C463.475 151.273 463.743 151.901 463.763 152.702V156.349C463.763 157.077 463.856 157.655 464.041 158.085V158.202H462.62ZM460.372 157.169C460.797 157.169 461.199 157.06 461.58 156.84C461.961 156.62 462.237 156.334 462.408 155.983V154.357H461.346C459.686 154.357 458.856 154.843 458.856 155.814C458.856 156.239 458.997 156.571 459.281 156.811C459.564 157.05 459.927 157.169 460.372 157.169ZM470.501 156.1C470.501 155.734 470.362 155.451 470.084 155.25C469.81 155.045 469.329 154.87 468.641 154.723C467.957 154.577 467.413 154.401 467.008 154.196C466.607 153.991 466.309 153.747 466.114 153.463C465.924 153.18 465.828 152.843 465.828 152.453C465.828 151.803 466.102 151.254 466.649 150.805C467.2 150.355 467.904 150.131 468.758 150.131C469.656 150.131 470.384 150.363 470.941 150.827C471.502 151.291 471.783 151.884 471.783 152.606H470.421C470.421 152.235 470.262 151.916 469.945 151.647C469.632 151.378 469.237 151.244 468.758 151.244C468.265 151.244 467.879 151.352 467.601 151.566C467.323 151.781 467.183 152.062 467.183 152.409C467.183 152.736 467.313 152.982 467.572 153.148C467.83 153.314 468.297 153.473 468.97 153.625C469.649 153.776 470.198 153.957 470.618 154.167C471.038 154.376 471.348 154.63 471.549 154.928C471.754 155.221 471.856 155.58 471.856 156.005C471.856 156.713 471.573 157.282 471.007 157.711C470.44 158.136 469.705 158.349 468.802 158.349C468.167 158.349 467.606 158.236 467.117 158.012C466.629 157.787 466.246 157.475 465.968 157.074C465.694 156.669 465.557 156.232 465.557 155.763H466.912C466.937 156.217 467.117 156.579 467.454 156.847C467.796 157.111 468.245 157.243 468.802 157.243C469.315 157.243 469.725 157.14 470.032 156.935C470.345 156.725 470.501 156.447 470.501 156.1ZM475.833 154.533L474.984 155.419V158.202H473.629V146.952H474.984V153.756L475.709 152.885L478.177 150.277H479.825L476.741 153.588L480.184 158.202H478.594L475.833 154.533ZM485.838 156.1C485.838 155.734 485.699 155.451 485.421 155.25C485.147 155.045 484.666 154.87 483.978 154.723C483.294 154.577 482.75 154.401 482.344 154.196C481.944 153.991 481.646 153.747 481.451 153.463C481.26 153.18 481.165 152.843 481.165 152.453C481.165 151.803 481.439 151.254 481.986 150.805C482.537 150.355 483.24 150.131 484.095 150.131C484.993 150.131 485.721 150.363 486.278 150.827C486.839 151.291 487.12 151.884 487.12 152.606H485.758C485.758 152.235 485.599 151.916 485.281 151.647C484.969 151.378 484.573 151.244 484.095 151.244C483.602 151.244 483.216 151.352 482.938 151.566C482.659 151.781 482.52 152.062 482.52 152.409C482.52 152.736 482.65 152.982 482.908 153.148C483.167 153.314 483.634 153.473 484.307 153.625C484.986 153.776 485.535 153.957 485.955 154.167C486.375 154.376 486.685 154.63 486.885 154.928C487.091 155.221 487.193 155.58 487.193 156.005C487.193 156.713 486.91 157.282 486.344 157.711C485.777 158.136 485.042 158.349 484.139 158.349C483.504 158.349 482.943 158.236 482.454 158.012C481.966 157.787 481.583 157.475 481.304 157.074C481.031 156.669 480.894 156.232 480.894 155.763H482.249C482.274 156.217 482.454 156.579 482.791 156.847C483.133 157.111 483.582 157.243 484.139 157.243C484.652 157.243 485.062 157.14 485.369 156.935C485.682 156.725 485.838 156.447 485.838 156.1ZM497.572 158.202C497.493 158.046 497.43 157.768 497.381 157.367C496.751 158.021 495.999 158.349 495.125 158.349C494.344 158.349 493.702 158.129 493.199 157.689C492.701 157.245 492.452 156.684 492.452 156.005C492.452 155.18 492.764 154.54 493.389 154.086C494.019 153.627 494.903 153.397 496.041 153.397H497.359V152.775C497.359 152.301 497.218 151.925 496.934 151.647C496.651 151.364 496.234 151.222 495.682 151.222C495.198 151.222 494.793 151.344 494.466 151.588C494.139 151.833 493.975 152.128 493.975 152.475H492.613C492.613 152.079 492.752 151.698 493.031 151.332C493.314 150.961 493.695 150.668 494.173 150.453C494.656 150.238 495.186 150.131 495.762 150.131C496.676 150.131 497.391 150.36 497.908 150.819C498.426 151.273 498.695 151.901 498.714 152.702V156.349C498.714 157.077 498.807 157.655 498.992 158.085V158.202H497.572ZM495.323 157.169C495.748 157.169 496.151 157.06 496.531 156.84C496.912 156.62 497.188 156.334 497.359 155.983V154.357H496.297C494.637 154.357 493.807 154.843 493.807 155.814C493.807 156.239 493.948 156.571 494.232 156.811C494.515 157.05 494.879 157.169 495.323 157.169ZM502.12 150.277L502.164 151.273C502.769 150.512 503.56 150.131 504.537 150.131C506.212 150.131 507.056 151.076 507.071 152.965V158.202H505.716V152.958C505.711 152.387 505.579 151.964 505.321 151.691C505.067 151.417 504.669 151.281 504.127 151.281C503.687 151.281 503.302 151.398 502.969 151.632C502.637 151.867 502.379 152.174 502.193 152.555V158.202H500.838V150.277H502.12ZM508.785 154.174C508.785 152.958 509.073 151.981 509.649 151.244C510.225 150.502 510.98 150.131 511.912 150.131C512.84 150.131 513.575 150.448 514.117 151.083V146.952H515.472V158.202H514.227L514.161 157.353C513.619 158.017 512.865 158.349 511.898 158.349C510.98 158.349 510.23 157.973 509.649 157.221C509.073 156.469 508.785 155.487 508.785 154.276V154.174ZM510.14 154.328C510.14 155.226 510.325 155.929 510.697 156.437C511.068 156.945 511.58 157.199 512.235 157.199C513.094 157.199 513.721 156.813 514.117 156.042V152.401C513.712 151.654 513.089 151.281 512.249 151.281C511.585 151.281 511.068 151.537 510.697 152.05C510.325 152.562 510.14 153.322 510.14 154.328ZM3.0769 166.358V168.277H4.5564V169.325H3.0769V174.239C3.0769 174.557 3.14282 174.796 3.27466 174.957C3.40649 175.113 3.6311 175.191 3.94849 175.191C4.10474 175.191 4.31958 175.162 4.59302 175.104V176.202C4.23657 176.3 3.88989 176.349 3.55298 176.349C2.94751 176.349 2.49097 176.166 2.18335 175.799C1.87573 175.433 1.72192 174.913 1.72192 174.239V169.325H0.279053V168.277H1.72192V166.358H3.0769ZM9.43433 176.349C8.36011 176.349 7.48608 175.997 6.81226 175.294C6.13843 174.586 5.80151 173.641 5.80151 172.459V172.21C5.80151 171.424 5.95044 170.724 6.24829 170.108C6.55103 169.488 6.97095 169.005 7.50806 168.658C8.05005 168.307 8.63599 168.131 9.26587 168.131C10.2961 168.131 11.0969 168.47 11.6682 169.149C12.2395 169.828 12.5251 170.799 12.5251 172.064V172.628H7.15649C7.17603 173.409 7.40308 174.042 7.83765 174.525C8.2771 175.003 8.83374 175.243 9.50757 175.243C9.98608 175.243 10.3914 175.145 10.7234 174.95C11.0554 174.754 11.3459 174.496 11.595 174.173L12.4226 174.818C11.7585 175.838 10.7625 176.349 9.43433 176.349ZM9.26587 169.244C8.71899 169.244 8.26001 169.444 7.88892 169.845C7.51782 170.24 7.28833 170.797 7.20044 171.515H11.1702V171.412C11.1311 170.724 10.9456 170.191 10.6135 169.815C10.2815 169.435 9.83228 169.244 9.26587 169.244ZM18.9924 176.202C18.9143 176.046 18.8508 175.768 18.802 175.367C18.1721 176.021 17.4202 176.349 16.5461 176.349C15.7649 176.349 15.1228 176.129 14.6199 175.689C14.1218 175.245 13.8728 174.684 13.8728 174.005C13.8728 173.18 14.1853 172.54 14.8103 172.086C15.4402 171.627 16.324 171.397 17.4617 171.397H18.78V170.775C18.78 170.301 18.6384 169.925 18.3552 169.647C18.072 169.364 17.6545 169.222 17.1028 169.222C16.6194 169.222 16.2141 169.344 15.887 169.588C15.5598 169.833 15.3962 170.128 15.3962 170.475H14.0339C14.0339 170.079 14.1731 169.698 14.4514 169.332C14.7346 168.961 15.1155 168.668 15.594 168.453C16.0774 168.238 16.6072 168.131 17.1833 168.131C18.0964 168.131 18.8118 168.36 19.3293 168.819C19.8469 169.273 20.1155 169.901 20.135 170.702V174.349C20.135 175.077 20.2278 175.655 20.4133 176.085V176.202H18.9924ZM16.7439 175.169C17.1687 175.169 17.5715 175.06 17.9524 174.84C18.3333 174.62 18.6091 174.334 18.78 173.983V172.357H17.718C16.0579 172.357 15.2278 172.843 15.2278 173.814C15.2278 174.239 15.3694 174.571 15.6526 174.811C15.9358 175.05 16.2996 175.169 16.7439 175.169ZM23.5334 168.277L23.5701 169.156C24.1511 168.473 24.9348 168.131 25.9211 168.131C27.0295 168.131 27.7839 168.556 28.1843 169.405C28.448 169.024 28.7898 168.717 29.2097 168.482C29.6345 168.248 30.135 168.131 30.7112 168.131C32.4495 168.131 33.3333 169.051 33.3625 170.892V176.202H32.0076V170.973C32.0076 170.406 31.8782 169.984 31.6194 169.706C31.3606 169.422 30.926 169.281 30.3157 169.281C29.8127 169.281 29.3953 169.432 29.0632 169.735C28.7312 170.033 28.5383 170.436 28.4846 170.943V176.202H27.1223V171.009C27.1223 169.857 26.5583 169.281 25.4304 169.281C24.5417 169.281 23.9338 169.659 23.6067 170.416V176.202H22.2517V168.277H23.5334ZM40.0276 174.1C40.0276 173.734 39.8884 173.451 39.6101 173.25C39.3367 173.045 38.8557 172.87 38.1672 172.723C37.4836 172.577 36.9392 172.401 36.5339 172.196C36.1335 171.991 35.8357 171.747 35.6404 171.463C35.45 171.18 35.3547 170.843 35.3547 170.453C35.3547 169.803 35.6282 169.254 36.175 168.805C36.7268 168.355 37.4299 168.131 38.2844 168.131C39.1829 168.131 39.9104 168.363 40.467 168.827C41.0286 169.291 41.3093 169.884 41.3093 170.606H39.947C39.947 170.235 39.7883 169.916 39.4709 169.647C39.1584 169.378 38.7629 169.244 38.2844 169.244C37.7913 169.244 37.4055 169.352 37.1272 169.566C36.8489 169.781 36.7097 170.062 36.7097 170.409C36.7097 170.736 36.8391 170.982 37.0979 171.148C37.3567 171.314 37.823 171.473 38.4968 171.625C39.1755 171.776 39.7249 171.957 40.1448 172.167C40.5647 172.376 40.8748 172.63 41.075 172.928C41.28 173.221 41.3826 173.58 41.3826 174.005C41.3826 174.713 41.0994 175.282 40.533 175.711C39.9666 176.136 39.2317 176.349 38.3284 176.349C37.6936 176.349 37.1321 176.236 36.6438 176.012C36.1555 175.787 35.7722 175.475 35.4939 175.074C35.2205 174.669 35.0837 174.232 35.0837 173.763H36.4387C36.4631 174.217 36.6438 174.579 36.9807 174.847C37.3225 175.111 37.7717 175.243 38.3284 175.243C38.8411 175.243 39.2512 175.14 39.5588 174.935C39.8713 174.725 40.0276 174.447 40.0276 174.1ZM43.1038 178.326L42.3347 177.799C42.7937 177.159 43.033 176.5 43.0525 175.821V174.598H44.3782V175.66C44.3782 176.153 44.2561 176.646 44.012 177.14C43.7727 177.633 43.47 178.028 43.1038 178.326ZM52.9915 175.243C53.4749 175.243 53.8972 175.096 54.2585 174.803C54.6199 174.51 54.8201 174.144 54.8591 173.705H56.1409C56.1165 174.159 55.9602 174.591 55.6721 175.001C55.384 175.411 54.9983 175.738 54.5149 175.982C54.0364 176.227 53.5286 176.349 52.9915 176.349C51.9124 176.349 51.053 175.99 50.4133 175.272C49.7786 174.549 49.4612 173.563 49.4612 172.313V172.086C49.4612 171.314 49.6028 170.628 49.886 170.028C50.1692 169.427 50.5745 168.961 51.1018 168.629C51.634 168.297 52.2615 168.131 52.9841 168.131C53.8728 168.131 54.6101 168.397 55.196 168.929C55.7869 169.461 56.1018 170.152 56.1409 171.002H54.8591C54.8201 170.489 54.6248 170.069 54.2732 169.742C53.9265 169.41 53.4968 169.244 52.9841 169.244C52.2957 169.244 51.761 169.493 51.3801 169.991C51.0042 170.484 50.8162 171.2 50.8162 172.137V172.394C50.8162 173.307 51.0042 174.01 51.3801 174.503C51.7561 174.996 52.2932 175.243 52.9915 175.243ZM61.4949 169.493C61.2898 169.459 61.0676 169.442 60.8284 169.442C59.9397 169.442 59.3367 169.82 59.0193 170.577V176.202H57.6643V168.277H58.9827L59.0046 169.193C59.449 168.485 60.0789 168.131 60.8943 168.131C61.158 168.131 61.3582 168.165 61.4949 168.233V169.493ZM65.8894 176.349C64.8152 176.349 63.9412 175.997 63.2673 175.294C62.5935 174.586 62.2566 173.641 62.2566 172.459V172.21C62.2566 171.424 62.4055 170.724 62.7034 170.108C63.0061 169.488 63.426 169.005 63.9631 168.658C64.5051 168.307 65.0911 168.131 65.7209 168.131C66.7512 168.131 67.552 168.47 68.1233 169.149C68.6946 169.828 68.9802 170.799 68.9802 172.064V172.628H63.6116C63.6311 173.409 63.8582 174.042 64.2927 174.525C64.7322 175.003 65.2888 175.243 65.9626 175.243C66.4412 175.243 66.8464 175.145 67.1785 174.95C67.5105 174.754 67.801 174.496 68.05 174.173L68.8777 174.818C68.2136 175.838 67.2175 176.349 65.8894 176.349ZM65.7209 169.244C65.1741 169.244 64.7151 169.444 64.344 169.845C63.9729 170.24 63.7434 170.797 63.6555 171.515H67.6252V171.412C67.5862 170.724 67.4006 170.191 67.0686 169.815C66.7366 169.435 66.2874 169.244 65.7209 169.244ZM75.4475 176.202C75.3694 176.046 75.3059 175.768 75.2571 175.367C74.6272 176.021 73.8752 176.349 73.0012 176.349C72.22 176.349 71.5779 176.129 71.075 175.689C70.5769 175.245 70.3279 174.684 70.3279 174.005C70.3279 173.18 70.6404 172.54 71.2654 172.086C71.8953 171.627 72.7791 171.397 73.9167 171.397H75.2351V170.775C75.2351 170.301 75.0935 169.925 74.8103 169.647C74.5271 169.364 74.1096 169.222 73.5579 169.222C73.0745 169.222 72.6692 169.344 72.342 169.588C72.0149 169.833 71.8513 170.128 71.8513 170.475H70.489C70.489 170.079 70.6282 169.698 70.9065 169.332C71.1897 168.961 71.5706 168.668 72.0491 168.453C72.5325 168.238 73.0623 168.131 73.6384 168.131C74.5515 168.131 75.2668 168.36 75.7844 168.819C76.302 169.273 76.5706 169.901 76.5901 170.702V174.349C76.5901 175.077 76.6829 175.655 76.8684 176.085V176.202H75.4475ZM73.199 175.169C73.6238 175.169 74.0266 175.06 74.4075 174.84C74.7883 174.62 75.0642 174.334 75.2351 173.983V172.357H74.1731C72.5129 172.357 71.6829 172.843 71.6829 173.814C71.6829 174.239 71.8245 174.571 72.1077 174.811C72.3909 175.05 72.7546 175.169 73.199 175.169ZM80.5525 166.358V168.277H82.032V169.325H80.5525V174.239C80.5525 174.557 80.6184 174.796 80.7502 174.957C80.8821 175.113 81.1067 175.191 81.4241 175.191C81.5803 175.191 81.7952 175.162 82.0686 175.104V176.202C81.7122 176.3 81.3655 176.349 81.0286 176.349C80.4231 176.349 79.9666 176.166 79.6589 175.799C79.3513 175.433 79.1975 174.913 79.1975 174.239V169.325H77.7546V168.277H79.1975V166.358H80.5525ZM86.9099 176.349C85.8357 176.349 84.9617 175.997 84.2878 175.294C83.614 174.586 83.2771 173.641 83.2771 172.459V172.21C83.2771 171.424 83.426 170.724 83.7239 170.108C84.0266 169.488 84.4465 169.005 84.9836 168.658C85.5256 168.307 86.1116 168.131 86.7415 168.131C87.7717 168.131 88.5725 168.47 89.1438 169.149C89.7151 169.828 90.0007 170.799 90.0007 172.064V172.628H84.6321C84.6516 173.409 84.8787 174.042 85.3132 174.525C85.7527 175.003 86.3093 175.243 86.9832 175.243C87.4617 175.243 87.8669 175.145 88.199 174.95C88.531 174.754 88.8215 174.496 89.0706 174.173L89.8982 174.818C89.2341 175.838 88.238 176.349 86.9099 176.349ZM86.7415 169.244C86.1946 169.244 85.7356 169.444 85.3645 169.845C84.9934 170.24 84.7639 170.797 84.676 171.515H88.6458V171.412C88.6067 170.724 88.4211 170.191 88.0891 169.815C87.7571 169.435 87.3079 169.244 86.7415 169.244ZM99.1267 169.493C98.9216 169.459 98.6995 169.442 98.4602 169.442C97.5715 169.442 96.9685 169.82 96.6511 170.577V176.202H95.2961V168.277H96.6145L96.6365 169.193C97.0808 168.485 97.7107 168.131 98.5261 168.131C98.7898 168.131 98.99 168.165 99.1267 168.233V169.493ZM103.521 176.349C102.447 176.349 101.573 175.997 100.899 175.294C100.225 174.586 99.8884 173.641 99.8884 172.459V172.21C99.8884 171.424 100.037 170.724 100.335 170.108C100.638 169.488 101.058 169.005 101.595 168.658C102.137 168.307 102.723 168.131 103.353 168.131C104.383 168.131 105.184 168.47 105.755 169.149C106.326 169.828 106.612 170.799 106.612 172.064V172.628H101.243C101.263 173.409 101.49 174.042 101.925 174.525C102.364 175.003 102.921 175.243 103.594 175.243C104.073 175.243 104.478 175.145 104.81 174.95C105.142 174.754 105.433 174.496 105.682 174.173L106.51 174.818C105.845 175.838 104.849 176.349 103.521 176.349ZM103.353 169.244C102.806 169.244 102.347 169.444 101.976 169.845C101.605 170.24 101.375 170.797 101.287 171.515H105.257V171.412C105.218 170.724 105.032 170.191 104.7 169.815C104.368 169.435 103.919 169.244 103.353 169.244ZM114.881 172.328C114.881 173.534 114.605 174.505 114.053 175.243C113.502 175.98 112.755 176.349 111.812 176.349C110.85 176.349 110.094 176.043 109.542 175.433V179.249H108.187V168.277H109.425L109.49 169.156C110.042 168.473 110.809 168.131 111.79 168.131C112.742 168.131 113.494 168.49 114.046 169.208C114.603 169.925 114.881 170.924 114.881 172.203V172.328ZM113.526 172.174C113.526 171.28 113.336 170.575 112.955 170.057C112.574 169.54 112.052 169.281 111.387 169.281C110.567 169.281 109.952 169.645 109.542 170.372V174.159C109.947 174.881 110.567 175.243 111.402 175.243C112.052 175.243 112.567 174.986 112.948 174.474C113.333 173.956 113.526 173.189 113.526 172.174ZM116.251 172.167C116.251 171.39 116.402 170.692 116.705 170.072C117.012 169.452 117.437 168.973 117.979 168.636C118.526 168.299 119.149 168.131 119.847 168.131C120.926 168.131 121.798 168.504 122.462 169.251C123.131 169.999 123.465 170.992 123.465 172.232V172.328C123.465 173.099 123.316 173.792 123.018 174.408C122.725 175.018 122.303 175.494 121.751 175.836C121.204 176.178 120.574 176.349 119.862 176.349C118.787 176.349 117.916 175.975 117.247 175.228C116.583 174.481 116.251 173.492 116.251 172.262V172.167ZM117.613 172.328C117.613 173.207 117.816 173.912 118.221 174.444C118.631 174.977 119.178 175.243 119.862 175.243C120.55 175.243 121.097 174.974 121.502 174.437C121.907 173.895 122.11 173.138 122.11 172.167C122.11 171.297 121.903 170.594 121.488 170.057C121.077 169.515 120.531 169.244 119.847 169.244C119.178 169.244 118.638 169.51 118.228 170.042C117.818 170.575 117.613 171.336 117.613 172.328ZM128.995 169.493C128.79 169.459 128.568 169.442 128.328 169.442C127.44 169.442 126.837 169.82 126.519 170.577V176.202H125.164V168.277H126.483L126.505 169.193C126.949 168.485 127.579 168.131 128.394 168.131C128.658 168.131 128.858 168.165 128.995 168.233V169.493ZM132.452 166.358V168.277H133.931V169.325H132.452V174.239C132.452 174.557 132.518 174.796 132.65 174.957C132.781 175.113 133.006 175.191 133.323 175.191C133.48 175.191 133.695 175.162 133.968 175.104V176.202C133.612 176.3 133.265 176.349 132.928 176.349C132.323 176.349 131.866 176.166 131.558 175.799C131.251 175.433 131.097 174.913 131.097 174.239V169.325H129.654V168.277H131.097V166.358H132.452ZM140.135 174.1C140.135 173.734 139.996 173.451 139.718 173.25C139.444 173.045 138.963 172.87 138.275 172.723C137.591 172.577 137.047 172.401 136.641 172.196C136.241 171.991 135.943 171.747 135.748 171.463C135.557 171.18 135.462 170.843 135.462 170.453C135.462 169.803 135.736 169.254 136.282 168.805C136.834 168.355 137.537 168.131 138.392 168.131C139.29 168.131 140.018 168.363 140.574 168.827C141.136 169.291 141.417 169.884 141.417 170.606H140.054C140.054 170.235 139.896 169.916 139.578 169.647C139.266 169.378 138.87 169.244 138.392 169.244C137.899 169.244 137.513 169.352 137.235 169.566C136.956 169.781 136.817 170.062 136.817 170.409C136.817 170.736 136.947 170.982 137.205 171.148C137.464 171.314 137.93 171.473 138.604 171.625C139.283 171.776 139.832 171.957 140.252 172.167C140.672 172.376 140.982 172.63 141.182 172.928C141.387 173.221 141.49 173.58 141.49 174.005C141.49 174.713 141.207 175.282 140.64 175.711C140.074 176.136 139.339 176.349 138.436 176.349C137.801 176.349 137.24 176.236 136.751 176.012C136.263 175.787 135.88 175.475 135.601 175.074C135.328 174.669 135.191 174.232 135.191 173.763H136.546C136.571 174.217 136.751 174.579 137.088 174.847C137.43 175.111 137.879 175.243 138.436 175.243C138.948 175.243 139.359 175.14 139.666 174.935C139.979 174.725 140.135 174.447 140.135 174.1ZM151.868 176.202C151.79 176.046 151.727 175.768 151.678 175.367C151.048 176.021 150.296 176.349 149.422 176.349C148.641 176.349 147.999 176.129 147.496 175.689C146.998 175.245 146.749 174.684 146.749 174.005C146.749 173.18 147.061 172.54 147.686 172.086C148.316 171.627 149.2 171.397 150.338 171.397H151.656V170.775C151.656 170.301 151.514 169.925 151.231 169.647C150.948 169.364 150.531 169.222 149.979 169.222C149.495 169.222 149.09 169.344 148.763 169.588C148.436 169.833 148.272 170.128 148.272 170.475H146.91C146.91 170.079 147.049 169.698 147.327 169.332C147.611 168.961 147.991 168.668 148.47 168.453C148.953 168.238 149.483 168.131 150.059 168.131C150.972 168.131 151.688 168.36 152.205 168.819C152.723 169.273 152.991 169.901 153.011 170.702V174.349C153.011 175.077 153.104 175.655 153.289 176.085V176.202H151.868ZM149.62 175.169C150.045 175.169 150.448 175.06 150.828 174.84C151.209 174.62 151.485 174.334 151.656 173.983V172.357H150.594C148.934 172.357 148.104 172.843 148.104 173.814C148.104 174.239 148.245 174.571 148.529 174.811C148.812 175.05 149.176 175.169 149.62 175.169ZM156.417 168.277L156.461 169.273C157.066 168.512 157.857 168.131 158.834 168.131C160.509 168.131 161.353 169.076 161.368 170.965V176.202H160.013V170.958C160.008 170.387 159.876 169.964 159.617 169.691C159.364 169.417 158.966 169.281 158.424 169.281C157.984 169.281 157.598 169.398 157.266 169.632C156.934 169.867 156.676 170.174 156.49 170.555V176.202H155.135V168.277H156.417ZM163.082 172.174C163.082 170.958 163.37 169.981 163.946 169.244C164.522 168.502 165.277 168.131 166.209 168.131C167.137 168.131 167.872 168.448 168.414 169.083V164.952H169.769V176.202H168.524L168.458 175.353C167.916 176.017 167.161 176.349 166.195 176.349C165.277 176.349 164.527 175.973 163.946 175.221C163.37 174.469 163.082 173.487 163.082 172.276V172.174ZM164.437 172.328C164.437 173.226 164.622 173.929 164.993 174.437C165.365 174.945 165.877 175.199 166.531 175.199C167.391 175.199 168.018 174.813 168.414 174.042V170.401C168.009 169.654 167.386 169.281 166.546 169.281C165.882 169.281 165.365 169.537 164.993 170.05C164.622 170.562 164.437 171.322 164.437 172.328ZM177.071 176.202H175.716V168.277H177.071V176.202ZM175.606 166.175C175.606 165.956 175.672 165.77 175.804 165.619C175.941 165.467 176.141 165.392 176.405 165.392C176.668 165.392 176.868 165.467 177.005 165.619C177.142 165.77 177.21 165.956 177.21 166.175C177.21 166.395 177.142 166.578 177.005 166.725C176.868 166.871 176.668 166.944 176.405 166.944C176.141 166.944 175.941 166.871 175.804 166.725C175.672 166.578 175.606 166.395 175.606 166.175ZM180.521 168.277L180.557 169.156C181.138 168.473 181.922 168.131 182.908 168.131C184.017 168.131 184.771 168.556 185.172 169.405C185.435 169.024 185.777 168.717 186.197 168.482C186.622 168.248 187.122 168.131 187.698 168.131C189.437 168.131 190.321 169.051 190.35 170.892V176.202H188.995V170.973C188.995 170.406 188.865 169.984 188.607 169.706C188.348 169.422 187.913 169.281 187.303 169.281C186.8 169.281 186.383 169.432 186.051 169.735C185.719 170.033 185.526 170.436 185.472 170.943V176.202H184.11V171.009C184.11 169.857 183.546 169.281 182.418 169.281C181.529 169.281 180.921 169.659 180.594 170.416V176.202H179.239V168.277H180.521ZM199.095 172.328C199.095 173.534 198.819 174.505 198.267 175.243C197.716 175.98 196.969 176.349 196.026 176.349C195.064 176.349 194.307 176.043 193.756 175.433V179.249H192.401V168.277H193.638L193.704 169.156C194.256 168.473 195.023 168.131 196.004 168.131C196.956 168.131 197.708 168.49 198.26 169.208C198.817 169.925 199.095 170.924 199.095 172.203V172.328ZM197.74 172.174C197.74 171.28 197.55 170.575 197.169 170.057C196.788 169.54 196.265 169.281 195.601 169.281C194.781 169.281 194.166 169.645 193.756 170.372V174.159C194.161 174.881 194.781 175.243 195.616 175.243C196.265 175.243 196.781 174.986 197.161 174.474C197.547 173.956 197.74 173.189 197.74 172.174ZM204.654 169.493C204.449 169.459 204.227 169.442 203.988 169.442C203.099 169.442 202.496 169.82 202.178 170.577V176.202H200.823V168.277H202.142L202.164 169.193C202.608 168.485 203.238 168.131 204.053 168.131C204.317 168.131 204.517 168.165 204.654 168.233V169.493ZM205.401 172.167C205.401 171.39 205.552 170.692 205.855 170.072C206.163 169.452 206.588 168.973 207.13 168.636C207.677 168.299 208.299 168.131 208.997 168.131C210.076 168.131 210.948 168.504 211.612 169.251C212.281 169.999 212.615 170.992 212.615 172.232V172.328C212.615 173.099 212.467 173.792 212.169 174.408C211.876 175.018 211.453 175.494 210.902 175.836C210.355 176.178 209.725 176.349 209.012 176.349C207.938 176.349 207.066 175.975 206.397 175.228C205.733 174.481 205.401 173.492 205.401 172.262V172.167ZM206.763 172.328C206.763 173.207 206.966 173.912 207.371 174.444C207.781 174.977 208.328 175.243 209.012 175.243C209.7 175.243 210.247 174.974 210.653 174.437C211.058 173.895 211.26 173.138 211.26 172.167C211.26 171.297 211.053 170.594 210.638 170.057C210.228 169.515 209.681 169.244 208.997 169.244C208.328 169.244 207.789 169.51 207.379 170.042C206.969 170.575 206.763 171.336 206.763 172.328ZM216.812 174.364L218.775 168.277H220.159L217.318 176.202H216.285L213.414 168.277H214.798L216.812 174.364ZM224.649 176.349C223.575 176.349 222.701 175.997 222.027 175.294C221.353 174.586 221.016 173.641 221.016 172.459V172.21C221.016 171.424 221.165 170.724 221.463 170.108C221.766 169.488 222.186 169.005 222.723 168.658C223.265 168.307 223.851 168.131 224.481 168.131C225.511 168.131 226.312 168.47 226.883 169.149C227.454 169.828 227.74 170.799 227.74 172.064V172.628H222.371C222.391 173.409 222.618 174.042 223.052 174.525C223.492 175.003 224.049 175.243 224.722 175.243C225.201 175.243 225.606 175.145 225.938 174.95C226.27 174.754 226.561 174.496 226.81 174.173L227.637 174.818C226.973 175.838 225.977 176.349 224.649 176.349ZM224.481 169.244C223.934 169.244 223.475 169.444 223.104 169.845C222.733 170.24 222.503 170.797 222.415 171.515H226.385V171.412C226.346 170.724 226.16 170.191 225.828 169.815C225.496 169.435 225.047 169.244 224.481 169.244ZM235.628 174.217L237.474 168.277H238.924L235.738 177.425C235.245 178.744 234.461 179.403 233.387 179.403L233.131 179.381L232.625 179.286V178.187L232.991 178.216C233.45 178.216 233.807 178.124 234.061 177.938C234.32 177.752 234.532 177.413 234.698 176.92L234.998 176.114L232.171 168.277H233.651L235.628 174.217ZM239.664 172.167C239.664 171.39 239.815 170.692 240.118 170.072C240.426 169.452 240.85 168.973 241.392 168.636C241.939 168.299 242.562 168.131 243.26 168.131C244.339 168.131 245.211 168.504 245.875 169.251C246.544 169.999 246.878 170.992 246.878 172.232V172.328C246.878 173.099 246.729 173.792 246.431 174.408C246.138 175.018 245.716 175.494 245.164 175.836C244.617 176.178 243.988 176.349 243.275 176.349C242.2 176.349 241.329 175.975 240.66 175.228C239.996 174.481 239.664 173.492 239.664 172.262V172.167ZM241.026 172.328C241.026 173.207 241.229 173.912 241.634 174.444C242.044 174.977 242.591 175.243 243.275 175.243C243.963 175.243 244.51 174.974 244.915 174.437C245.321 173.895 245.523 173.138 245.523 172.167C245.523 171.297 245.316 170.594 244.901 170.057C244.49 169.515 243.944 169.244 243.26 169.244C242.591 169.244 242.052 169.51 241.641 170.042C241.231 170.575 241.026 171.336 241.026 172.328ZM253.47 175.418C252.943 176.039 252.169 176.349 251.148 176.349C250.303 176.349 249.659 176.104 249.215 175.616C248.775 175.123 248.553 174.396 248.548 173.434V168.277H249.903V173.397C249.903 174.598 250.391 175.199 251.368 175.199C252.403 175.199 253.092 174.813 253.433 174.042V168.277H254.788V176.202H253.499L253.47 175.418ZM260.684 169.493C260.479 169.459 260.257 169.442 260.018 169.442C259.129 169.442 258.526 169.82 258.209 170.577V176.202H256.854V168.277H258.172L258.194 169.193C258.638 168.485 259.268 168.131 260.084 168.131C260.347 168.131 260.548 168.165 260.684 168.233V169.493ZM272.352 172.328C272.352 173.534 272.076 174.505 271.524 175.243C270.972 175.98 270.225 176.349 269.283 176.349C268.321 176.349 267.564 176.043 267.012 175.433V179.249H265.657V168.277H266.895L266.961 169.156C267.513 168.473 268.28 168.131 269.261 168.131C270.213 168.131 270.965 168.49 271.517 169.208C272.073 169.925 272.352 170.924 272.352 172.203V172.328ZM270.997 172.174C270.997 171.28 270.806 170.575 270.426 170.057C270.045 169.54 269.522 169.281 268.858 169.281C268.038 169.281 267.423 169.645 267.012 170.372V174.159C267.418 174.881 268.038 175.243 268.873 175.243C269.522 175.243 270.037 174.986 270.418 174.474C270.804 173.956 270.997 173.189 270.997 172.174ZM277.369 176.349C276.295 176.349 275.421 175.997 274.747 175.294C274.073 174.586 273.736 173.641 273.736 172.459V172.21C273.736 171.424 273.885 170.724 274.183 170.108C274.486 169.488 274.906 169.005 275.443 168.658C275.985 168.307 276.571 168.131 277.2 168.131C278.231 168.131 279.031 168.47 279.603 169.149C280.174 169.828 280.46 170.799 280.46 172.064V172.628H275.091C275.111 173.409 275.338 174.042 275.772 174.525C276.212 175.003 276.768 175.243 277.442 175.243C277.921 175.243 278.326 175.145 278.658 174.95C278.99 174.754 279.281 174.496 279.53 174.173L280.357 174.818C279.693 175.838 278.697 176.349 277.369 176.349ZM277.2 169.244C276.654 169.244 276.195 169.444 275.823 169.845C275.452 170.24 275.223 170.797 275.135 171.515H279.105V171.412C279.066 170.724 278.88 170.191 278.548 169.815C278.216 169.435 277.767 169.244 277.2 169.244ZM285.865 169.493C285.66 169.459 285.438 169.442 285.198 169.442C284.31 169.442 283.707 169.82 283.389 170.577V176.202H282.034V168.277H283.353L283.375 169.193C283.819 168.485 284.449 168.131 285.264 168.131C285.528 168.131 285.728 168.165 285.865 168.233V169.493ZM287.901 176.202V169.325H286.649V168.277H287.901V167.464C287.901 166.615 288.128 165.958 288.582 165.494C289.036 165.03 289.678 164.798 290.509 164.798C290.821 164.798 291.131 164.84 291.439 164.923L291.365 166.021C291.136 165.978 290.892 165.956 290.633 165.956C290.194 165.956 289.854 166.085 289.615 166.344C289.376 166.598 289.256 166.964 289.256 167.442V168.277H290.948V169.325H289.256V176.202H287.901ZM292.091 172.167C292.091 171.39 292.242 170.692 292.545 170.072C292.852 169.452 293.277 168.973 293.819 168.636C294.366 168.299 294.989 168.131 295.687 168.131C296.766 168.131 297.637 168.504 298.302 169.251C298.97 169.999 299.305 170.992 299.305 172.232V172.328C299.305 173.099 299.156 173.792 298.858 174.408C298.565 175.018 298.143 175.494 297.591 175.836C297.044 176.178 296.414 176.349 295.701 176.349C294.627 176.349 293.756 175.975 293.087 175.228C292.423 174.481 292.091 173.492 292.091 172.262V172.167ZM293.453 172.328C293.453 173.207 293.656 173.912 294.061 174.444C294.471 174.977 295.018 175.243 295.701 175.243C296.39 175.243 296.937 174.974 297.342 174.437C297.747 173.895 297.95 173.138 297.95 172.167C297.95 171.297 297.742 170.594 297.327 170.057C296.917 169.515 296.37 169.244 295.687 169.244C295.018 169.244 294.478 169.51 294.068 170.042C293.658 170.575 293.453 171.336 293.453 172.328ZM304.835 169.493C304.63 169.459 304.407 169.442 304.168 169.442C303.28 169.442 302.677 169.82 302.359 170.577V176.202H301.004V168.277H302.323L302.344 169.193C302.789 168.485 303.419 168.131 304.234 168.131C304.498 168.131 304.698 168.165 304.835 168.233V169.493ZM307.362 168.277L307.398 169.156C307.979 168.473 308.763 168.131 309.749 168.131C310.858 168.131 311.612 168.556 312.012 169.405C312.276 169.024 312.618 168.717 313.038 168.482C313.463 168.248 313.963 168.131 314.539 168.131C316.278 168.131 317.161 169.051 317.191 170.892V176.202H315.836V170.973C315.836 170.406 315.706 169.984 315.448 169.706C315.189 169.422 314.754 169.281 314.144 169.281C313.641 169.281 313.223 169.432 312.891 169.735C312.559 170.033 312.366 170.436 312.313 170.943V176.202H310.95V171.009C310.95 169.857 310.386 169.281 309.259 169.281C308.37 169.281 307.762 169.659 307.435 170.416V176.202H306.08V168.277H307.362ZM324.134 176.202C324.056 176.046 323.992 175.768 323.944 175.367C323.314 176.021 322.562 176.349 321.688 176.349C320.906 176.349 320.264 176.129 319.761 175.689C319.263 175.245 319.014 174.684 319.014 174.005C319.014 173.18 319.327 172.54 319.952 172.086C320.582 171.627 321.466 171.397 322.603 171.397H323.922V170.775C323.922 170.301 323.78 169.925 323.497 169.647C323.214 169.364 322.796 169.222 322.244 169.222C321.761 169.222 321.356 169.344 321.029 169.588C320.701 169.833 320.538 170.128 320.538 170.475H319.176C319.176 170.079 319.315 169.698 319.593 169.332C319.876 168.961 320.257 168.668 320.736 168.453C321.219 168.238 321.749 168.131 322.325 168.131C323.238 168.131 323.953 168.36 324.471 168.819C324.989 169.273 325.257 169.901 325.277 170.702V174.349C325.277 175.077 325.369 175.655 325.555 176.085V176.202H324.134ZM321.885 175.169C322.31 175.169 322.713 175.06 323.094 174.84C323.475 174.62 323.751 174.334 323.922 173.983V172.357H322.86C321.199 172.357 320.369 172.843 320.369 173.814C320.369 174.239 320.511 174.571 320.794 174.811C321.077 175.05 321.441 175.169 321.885 175.169ZM330.579 175.243C331.063 175.243 331.485 175.096 331.846 174.803C332.208 174.51 332.408 174.144 332.447 173.705H333.729C333.704 174.159 333.548 174.591 333.26 175.001C332.972 175.411 332.586 175.738 332.103 175.982C331.624 176.227 331.116 176.349 330.579 176.349C329.5 176.349 328.641 175.99 328.001 175.272C327.366 174.549 327.049 173.563 327.049 172.313V172.086C327.049 171.314 327.191 170.628 327.474 170.028C327.757 169.427 328.162 168.961 328.69 168.629C329.222 168.297 329.849 168.131 330.572 168.131C331.461 168.131 332.198 168.397 332.784 168.929C333.375 169.461 333.69 170.152 333.729 171.002H332.447C332.408 170.489 332.213 170.069 331.861 169.742C331.514 169.41 331.085 169.244 330.572 169.244C329.884 169.244 329.349 169.493 328.968 169.991C328.592 170.484 328.404 171.2 328.404 172.137V172.394C328.404 173.307 328.592 174.01 328.968 174.503C329.344 174.996 329.881 175.243 330.579 175.243ZM338.541 176.349C337.467 176.349 336.593 175.997 335.919 175.294C335.245 174.586 334.908 173.641 334.908 172.459V172.21C334.908 171.424 335.057 170.724 335.355 170.108C335.657 169.488 336.077 169.005 336.615 168.658C337.156 168.307 337.742 168.131 338.372 168.131C339.403 168.131 340.203 168.47 340.775 169.149C341.346 169.828 341.632 170.799 341.632 172.064V172.628H336.263C336.282 173.409 336.51 174.042 336.944 174.525C337.384 175.003 337.94 175.243 338.614 175.243C339.093 175.243 339.498 175.145 339.83 174.95C340.162 174.754 340.452 174.496 340.701 174.173L341.529 174.818C340.865 175.838 339.869 176.349 338.541 176.349ZM338.372 169.244C337.825 169.244 337.366 169.444 336.995 169.845C336.624 170.24 336.395 170.797 336.307 171.515H340.277V171.412C340.238 170.724 340.052 170.191 339.72 169.815C339.388 169.435 338.939 169.244 338.372 169.244Z" fill="white"/>
<path d="M1.45093 279.413V268.749H4.46118C5.38892 268.749 6.20923 268.954 6.92212 269.364C7.63501 269.774 8.18433 270.358 8.57007 271.115C8.96069 271.872 9.15845 272.741 9.16333 273.722V274.403C9.16333 275.409 8.96802 276.291 8.57739 277.047C8.19165 277.804 7.63745 278.385 6.91479 278.791C6.19702 279.196 5.35962 279.403 4.40259 279.413H1.45093ZM2.85718 269.906V278.263H4.33667C5.42065 278.263 6.26294 277.926 6.86353 277.252C7.46899 276.579 7.77173 275.619 7.77173 274.374V273.751C7.77173 272.541 7.48608 271.601 6.91479 270.932C6.34839 270.258 5.54272 269.916 4.4978 269.906H2.85718ZM14.3708 279.56C13.2966 279.56 12.4226 279.208 11.7488 278.505C11.075 277.797 10.738 276.852 10.738 275.67V275.421C10.738 274.635 10.887 273.935 11.1848 273.319C11.4875 272.699 11.9075 272.216 12.4446 271.869C12.9866 271.518 13.5725 271.342 14.2024 271.342C15.2327 271.342 16.0334 271.681 16.6047 272.36C17.176 273.039 17.4617 274.01 17.4617 275.275V275.839H12.093C12.1125 276.62 12.3396 277.252 12.7742 277.736C13.2136 278.214 13.7703 278.454 14.4441 278.454C14.9226 278.454 15.3279 278.356 15.6599 278.161C15.9919 277.965 16.2825 277.707 16.5315 277.384L17.3591 278.029C16.6951 279.049 15.699 279.56 14.3708 279.56ZM14.2024 272.455C13.6555 272.455 13.1965 272.655 12.8254 273.056C12.4543 273.451 12.2249 274.008 12.137 274.726H16.1067V274.623C16.0676 273.935 15.8821 273.402 15.55 273.026C15.218 272.646 14.7688 272.455 14.2024 272.455ZM21.5486 277.575L23.5115 271.488H24.8958L22.054 279.413H21.0212L18.1501 271.488H19.5344L21.5486 277.575ZM29.3855 279.56C28.3113 279.56 27.4373 279.208 26.7634 278.505C26.0896 277.797 25.7527 276.852 25.7527 275.67V275.421C25.7527 274.635 25.9016 273.935 26.1995 273.319C26.5022 272.699 26.9221 272.216 27.4592 271.869C28.0012 271.518 28.5872 271.342 29.217 271.342C30.2473 271.342 31.0481 271.681 31.6194 272.36C32.1907 273.039 32.4763 274.01 32.4763 275.275V275.839H27.1077C27.1272 276.62 27.3542 277.252 27.7888 277.736C28.2283 278.214 28.7849 278.454 29.4587 278.454C29.9373 278.454 30.3425 278.356 30.6746 278.161C31.0066 277.965 31.2971 277.707 31.5461 277.384L32.3738 278.029C31.7097 279.049 30.7136 279.56 29.3855 279.56ZM29.217 272.455C28.6702 272.455 28.2112 272.655 27.8401 273.056C27.469 273.451 27.2395 274.008 27.1516 274.726H31.1213V274.623C31.0823 273.935 30.8967 273.402 30.5647 273.026C30.2327 272.646 29.7834 272.455 29.217 272.455ZM35.5232 279.413H34.1682V268.163H35.5232V279.413ZM37.3396 275.377C37.3396 274.601 37.491 273.903 37.7937 273.283C38.1013 272.663 38.5261 272.184 39.0681 271.847C39.615 271.51 40.2375 271.342 40.9358 271.342C42.0149 271.342 42.8865 271.715 43.5505 272.462C44.2195 273.209 44.554 274.203 44.554 275.443V275.539C44.554 276.31 44.405 277.003 44.1072 277.619C43.8142 278.229 43.3918 278.705 42.8401 279.047C42.2932 279.389 41.6633 279.56 40.9504 279.56C39.8762 279.56 39.0046 279.186 38.3357 278.439C37.6716 277.692 37.3396 276.703 37.3396 275.473V275.377ZM38.7019 275.539C38.7019 276.417 38.9045 277.123 39.3098 277.655C39.72 278.188 40.2668 278.454 40.9504 278.454C41.6389 278.454 42.1858 278.185 42.5911 277.648C42.9963 277.106 43.199 276.349 43.199 275.377C43.199 274.508 42.9915 273.805 42.5764 273.268C42.1663 272.726 41.6194 272.455 40.9358 272.455C40.2668 272.455 39.7273 272.721 39.3171 273.253C38.907 273.786 38.7019 274.547 38.7019 275.539ZM52.9475 275.539C52.9475 276.745 52.6716 277.716 52.1199 278.454C51.5681 279.191 50.821 279.56 49.8787 279.56C48.9167 279.56 48.1599 279.254 47.6082 278.644V282.46H46.2532V271.488H47.491L47.5569 272.367C48.1086 271.684 48.8752 271.342 49.8567 271.342C50.8088 271.342 51.5608 271.701 52.1125 272.418C52.6692 273.136 52.9475 274.135 52.9475 275.414V275.539ZM51.5925 275.385C51.5925 274.491 51.4021 273.786 51.0212 273.268C50.6404 272.75 50.1179 272.492 49.4539 272.492C48.6335 272.492 48.0183 272.855 47.6082 273.583V277.37C48.0134 278.092 48.6335 278.454 49.4685 278.454C50.1179 278.454 50.6331 278.197 51.0139 277.685C51.3997 277.167 51.5925 276.4 51.5925 275.385ZM57.9646 279.56C56.8904 279.56 56.0164 279.208 55.3425 278.505C54.6687 277.797 54.3318 276.852 54.3318 275.67V275.421C54.3318 274.635 54.4807 273.935 54.7786 273.319C55.0813 272.699 55.5012 272.216 56.0383 271.869C56.5803 271.518 57.1663 271.342 57.7961 271.342C58.8264 271.342 59.6272 271.681 60.1985 272.36C60.7698 273.039 61.0554 274.01 61.0554 275.275V275.839H55.6868C55.7063 276.62 55.9333 277.252 56.3679 277.736C56.8074 278.214 57.364 278.454 58.0378 278.454C58.5164 278.454 58.9216 278.356 59.2537 278.161C59.5857 277.965 59.8762 277.707 60.1252 277.384L60.9529 278.029C60.2888 279.049 59.2927 279.56 57.9646 279.56ZM57.7961 272.455C57.2493 272.455 56.7903 272.655 56.4192 273.056C56.0481 273.451 55.8186 274.008 55.7307 274.726H59.7004V274.623C59.6614 273.935 59.4758 273.402 59.1438 273.026C58.8118 272.646 58.3625 272.455 57.7961 272.455ZM62.3005 275.385C62.3005 274.169 62.5886 273.192 63.1648 272.455C63.741 271.713 64.4954 271.342 65.428 271.342C66.3557 271.342 67.0906 271.659 67.6326 272.294V268.163H68.9875V279.413H67.7424L67.6765 278.563C67.1345 279.228 66.3801 279.56 65.4133 279.56C64.4954 279.56 63.7458 279.184 63.1648 278.432C62.5886 277.68 62.3005 276.698 62.3005 275.487V275.385ZM63.6555 275.539C63.6555 276.437 63.8411 277.14 64.2122 277.648C64.5833 278.156 65.0959 278.41 65.7502 278.41C66.6096 278.41 67.2371 278.024 67.6326 277.252V273.612C67.2273 272.865 66.6047 272.492 65.7649 272.492C65.1008 272.492 64.5833 272.748 64.2122 273.261C63.8411 273.773 63.6555 274.533 63.6555 275.539ZM81.5266 275.539C81.5266 276.75 81.2483 277.724 80.6917 278.461C80.135 279.193 79.3879 279.56 78.4504 279.56C77.4495 279.56 76.6755 279.206 76.1287 278.498L76.0627 279.413H74.8176V268.163H76.1726V272.36C76.7195 271.681 77.4739 271.342 78.4358 271.342C79.3977 271.342 80.1521 271.706 80.699 272.433C81.2507 273.161 81.5266 274.157 81.5266 275.421V275.539ZM80.1716 275.385C80.1716 274.462 79.9934 273.749 79.637 273.246C79.2805 272.743 78.7678 272.492 78.0989 272.492C77.2053 272.492 76.5632 272.907 76.1726 273.737V277.165C76.5876 277.995 77.2346 278.41 78.1135 278.41C78.7629 278.41 79.2683 278.158 79.6296 277.655C79.991 277.152 80.1716 276.396 80.1716 275.385ZM85.7454 277.428L87.5911 271.488H89.0413L85.8552 280.636C85.3621 281.955 84.5784 282.614 83.5042 282.614L83.2478 282.592L82.7424 282.497V281.398L83.1086 281.427C83.5676 281.427 83.9241 281.334 84.178 281.149C84.4368 280.963 84.6492 280.624 84.8152 280.131L85.1155 279.325L82.2883 271.488H83.7678L85.7454 277.428ZM96.1018 275.656V279.413H93.9045V268.749H98.0647C98.8655 268.749 99.5686 268.896 100.174 269.188C100.784 269.481 101.253 269.899 101.58 270.441C101.907 270.978 102.071 271.591 102.071 272.279C102.071 273.324 101.712 274.149 100.994 274.755C100.281 275.355 99.2927 275.656 98.0281 275.656H96.1018ZM96.1018 273.876H98.0647C98.6458 273.876 99.0876 273.739 99.3904 273.466C99.698 273.192 99.8518 272.802 99.8518 272.294C99.8518 271.771 99.698 271.349 99.3904 271.027C99.0828 270.705 98.658 270.539 98.116 270.529H96.1018V273.876ZM107.901 273.473C107.613 273.434 107.359 273.415 107.139 273.415C106.339 273.415 105.814 273.686 105.565 274.228V279.413H103.448V271.488H105.448L105.506 272.433C105.931 271.706 106.519 271.342 107.271 271.342C107.506 271.342 107.725 271.374 107.93 271.437L107.901 273.473ZM111.16 279.413H109.036V271.488H111.16V279.413ZM108.912 269.438C108.912 269.12 109.017 268.859 109.227 268.654C109.442 268.449 109.732 268.346 110.098 268.346C110.46 268.346 110.748 268.449 110.963 268.654C111.177 268.859 111.285 269.12 111.285 269.438C111.285 269.76 111.175 270.023 110.955 270.229C110.74 270.434 110.455 270.536 110.098 270.536C109.742 270.536 109.454 270.434 109.234 270.229C109.019 270.023 108.912 269.76 108.912 269.438ZM115.877 276.828L117.349 271.488H119.561L116.888 279.413H114.866L112.193 271.488H114.405L115.877 276.828ZM124.974 279.413C124.876 279.223 124.805 278.986 124.761 278.703C124.249 279.274 123.582 279.56 122.762 279.56C121.986 279.56 121.341 279.335 120.828 278.886C120.321 278.437 120.067 277.87 120.067 277.187C120.067 276.347 120.377 275.702 120.997 275.253C121.622 274.804 122.523 274.577 123.699 274.572H124.674V274.118C124.674 273.751 124.578 273.458 124.388 273.239C124.202 273.019 123.907 272.909 123.502 272.909C123.145 272.909 122.865 272.995 122.659 273.166C122.459 273.336 122.359 273.571 122.359 273.869H120.242C120.242 273.41 120.384 272.985 120.667 272.594C120.95 272.204 121.351 271.898 121.868 271.679C122.386 271.454 122.967 271.342 123.612 271.342C124.588 271.342 125.362 271.588 125.933 272.082C126.51 272.57 126.798 273.258 126.798 274.147V277.582C126.802 278.334 126.907 278.903 127.113 279.289V279.413H124.974ZM123.223 277.941C123.536 277.941 123.824 277.873 124.088 277.736C124.351 277.594 124.547 277.406 124.674 277.172V275.81H123.883C122.823 275.81 122.259 276.176 122.191 276.908L122.183 277.033C122.183 277.296 122.276 277.514 122.462 277.685C122.647 277.855 122.901 277.941 123.223 277.941ZM130.958 269.54V271.488H132.313V273.041H130.958V276.996C130.958 277.289 131.014 277.499 131.126 277.626C131.239 277.753 131.453 277.816 131.771 277.816C132.005 277.816 132.213 277.799 132.393 277.765V279.369C131.978 279.496 131.551 279.56 131.112 279.56C129.627 279.56 128.87 278.81 128.841 277.311V273.041H127.684V271.488H128.841V269.54H130.958ZM137.139 279.56C135.977 279.56 135.03 279.203 134.298 278.49C133.57 277.777 133.206 276.828 133.206 275.641V275.436C133.206 274.64 133.36 273.93 133.668 273.305C133.975 272.675 134.41 272.191 134.971 271.854C135.538 271.513 136.182 271.342 136.905 271.342C137.989 271.342 138.841 271.684 139.461 272.367C140.086 273.051 140.399 274.02 140.399 275.275V276.139H135.352C135.421 276.657 135.626 277.072 135.968 277.384C136.314 277.697 136.751 277.853 137.279 277.853C138.094 277.853 138.731 277.558 139.19 276.967L140.23 278.131C139.913 278.581 139.483 278.932 138.941 279.186C138.399 279.435 137.799 279.56 137.139 279.56ZM136.898 273.056C136.478 273.056 136.136 273.197 135.872 273.48C135.614 273.764 135.448 274.169 135.374 274.696H138.319V274.528C138.309 274.059 138.182 273.698 137.938 273.444C137.694 273.185 137.347 273.056 136.898 273.056ZM153.853 275.861C153.77 277.008 153.345 277.912 152.579 278.571C151.817 279.23 150.811 279.56 149.561 279.56C148.194 279.56 147.117 279.101 146.331 278.183C145.55 277.26 145.159 275.995 145.159 274.389V273.737C145.159 272.711 145.34 271.808 145.701 271.027C146.063 270.246 146.578 269.647 147.247 269.232C147.921 268.812 148.702 268.603 149.591 268.603C150.821 268.603 151.812 268.932 152.564 269.591C153.316 270.25 153.751 271.176 153.868 272.367H151.671C151.617 271.679 151.424 271.181 151.092 270.873C150.765 270.561 150.264 270.404 149.591 270.404C148.858 270.404 148.309 270.668 147.943 271.195C147.581 271.718 147.396 272.531 147.386 273.634V274.44C147.386 275.592 147.559 276.435 147.906 276.967C148.258 277.499 148.809 277.765 149.561 277.765C150.24 277.765 150.745 277.611 151.077 277.304C151.414 276.991 151.607 276.51 151.656 275.861H153.853ZM154.827 275.377C154.827 274.591 154.979 273.891 155.281 273.275C155.584 272.66 156.019 272.184 156.585 271.847C157.156 271.51 157.818 271.342 158.57 271.342C159.639 271.342 160.511 271.669 161.185 272.323C161.864 272.978 162.242 273.866 162.32 274.989L162.335 275.531C162.335 276.747 161.995 277.724 161.317 278.461C160.638 279.193 159.727 279.56 158.585 279.56C157.442 279.56 156.529 279.193 155.845 278.461C155.167 277.729 154.827 276.732 154.827 275.473V275.377ZM156.944 275.531C156.944 276.283 157.086 276.859 157.369 277.26C157.652 277.655 158.057 277.853 158.585 277.853C159.097 277.853 159.498 277.658 159.786 277.267C160.074 276.872 160.218 276.242 160.218 275.377C160.218 274.64 160.074 274.069 159.786 273.664C159.498 273.258 159.093 273.056 158.57 273.056C158.052 273.056 157.652 273.258 157.369 273.664C157.086 274.064 156.944 274.687 156.944 275.531ZM163.309 275.392C163.309 274.157 163.585 273.173 164.136 272.44C164.693 271.708 165.452 271.342 166.414 271.342C167.186 271.342 167.823 271.63 168.326 272.206V268.163H170.45V279.413H168.538L168.436 278.571C167.908 279.23 167.23 279.56 166.4 279.56C165.467 279.56 164.718 279.193 164.151 278.461C163.59 277.724 163.309 276.701 163.309 275.392ZM165.426 275.546C165.426 276.288 165.555 276.857 165.814 277.252C166.073 277.648 166.448 277.846 166.942 277.846C167.596 277.846 168.057 277.57 168.326 277.018V273.891C168.062 273.339 167.606 273.063 166.956 273.063C165.936 273.063 165.426 273.891 165.426 275.546ZM175.738 279.56C174.576 279.56 173.629 279.203 172.896 278.49C172.169 277.777 171.805 276.828 171.805 275.641V275.436C171.805 274.64 171.959 273.93 172.266 273.305C172.574 272.675 173.009 272.191 173.57 271.854C174.136 271.513 174.781 271.342 175.504 271.342C176.588 271.342 177.44 271.684 178.06 272.367C178.685 273.051 178.997 274.02 178.997 275.275V276.139H173.951C174.019 276.657 174.224 277.072 174.566 277.384C174.913 277.697 175.35 277.853 175.877 277.853C176.693 277.853 177.33 277.558 177.789 276.967L178.829 278.131C178.511 278.581 178.082 278.932 177.54 279.186C176.998 279.435 176.397 279.56 175.738 279.56ZM175.496 273.056C175.076 273.056 174.735 273.197 174.471 273.48C174.212 273.764 174.046 274.169 173.973 274.696H176.917V274.528C176.907 274.059 176.781 273.698 176.536 273.444C176.292 273.185 175.946 273.056 175.496 273.056Z" fill="white"/>
</svg>
