<svg width="644" height="656" viewBox="0 0 644 656" fill="none" xmlns="http://www.w3.org/2000/svg">
<path d="M0 0H644L470.362 656H0V0Z" fill="#3B6CF4"/>
<path d="M52.2302 510.348V497.551H55.8425C56.9558 497.551 57.9402 497.797 58.7957 498.289C59.6511 498.782 60.3103 499.482 60.7732 500.39C61.2419 501.298 61.4792 502.341 61.4851 503.519V504.336C61.4851 505.543 61.2507 506.601 60.782 507.509C60.3191 508.417 59.6541 509.115 58.7869 509.601C57.9255 510.087 56.9207 510.336 55.7722 510.348H52.2302ZM53.9177 498.94V508.968H55.6931C56.9939 508.968 58.0046 508.564 58.7253 507.755C59.4519 506.947 59.8152 505.795 59.8152 504.301V503.554C59.8152 502.101 59.4724 500.973 58.7869 500.17C58.1072 499.362 57.1404 498.951 55.8865 498.94H53.9177ZM67.7341 510.524C66.4451 510.524 65.3962 510.102 64.5876 509.258C63.7791 508.408 63.3748 507.275 63.3748 505.857V505.558C63.3748 504.615 63.5535 503.774 63.9109 503.035C64.2742 502.291 64.7781 501.711 65.4226 501.295C66.073 500.873 66.7761 500.662 67.532 500.662C68.7683 500.662 69.7292 501.07 70.4148 501.884C71.1003 502.699 71.4431 503.865 71.4431 505.382V506.059H65.0007C65.0242 506.996 65.2966 507.755 65.8181 508.335C66.3455 508.909 67.0134 509.197 67.822 509.197C68.3962 509.197 68.8826 509.079 69.281 508.845C69.6794 508.611 70.0281 508.3 70.3269 507.913L71.3201 508.687C70.5232 509.911 69.3279 510.524 67.7341 510.524ZM67.532 501.998C66.8757 501.998 66.325 502.239 65.8796 502.719C65.4343 503.194 65.1589 503.862 65.0535 504.723H69.8171V504.6C69.7703 503.774 69.5476 503.135 69.1492 502.684C68.7507 502.227 68.2117 501.998 67.532 501.998ZM76.3474 508.142L78.7029 500.838H80.364L76.9539 510.348H75.7146L72.2693 500.838H73.9304L76.3474 508.142ZM85.7517 510.524C84.4626 510.524 83.4138 510.102 82.6052 509.258C81.7966 508.408 81.3923 507.275 81.3923 505.857V505.558C81.3923 504.615 81.571 503.774 81.9285 503.035C82.2917 502.291 82.7957 501.711 83.4402 501.295C84.0906 500.873 84.7937 500.662 85.5496 500.662C86.7859 500.662 87.7468 501.07 88.4324 501.884C89.1179 502.699 89.4607 503.865 89.4607 505.382V506.059H83.0183C83.0417 506.996 83.3142 507.755 83.8357 508.335C84.363 508.909 85.031 509.197 85.8396 509.197C86.4138 509.197 86.9001 509.079 87.2986 508.845C87.697 508.611 88.0457 508.3 88.3445 507.913L89.3376 508.687C88.5408 509.911 87.3455 510.524 85.7517 510.524ZM85.5496 501.998C84.8933 501.998 84.3425 502.239 83.8972 502.719C83.4519 503.194 83.1765 503.862 83.071 504.723H87.8347V504.6C87.7878 503.774 87.5652 503.135 87.1667 502.684C86.7683 502.227 86.2292 501.998 85.5496 501.998ZM93.1169 510.348H91.491V496.848H93.1169V510.348ZM95.2966 505.505C95.2966 504.574 95.4783 503.736 95.8416 502.991C96.2107 502.247 96.7205 501.673 97.3708 501.269C98.0271 500.865 98.7742 500.662 99.6121 500.662C100.907 500.662 101.953 501.111 102.75 502.007C103.552 502.904 103.954 504.096 103.954 505.584V505.699C103.954 506.624 103.775 507.456 103.418 508.195C103.066 508.927 102.559 509.498 101.897 509.908C101.241 510.319 100.485 510.524 99.6296 510.524C98.3406 510.524 97.2947 510.075 96.4919 509.179C95.6951 508.283 95.2966 507.096 95.2966 505.619V505.505ZM96.9314 505.699C96.9314 506.753 97.1746 507.6 97.6609 508.239C98.1531 508.877 98.8093 509.197 99.6296 509.197C100.456 509.197 101.112 508.874 101.598 508.23C102.085 507.579 102.328 506.671 102.328 505.505C102.328 504.462 102.079 503.618 101.581 502.974C101.089 502.324 100.432 501.998 99.6121 501.998C98.8093 501.998 98.1619 502.318 97.6697 502.956C97.1775 503.595 96.9314 504.509 96.9314 505.699ZM114.026 505.699C114.026 507.146 113.695 508.312 113.033 509.197C112.371 510.081 111.474 510.524 110.344 510.524C109.189 510.524 108.281 510.158 107.619 509.425V514.004H105.993V500.838H107.478L107.557 501.893C108.219 501.073 109.139 500.662 110.317 500.662C111.46 500.662 112.362 501.093 113.024 501.954C113.692 502.816 114.026 504.014 114.026 505.549V505.699ZM112.4 505.514C112.4 504.442 112.172 503.595 111.715 502.974C111.258 502.353 110.631 502.042 109.834 502.042C108.849 502.042 108.111 502.479 107.619 503.352V507.896C108.105 508.763 108.849 509.197 109.851 509.197C110.631 509.197 111.249 508.889 111.706 508.274C112.169 507.653 112.4 506.733 112.4 505.514ZM120.047 510.524C118.758 510.524 117.709 510.102 116.9 509.258C116.092 508.408 115.687 507.275 115.687 505.857V505.558C115.687 504.615 115.866 503.774 116.223 503.035C116.587 502.291 117.091 501.711 117.735 501.295C118.385 500.873 119.089 500.662 119.844 500.662C121.081 500.662 122.042 501.07 122.727 501.884C123.413 502.699 123.756 503.865 123.756 505.382V506.059H117.313C117.337 506.996 117.609 507.755 118.131 508.335C118.658 508.909 119.326 509.197 120.135 509.197C120.709 509.197 121.195 509.079 121.594 508.845C121.992 508.611 122.341 508.3 122.639 507.913L123.633 508.687C122.836 509.911 121.64 510.524 120.047 510.524ZM119.844 501.998C119.188 501.998 118.637 502.239 118.192 502.719C117.747 503.194 117.471 503.862 117.366 504.723H122.13V504.6C122.083 503.774 121.86 503.135 121.462 502.684C121.063 502.227 120.524 501.998 119.844 501.998ZM125.25 505.514C125.25 504.055 125.595 502.883 126.287 501.998C126.978 501.108 127.884 500.662 129.003 500.662C130.116 500.662 130.998 501.043 131.648 501.805V496.848H133.274V510.348H131.78L131.701 509.328C131.051 510.125 130.145 510.524 128.985 510.524C127.884 510.524 126.984 510.073 126.287 509.17C125.595 508.268 125.25 507.09 125.25 505.637V505.514ZM126.876 505.699C126.876 506.777 127.098 507.62 127.544 508.23C127.989 508.839 128.604 509.144 129.389 509.144C130.421 509.144 131.174 508.681 131.648 507.755V503.387C131.162 502.491 130.415 502.042 129.407 502.042C128.61 502.042 127.989 502.35 127.544 502.965C127.098 503.58 126.876 504.491 126.876 505.699ZM148.321 505.699C148.321 507.152 147.987 508.321 147.319 509.205C146.651 510.084 145.755 510.524 144.63 510.524C143.428 510.524 142.5 510.099 141.844 509.249L141.764 510.348H140.27V496.848H141.896V501.884C142.552 501.07 143.458 500.662 144.612 500.662C145.766 500.662 146.672 501.099 147.328 501.972C147.99 502.845 148.321 504.04 148.321 505.558V505.699ZM146.695 505.514C146.695 504.407 146.481 503.551 146.053 502.948C145.626 502.344 145.01 502.042 144.208 502.042C143.135 502.042 142.365 502.54 141.896 503.536V507.65C142.394 508.646 143.171 509.144 144.225 509.144C145.005 509.144 145.611 508.842 146.045 508.239C146.478 507.635 146.695 506.727 146.695 505.514ZM153.384 507.966L155.598 500.838H157.339L153.515 511.816C152.924 513.398 151.983 514.189 150.694 514.189L150.386 514.162L149.78 514.048V512.73L150.219 512.765C150.77 512.765 151.198 512.654 151.503 512.431C151.813 512.208 152.068 511.801 152.267 511.209L152.628 510.242L149.235 500.838H151.01L153.384 507.966ZM165.811 505.839V510.348H163.175V497.551H168.167C169.128 497.551 169.971 497.727 170.698 498.078C171.43 498.43 171.993 498.931 172.385 499.581C172.778 500.226 172.974 500.961 172.974 501.787C172.974 503.041 172.544 504.032 171.682 504.758C170.827 505.479 169.64 505.839 168.123 505.839H165.811ZM165.811 503.703H168.167C168.864 503.703 169.394 503.539 169.758 503.211C170.127 502.883 170.311 502.414 170.311 501.805C170.311 501.178 170.127 500.671 169.758 500.284C169.388 499.898 168.879 499.699 168.228 499.687H165.811V503.703ZM179.97 503.22C179.625 503.173 179.32 503.15 179.056 503.15C178.095 503.15 177.466 503.475 177.167 504.125V510.348H174.627V500.838H177.026L177.096 501.972C177.606 501.099 178.312 500.662 179.215 500.662C179.496 500.662 179.76 500.7 180.006 500.777L179.97 503.22ZM183.882 510.348H181.333V500.838H183.882V510.348ZM181.183 498.377C181.183 497.996 181.309 497.683 181.561 497.437C181.819 497.191 182.168 497.068 182.607 497.068C183.041 497.068 183.386 497.191 183.644 497.437C183.902 497.683 184.031 497.996 184.031 498.377C184.031 498.764 183.899 499.08 183.635 499.326C183.378 499.573 183.035 499.696 182.607 499.696C182.179 499.696 181.834 499.573 181.57 499.326C181.312 499.08 181.183 498.764 181.183 498.377ZM189.542 507.245L191.308 500.838H193.963L190.755 510.348H188.329L185.121 500.838H187.775L189.542 507.245ZM200.458 510.348C200.341 510.119 200.256 509.835 200.203 509.495C199.588 510.181 198.788 510.524 197.803 510.524C196.872 510.524 196.098 510.254 195.483 509.715C194.874 509.176 194.569 508.496 194.569 507.676C194.569 506.668 194.941 505.895 195.685 505.356C196.435 504.817 197.516 504.544 198.928 504.538H200.097V503.993C200.097 503.554 199.983 503.202 199.755 502.939C199.532 502.675 199.177 502.543 198.691 502.543C198.263 502.543 197.927 502.646 197.68 502.851C197.44 503.056 197.32 503.337 197.32 503.695H194.78C194.78 503.144 194.95 502.634 195.29 502.165C195.63 501.697 196.11 501.33 196.731 501.067C197.352 500.797 198.05 500.662 198.823 500.662C199.995 500.662 200.924 500.958 201.609 501.55C202.301 502.136 202.646 502.962 202.646 504.029V508.151C202.652 509.053 202.778 509.736 203.024 510.199V510.348H200.458ZM198.357 508.581C198.732 508.581 199.078 508.499 199.394 508.335C199.711 508.165 199.945 507.94 200.097 507.658V506.024H199.148C197.877 506.024 197.2 506.463 197.118 507.342L197.109 507.491C197.109 507.808 197.22 508.069 197.443 508.274C197.666 508.479 197.97 508.581 198.357 508.581ZM207.638 498.5V500.838H209.264V502.701H207.638V507.448C207.638 507.799 207.706 508.051 207.841 508.203C207.975 508.356 208.233 508.432 208.614 508.432C208.895 508.432 209.144 508.411 209.361 508.37V510.295C208.863 510.448 208.35 510.524 207.823 510.524C206.042 510.524 205.134 509.624 205.098 507.825V502.701H203.71V500.838H205.098V498.5H207.638ZM215.056 510.524C213.662 510.524 212.525 510.096 211.646 509.241C210.773 508.385 210.337 507.245 210.337 505.822V505.575C210.337 504.62 210.521 503.768 210.89 503.018C211.26 502.262 211.781 501.682 212.455 501.278C213.135 500.867 213.908 500.662 214.775 500.662C216.076 500.662 217.098 501.073 217.843 501.893C218.593 502.713 218.968 503.876 218.968 505.382V506.419H212.912C212.994 507.04 213.24 507.538 213.65 507.913C214.066 508.288 214.591 508.476 215.223 508.476C216.202 508.476 216.967 508.121 217.517 507.412L218.765 508.81C218.385 509.349 217.869 509.771 217.219 510.075C216.568 510.374 215.847 510.524 215.056 510.524ZM214.766 502.719C214.262 502.719 213.852 502.889 213.536 503.229C213.225 503.569 213.026 504.055 212.938 504.688H216.471V504.486C216.46 503.923 216.307 503.49 216.014 503.185C215.721 502.874 215.305 502.719 214.766 502.719ZM235.113 506.085C235.013 507.462 234.504 508.546 233.584 509.337C232.67 510.128 231.463 510.524 229.963 510.524C228.322 510.524 227.03 509.973 226.087 508.871C225.149 507.764 224.68 506.246 224.68 504.319V503.536C224.68 502.306 224.897 501.222 225.331 500.284C225.764 499.347 226.383 498.629 227.185 498.131C227.994 497.627 228.931 497.375 229.998 497.375C231.474 497.375 232.664 497.771 233.566 498.562C234.469 499.353 234.99 500.463 235.131 501.893H232.494C232.429 501.067 232.198 500.469 231.8 500.1C231.407 499.725 230.806 499.537 229.998 499.537C229.119 499.537 228.46 499.854 228.02 500.487C227.587 501.114 227.364 502.089 227.352 503.413V504.38C227.352 505.763 227.56 506.774 227.976 507.412C228.398 508.051 229.06 508.37 229.963 508.37C230.777 508.37 231.384 508.186 231.782 507.817C232.186 507.442 232.418 506.865 232.476 506.085H235.113ZM236.282 505.505C236.282 504.562 236.464 503.721 236.827 502.983C237.19 502.244 237.712 501.673 238.391 501.269C239.077 500.865 239.871 500.662 240.773 500.662C242.056 500.662 243.102 501.055 243.911 501.84C244.725 502.625 245.179 503.692 245.273 505.039L245.291 505.69C245.291 507.149 244.884 508.321 244.069 509.205C243.255 510.084 242.162 510.524 240.791 510.524C239.42 510.524 238.324 510.084 237.504 509.205C236.689 508.326 236.282 507.131 236.282 505.619V505.505ZM238.822 505.69C238.822 506.592 238.992 507.283 239.332 507.764C239.672 508.239 240.158 508.476 240.791 508.476C241.406 508.476 241.886 508.241 242.232 507.773C242.578 507.298 242.751 506.542 242.751 505.505C242.751 504.62 242.578 503.935 242.232 503.449C241.886 502.962 241.4 502.719 240.773 502.719C240.152 502.719 239.672 502.962 239.332 503.449C238.992 503.929 238.822 504.676 238.822 505.69ZM246.46 505.523C246.46 504.04 246.791 502.86 247.453 501.981C248.121 501.102 249.032 500.662 250.186 500.662C251.112 500.662 251.877 501.008 252.48 501.699V496.848H255.029V510.348H252.735L252.612 509.337C251.979 510.128 251.165 510.524 250.169 510.524C249.05 510.524 248.15 510.084 247.47 509.205C246.797 508.321 246.46 507.093 246.46 505.523ZM249 505.707C249 506.598 249.155 507.281 249.466 507.755C249.776 508.23 250.227 508.467 250.819 508.467C251.604 508.467 252.158 508.136 252.48 507.474V503.721C252.164 503.059 251.616 502.728 250.837 502.728C249.612 502.728 249 503.721 249 505.707ZM261.375 510.524C259.98 510.524 258.844 510.096 257.965 509.241C257.092 508.385 256.655 507.245 256.655 505.822V505.575C256.655 504.62 256.84 503.768 257.209 503.018C257.578 502.262 258.099 501.682 258.773 501.278C259.453 500.867 260.226 500.662 261.094 500.662C262.394 500.662 263.417 501.073 264.161 501.893C264.911 502.713 265.286 503.876 265.286 505.382V506.419H259.23C259.312 507.04 259.558 507.538 259.969 507.913C260.385 508.288 260.909 508.476 261.542 508.476C262.52 508.476 263.285 508.121 263.836 507.412L265.084 508.81C264.703 509.349 264.187 509.771 263.537 510.075C262.886 510.374 262.166 510.524 261.375 510.524ZM261.085 502.719C260.581 502.719 260.171 502.889 259.854 503.229C259.544 503.569 259.344 504.055 259.257 504.688H262.79V504.486C262.778 503.923 262.626 503.49 262.333 503.185C262.04 502.874 261.624 502.719 261.085 502.719Z" fill="white"/>
<path d="M54.0408 388.134H52.3533V375.337H54.0408V388.134ZM59.0857 376.322V378.624H60.8611V379.881H59.0857V385.779C59.0857 386.16 59.1648 386.447 59.323 386.64C59.4812 386.828 59.7507 386.921 60.1316 386.921C60.3191 386.921 60.5769 386.886 60.905 386.816V388.134C60.4773 388.251 60.0613 388.31 59.657 388.31C58.9304 388.31 58.3826 388.09 58.0134 387.651C57.6443 387.211 57.4597 386.587 57.4597 385.779V379.881H55.7283V378.624H57.4597V376.322H59.0857ZM68.9998 388.134H67.3738V378.624H68.9998V388.134ZM67.2419 376.102C67.2419 375.838 67.321 375.616 67.4792 375.434C67.6433 375.252 67.8835 375.162 68.2 375.162C68.5164 375.162 68.7566 375.252 68.9207 375.434C69.0847 375.616 69.1667 375.838 69.1667 376.102C69.1667 376.366 69.0847 376.585 68.9207 376.761C68.7566 376.937 68.5164 377.025 68.2 377.025C67.8835 377.025 67.6433 376.937 67.4792 376.761C67.321 376.585 67.2419 376.366 67.2419 376.102ZM77.1472 385.612C77.1472 385.172 76.9802 384.832 76.6462 384.592C76.3181 384.346 75.741 384.135 74.9148 383.959C74.0945 383.784 73.4412 383.573 72.9548 383.327C72.4744 383.081 72.1169 382.788 71.8826 382.448C71.6541 382.108 71.5398 381.704 71.5398 381.235C71.5398 380.456 71.8679 379.796 72.5242 379.257C73.1863 378.718 74.03 378.449 75.0554 378.449C76.1335 378.449 77.0066 378.727 77.6746 379.284C78.3484 379.84 78.6853 380.552 78.6853 381.419H77.0505C77.0505 380.974 76.8601 380.59 76.4792 380.268C76.1042 379.946 75.6296 379.785 75.0554 379.785C74.4636 379.785 74.0007 379.914 73.6667 380.171C73.3328 380.429 73.1658 380.766 73.1658 381.182C73.1658 381.575 73.321 381.871 73.6316 382.07C73.9421 382.269 74.5017 382.459 75.3103 382.641C76.1248 382.823 76.7839 383.04 77.2878 383.291C77.7917 383.543 78.1638 383.848 78.4041 384.206C78.6501 384.557 78.7732 384.988 78.7732 385.498C78.7732 386.347 78.4333 387.03 77.7537 387.545C77.074 388.055 76.1921 388.31 75.1082 388.31C74.3464 388.31 73.6726 388.175 73.0867 387.906C72.5007 387.636 72.0408 387.261 71.7068 386.781C71.3787 386.294 71.2146 385.77 71.2146 385.207H72.8406C72.8699 385.752 73.0867 386.186 73.491 386.508C73.9011 386.825 74.4402 386.983 75.1082 386.983C75.7234 386.983 76.2156 386.86 76.5847 386.614C76.9597 386.362 77.1472 386.028 77.1472 385.612ZM93.3894 383.485C93.3894 384.932 93.0583 386.098 92.3962 386.983C91.7341 387.868 90.8376 388.31 89.7068 388.31C88.5525 388.31 87.6443 387.944 86.9822 387.211V391.79H85.3562V378.624H86.8416L86.9207 379.679C87.5828 378.859 88.5027 378.449 89.6804 378.449C90.823 378.449 91.7253 378.879 92.3875 379.741C93.0554 380.602 93.3894 381.8 93.3894 383.335V383.485ZM91.7634 383.3C91.7634 382.228 91.5349 381.381 91.0779 380.76C90.6208 380.139 89.9939 379.829 89.197 379.829C88.2126 379.829 87.4744 380.265 86.9822 381.138V385.682C87.4685 386.549 88.2126 386.983 89.2146 386.983C89.9939 386.983 90.6121 386.675 91.0691 386.06C91.532 385.439 91.7634 384.519 91.7634 383.3ZM100.06 380.083C99.8142 380.042 99.5476 380.022 99.2605 380.022C98.1941 380.022 97.4705 380.476 97.0896 381.384V388.134H95.4636V378.624H97.0457L97.072 379.723C97.6052 378.874 98.3611 378.449 99.3396 378.449C99.656 378.449 99.8962 378.49 100.06 378.572V380.083ZM100.957 383.291C100.957 382.36 101.138 381.522 101.502 380.778C101.871 380.034 102.381 379.459 103.031 379.055C103.687 378.651 104.434 378.449 105.272 378.449C106.567 378.449 107.613 378.897 108.41 379.793C109.213 380.69 109.614 381.882 109.614 383.371V383.485C109.614 384.411 109.435 385.243 109.078 385.981C108.726 386.713 108.219 387.285 107.557 387.695C106.901 388.105 106.145 388.31 105.29 388.31C104.001 388.31 102.955 387.862 102.152 386.965C101.355 386.069 100.957 384.882 100.957 383.406V383.291ZM102.592 383.485C102.592 384.54 102.835 385.386 103.321 386.025C103.813 386.664 104.469 386.983 105.29 386.983C106.116 386.983 106.772 386.661 107.259 386.016C107.745 385.366 107.988 384.457 107.988 383.291C107.988 382.249 107.739 381.405 107.241 380.76C106.749 380.11 106.093 379.785 105.272 379.785C104.469 379.785 103.822 380.104 103.33 380.743C102.838 381.381 102.592 382.295 102.592 383.485ZM113.859 376.322V378.624H115.635V379.881H113.859V385.779C113.859 386.16 113.938 386.447 114.096 386.64C114.255 386.828 114.524 386.921 114.905 386.921C115.093 386.921 115.35 386.886 115.678 386.816V388.134C115.251 388.251 114.835 388.31 114.43 388.31C113.704 388.31 113.156 388.09 112.787 387.651C112.418 387.211 112.233 386.587 112.233 385.779V379.881H110.502V378.624H112.233V376.322H113.859ZM116.935 383.291C116.935 382.36 117.117 381.522 117.48 380.778C117.849 380.034 118.359 379.459 119.01 379.055C119.666 378.651 120.413 378.449 121.251 378.449C122.546 378.449 123.592 378.897 124.388 379.793C125.191 380.69 125.593 381.882 125.593 383.371V383.485C125.593 384.411 125.414 385.243 125.056 385.981C124.705 386.713 124.198 387.285 123.536 387.695C122.88 388.105 122.124 388.31 121.268 388.31C119.979 388.31 118.933 387.862 118.131 386.965C117.334 386.069 116.935 384.882 116.935 383.406V383.291ZM118.57 383.485C118.57 384.54 118.813 385.386 119.3 386.025C119.792 386.664 120.448 386.983 121.268 386.983C122.094 386.983 122.751 386.661 123.237 386.016C123.723 385.366 123.967 384.457 123.967 383.291C123.967 382.249 123.718 381.405 123.219 380.76C122.727 380.11 122.071 379.785 121.251 379.785C120.448 379.785 119.801 380.104 119.308 380.743C118.816 381.381 118.57 382.295 118.57 383.485ZM129.838 376.322V378.624H131.613V379.881H129.838V385.779C129.838 386.16 129.917 386.447 130.075 386.64C130.233 386.828 130.503 386.921 130.884 386.921C131.071 386.921 131.329 386.886 131.657 386.816V388.134C131.229 388.251 130.813 388.31 130.409 388.31C129.682 388.31 129.135 388.09 128.765 387.651C128.396 387.211 128.212 386.587 128.212 385.779V379.881H126.48V378.624H128.212V376.322H129.838ZM136.632 385.752L138.846 378.624H140.587L136.763 389.602C136.172 391.184 135.231 391.975 133.942 391.975L133.635 391.949L133.028 391.834V390.516L133.468 390.551C134.018 390.551 134.446 390.44 134.751 390.217C135.061 389.995 135.316 389.587 135.515 388.996L135.876 388.029L132.483 378.624H134.259L136.632 385.752ZM150.079 383.485C150.079 384.932 149.748 386.098 149.086 386.983C148.424 387.868 147.527 388.31 146.396 388.31C145.242 388.31 144.334 387.944 143.672 387.211V391.79H142.046V378.624H143.531L143.61 379.679C144.272 378.859 145.192 378.449 146.37 378.449C147.512 378.449 148.415 378.879 149.077 379.741C149.745 380.602 150.079 381.8 150.079 383.335V383.485ZM148.453 383.3C148.453 382.228 148.224 381.381 147.767 380.76C147.31 380.139 146.683 379.829 145.886 379.829C144.902 379.829 144.164 380.265 143.672 381.138V385.682C144.158 386.549 144.902 386.983 145.904 386.983C146.683 386.983 147.302 386.675 147.759 386.06C148.221 385.439 148.453 384.519 148.453 383.3ZM156.099 388.31C154.81 388.31 153.761 387.888 152.953 387.044C152.144 386.195 151.74 385.061 151.74 383.643V383.344C151.74 382.401 151.919 381.56 152.276 380.822C152.639 380.078 153.143 379.498 153.788 379.082C154.438 378.66 155.141 378.449 155.897 378.449C157.134 378.449 158.094 378.856 158.78 379.67C159.466 380.485 159.808 381.651 159.808 383.168V383.845H153.366C153.389 384.783 153.662 385.541 154.183 386.122C154.711 386.696 155.379 386.983 156.187 386.983C156.761 386.983 157.248 386.866 157.646 386.631C158.045 386.397 158.393 386.086 158.692 385.7L159.685 386.473C158.888 387.698 157.693 388.31 156.099 388.31ZM155.897 379.785C155.241 379.785 154.69 380.025 154.245 380.505C153.8 380.98 153.524 381.648 153.419 382.509H158.182V382.386C158.135 381.56 157.913 380.921 157.514 380.47C157.116 380.013 156.577 379.785 155.897 379.785ZM165.732 383.291C165.732 382.36 165.914 381.522 166.277 380.778C166.646 380.034 167.156 379.459 167.806 379.055C168.463 378.651 169.21 378.449 170.048 378.449C171.343 378.449 172.388 378.897 173.185 379.793C173.988 380.69 174.389 381.882 174.389 383.371V383.485C174.389 384.411 174.211 385.243 173.853 385.981C173.502 386.713 172.995 387.285 172.333 387.695C171.677 388.105 170.921 388.31 170.065 388.31C168.776 388.31 167.73 387.862 166.927 386.965C166.131 386.069 165.732 384.882 165.732 383.406V383.291ZM167.367 383.485C167.367 384.54 167.61 385.386 168.096 386.025C168.589 386.664 169.245 386.983 170.065 386.983C170.891 386.983 171.548 386.661 172.034 386.016C172.52 385.366 172.763 384.457 172.763 383.291C172.763 382.249 172.514 381.405 172.016 380.76C171.524 380.11 170.868 379.785 170.048 379.785C169.245 379.785 168.597 380.104 168.105 380.743C167.613 381.381 167.367 382.295 167.367 383.485ZM177.228 388.134V379.881H175.725V378.624H177.228V377.649C177.228 376.629 177.501 375.841 178.046 375.285C178.591 374.728 179.361 374.45 180.357 374.45C180.732 374.45 181.104 374.499 181.473 374.599L181.385 375.917C181.11 375.865 180.817 375.838 180.507 375.838C179.979 375.838 179.572 375.994 179.285 376.304C178.998 376.609 178.854 377.048 178.854 377.623V378.624H180.885V379.881H178.854V388.134H177.228ZM189.357 376.322V378.624H191.133V379.881H189.357V385.779C189.357 386.16 189.436 386.447 189.594 386.64C189.753 386.828 190.022 386.921 190.403 386.921C190.591 386.921 190.848 386.886 191.177 386.816V388.134C190.749 388.251 190.333 388.31 189.928 388.31C189.202 388.31 188.654 388.09 188.285 387.651C187.916 387.211 187.731 386.587 187.731 385.779V379.881H186V378.624H187.731V376.322H189.357ZM194.666 379.776C195.386 378.891 196.324 378.449 197.478 378.449C199.488 378.449 200.502 379.582 200.519 381.85V388.134H198.893V381.841C198.887 381.156 198.729 380.649 198.419 380.321C198.114 379.993 197.636 379.829 196.986 379.829C196.459 379.829 195.996 379.969 195.597 380.25C195.199 380.532 194.888 380.901 194.666 381.358V388.134H193.04V374.634H194.666V379.776ZM206.9 388.31C205.611 388.31 204.562 387.888 203.754 387.044C202.945 386.195 202.541 385.061 202.541 383.643V383.344C202.541 382.401 202.719 381.56 203.077 380.822C203.44 380.078 203.944 379.498 204.589 379.082C205.239 378.66 205.942 378.449 206.698 378.449C207.934 378.449 208.895 378.856 209.581 379.67C210.266 380.485 210.609 381.651 210.609 383.168V383.845H204.167C204.19 384.783 204.463 385.541 204.984 386.122C205.511 386.696 206.179 386.983 206.988 386.983C207.562 386.983 208.049 386.866 208.447 386.631C208.845 386.397 209.194 386.086 209.493 385.7L210.486 386.473C209.689 387.698 208.494 388.31 206.9 388.31ZM206.698 379.785C206.042 379.785 205.491 380.025 205.046 380.505C204.6 380.98 204.325 381.648 204.219 382.509H208.983V382.386C208.936 381.56 208.714 380.921 208.315 380.47C207.917 380.013 207.378 379.785 206.698 379.785ZM225.014 383.485C225.014 384.938 224.68 386.107 224.012 386.992C223.344 387.871 222.448 388.31 221.323 388.31C220.122 388.31 219.193 387.885 218.537 387.036L218.458 388.134H216.964V374.634H218.59V379.67C219.246 378.856 220.151 378.449 221.305 378.449C222.46 378.449 223.365 378.885 224.021 379.758C224.683 380.631 225.014 381.827 225.014 383.344V383.485ZM223.388 383.3C223.388 382.193 223.175 381.337 222.747 380.734C222.319 380.13 221.704 379.829 220.901 379.829C219.829 379.829 219.058 380.327 218.59 381.323V385.436C219.088 386.432 219.864 386.93 220.919 386.93C221.698 386.93 222.304 386.628 222.738 386.025C223.172 385.421 223.388 384.513 223.388 383.3ZM231.017 388.31C229.728 388.31 228.679 387.888 227.871 387.044C227.062 386.195 226.658 385.061 226.658 383.643V383.344C226.658 382.401 226.837 381.56 227.194 380.822C227.557 380.078 228.061 379.498 228.706 379.082C229.356 378.66 230.059 378.449 230.815 378.449C232.052 378.449 233.012 378.856 233.698 379.67C234.384 380.485 234.726 381.651 234.726 383.168V383.845H228.284C228.307 384.783 228.58 385.541 229.101 386.122C229.629 386.696 230.297 386.983 231.105 386.983C231.679 386.983 232.166 386.866 232.564 386.631C232.963 386.397 233.311 386.086 233.61 385.7L234.603 386.473C233.806 387.698 232.611 388.31 231.017 388.31ZM230.815 379.785C230.159 379.785 229.608 380.025 229.163 380.505C228.718 380.98 228.442 381.648 228.337 382.509H233.1V382.386C233.053 381.56 232.831 380.921 232.432 380.47C232.034 380.013 231.495 379.785 230.815 379.785ZM242.153 385.612C242.153 385.172 241.986 384.832 241.652 384.592C241.324 384.346 240.747 384.135 239.921 383.959C239.1 383.784 238.447 383.573 237.961 383.327C237.48 383.081 237.123 382.788 236.888 382.448C236.66 382.108 236.546 381.704 236.546 381.235C236.546 380.456 236.874 379.796 237.53 379.257C238.192 378.718 239.036 378.449 240.061 378.449C241.139 378.449 242.012 378.727 242.68 379.284C243.354 379.84 243.691 380.552 243.691 381.419H242.056C242.056 380.974 241.866 380.59 241.485 380.268C241.11 379.946 240.635 379.785 240.061 379.785C239.469 379.785 239.007 379.914 238.673 380.171C238.339 380.429 238.172 380.766 238.172 381.182C238.172 381.575 238.327 381.871 238.637 382.07C238.948 382.269 239.508 382.459 240.316 382.641C241.131 382.823 241.79 383.04 242.294 383.291C242.798 383.543 243.17 383.848 243.41 384.206C243.656 384.557 243.779 384.988 243.779 385.498C243.779 386.347 243.439 387.03 242.76 387.545C242.08 388.055 241.198 388.31 240.114 388.31C239.352 388.31 238.678 388.175 238.093 387.906C237.507 387.636 237.047 387.261 236.713 386.781C236.385 386.294 236.22 385.77 236.22 385.207H237.846C237.876 385.752 238.093 386.186 238.497 386.508C238.907 386.825 239.446 386.983 240.114 386.983C240.729 386.983 241.221 386.86 241.591 386.614C241.966 386.362 242.153 386.028 242.153 385.612ZM248.103 376.322V378.624H249.879V379.881H248.103V385.779C248.103 386.16 248.182 386.447 248.341 386.64C248.499 386.828 248.768 386.921 249.149 386.921C249.337 386.921 249.594 386.886 249.923 386.816V388.134C249.495 388.251 249.079 388.31 248.675 388.31C247.948 388.31 247.4 388.09 247.031 387.651C246.662 387.211 246.477 386.587 246.477 385.779V379.881H244.746V378.624H246.477V376.322H248.103ZM258.457 376.322V378.624H260.232V379.881H258.457V385.779C258.457 386.16 258.536 386.447 258.694 386.64C258.852 386.828 259.122 386.921 259.503 386.921C259.69 386.921 259.948 386.886 260.276 386.816V388.134C259.848 388.251 259.432 388.31 259.028 388.31C258.302 388.31 257.754 388.09 257.385 387.651C257.015 387.211 256.831 386.587 256.831 385.779V379.881H255.099V378.624H256.831V376.322H258.457ZM261.533 383.291C261.533 382.36 261.715 381.522 262.078 380.778C262.447 380.034 262.957 379.459 263.607 379.055C264.263 378.651 265.01 378.449 265.848 378.449C267.143 378.449 268.189 378.897 268.986 379.793C269.789 380.69 270.19 381.882 270.19 383.371V383.485C270.19 384.411 270.011 385.243 269.654 385.981C269.302 386.713 268.796 387.285 268.134 387.695C267.477 388.105 266.721 388.31 265.866 388.31C264.577 388.31 263.531 387.862 262.728 386.965C261.931 386.069 261.533 384.882 261.533 383.406V383.291ZM263.168 383.485C263.168 384.54 263.411 385.386 263.897 386.025C264.389 386.664 265.046 386.983 265.866 386.983C266.692 386.983 267.348 386.661 267.835 386.016C268.321 385.366 268.564 384.457 268.564 383.291C268.564 382.249 268.315 381.405 267.817 380.76C267.325 380.11 266.669 379.785 265.848 379.785C265.046 379.785 264.398 380.104 263.906 380.743C263.414 381.381 263.168 382.295 263.168 383.485ZM271.834 383.3C271.834 381.841 272.179 380.669 272.871 379.785C273.562 378.894 274.468 378.449 275.587 378.449C276.7 378.449 277.582 378.83 278.232 379.591V374.634H279.858V388.134H278.364L278.285 387.115C277.635 387.912 276.729 388.31 275.569 388.31C274.468 388.31 273.568 387.859 272.871 386.957C272.179 386.054 271.834 384.876 271.834 383.423V383.3ZM273.46 383.485C273.46 384.563 273.682 385.407 274.128 386.016C274.573 386.625 275.188 386.93 275.973 386.93C277.005 386.93 277.758 386.467 278.232 385.541V381.173C277.746 380.277 276.999 379.829 275.991 379.829C275.194 379.829 274.573 380.136 274.128 380.751C273.682 381.367 273.46 382.278 273.46 383.485ZM289.06 376.322V378.624H290.836V379.881H289.06V385.779C289.06 386.16 289.139 386.447 289.298 386.64C289.456 386.828 289.725 386.921 290.106 386.921C290.294 386.921 290.552 386.886 290.88 386.816V388.134C290.452 388.251 290.036 388.31 289.632 388.31C288.905 388.31 288.357 388.09 287.988 387.651C287.619 387.211 287.434 386.587 287.434 385.779V379.881H285.703V378.624H287.434V376.322H289.06ZM292.136 383.291C292.136 382.36 292.318 381.522 292.681 380.778C293.051 380.034 293.56 379.459 294.211 379.055C294.867 378.651 295.614 378.449 296.452 378.449C297.747 378.449 298.793 378.897 299.59 379.793C300.392 380.69 300.794 381.882 300.794 383.371V383.485C300.794 384.411 300.615 385.243 300.258 385.981C299.906 386.713 299.399 387.285 298.737 387.695C298.081 388.105 297.325 388.31 296.469 388.31C295.18 388.31 294.135 387.862 293.332 386.965C292.535 386.069 292.136 384.882 292.136 383.406V383.291ZM293.771 383.485C293.771 384.54 294.014 385.386 294.501 386.025C294.993 386.664 295.649 386.983 296.469 386.983C297.296 386.983 297.952 386.661 298.438 386.016C298.925 385.366 299.168 384.457 299.168 383.291C299.168 382.249 298.919 381.405 298.421 380.76C297.928 380.11 297.272 379.785 296.452 379.785C295.649 379.785 295.002 380.104 294.51 380.743C294.017 381.381 293.771 382.295 293.771 383.485ZM308.827 378.624L308.871 379.679C309.568 378.859 310.509 378.449 311.692 378.449C313.022 378.449 313.927 378.958 314.408 379.978C314.724 379.521 315.135 379.152 315.638 378.871C316.148 378.589 316.749 378.449 317.44 378.449C319.526 378.449 320.587 379.553 320.622 381.762V388.134H318.996V381.859C318.996 381.179 318.841 380.672 318.53 380.338C318.219 379.999 317.698 379.829 316.966 379.829C316.362 379.829 315.861 380.01 315.463 380.374C315.064 380.731 314.833 381.214 314.768 381.824V388.134H313.134V381.903C313.134 380.52 312.457 379.829 311.103 379.829C310.037 379.829 309.307 380.283 308.915 381.191V388.134H307.289V378.624H308.827ZM328.954 388.134C328.86 387.947 328.784 387.613 328.725 387.132C327.969 387.917 327.067 388.31 326.018 388.31C325.081 388.31 324.31 388.046 323.707 387.519C323.109 386.986 322.81 386.312 322.81 385.498C322.81 384.507 323.185 383.74 323.935 383.195C324.691 382.644 325.752 382.369 327.117 382.369H328.699V381.622C328.699 381.053 328.529 380.602 328.189 380.268C327.849 379.928 327.348 379.758 326.686 379.758C326.106 379.758 325.62 379.905 325.227 380.198C324.835 380.491 324.638 380.845 324.638 381.261H323.004C323.004 380.787 323.171 380.33 323.505 379.89C323.844 379.445 324.302 379.093 324.876 378.835C325.456 378.578 326.092 378.449 326.783 378.449C327.879 378.449 328.737 378.724 329.358 379.275C329.979 379.82 330.302 380.573 330.325 381.534V385.911C330.325 386.784 330.436 387.478 330.659 387.994V388.134H328.954ZM326.256 386.895C326.765 386.895 327.249 386.763 327.706 386.499C328.163 386.236 328.494 385.893 328.699 385.471V383.52H327.425C325.432 383.52 324.436 384.103 324.436 385.269C324.436 385.779 324.606 386.177 324.946 386.464C325.286 386.751 325.722 386.895 326.256 386.895ZM334.412 378.624L334.465 379.82C335.191 378.906 336.14 378.449 337.312 378.449C339.322 378.449 340.336 379.582 340.353 381.85V388.134H338.727V381.841C338.721 381.156 338.563 380.649 338.253 380.321C337.948 379.993 337.47 379.829 336.82 379.829C336.293 379.829 335.83 379.969 335.431 380.25C335.033 380.532 334.722 380.901 334.5 381.358V388.134H332.874V378.624H334.412ZM348.677 388.134C348.583 387.947 348.507 387.613 348.448 387.132C347.692 387.917 346.79 388.31 345.741 388.31C344.803 388.31 344.033 388.046 343.429 387.519C342.832 386.986 342.533 386.312 342.533 385.498C342.533 384.507 342.908 383.74 343.658 383.195C344.414 382.644 345.474 382.369 346.84 382.369H348.422V381.622C348.422 381.053 348.252 380.602 347.912 380.268C347.572 379.928 347.071 379.758 346.409 379.758C345.829 379.758 345.343 379.905 344.95 380.198C344.557 380.491 344.361 380.845 344.361 381.261H342.726C342.726 380.787 342.893 380.33 343.227 379.89C343.567 379.445 344.024 379.093 344.598 378.835C345.178 378.578 345.814 378.449 346.506 378.449C347.601 378.449 348.46 378.724 349.081 379.275C349.702 379.82 350.024 380.573 350.048 381.534V385.911C350.048 386.784 350.159 387.478 350.382 387.994V388.134H348.677ZM345.978 386.895C346.488 386.895 346.971 386.763 347.428 386.499C347.885 386.236 348.217 385.893 348.422 385.471V383.52H347.147C345.155 383.52 344.159 384.103 344.159 385.269C344.159 385.779 344.329 386.177 344.669 386.464C345.009 386.751 345.445 386.895 345.978 386.895ZM354.135 378.624L354.187 379.82C354.914 378.906 355.863 378.449 357.035 378.449C359.045 378.449 360.058 379.582 360.076 381.85V388.134H358.45V381.841C358.444 381.156 358.286 380.649 357.975 380.321C357.671 379.993 357.193 379.829 356.543 379.829C356.015 379.829 355.552 379.969 355.154 380.25C354.756 380.532 354.445 380.901 354.222 381.358V388.134H352.596V378.624H354.135ZM362.141 383.3C362.141 381.818 362.484 380.64 363.17 379.767C363.855 378.888 364.763 378.449 365.894 378.449C367.054 378.449 367.96 378.859 368.61 379.679L368.689 378.624H370.175V387.906C370.175 389.136 369.808 390.106 369.076 390.815C368.349 391.524 367.371 391.878 366.14 391.878C365.455 391.878 364.784 391.732 364.128 391.439C363.471 391.146 362.97 390.745 362.625 390.235L363.469 389.259C364.166 390.121 365.018 390.551 366.026 390.551C366.817 390.551 367.432 390.329 367.872 389.883C368.317 389.438 368.54 388.811 368.54 388.002V387.185C367.889 387.935 367.002 388.31 365.877 388.31C364.763 388.31 363.861 387.862 363.17 386.965C362.484 386.069 362.141 384.847 362.141 383.3ZM363.776 383.485C363.776 384.557 363.996 385.401 364.435 386.016C364.875 386.625 365.49 386.93 366.281 386.93C367.306 386.93 368.059 386.464 368.54 385.533V381.191C368.042 380.283 367.295 379.829 366.299 379.829C365.508 379.829 364.889 380.136 364.444 380.751C363.999 381.367 363.776 382.278 363.776 383.485ZM376.582 388.31C375.293 388.31 374.244 387.888 373.435 387.044C372.627 386.195 372.222 385.061 372.222 383.643V383.344C372.222 382.401 372.401 381.56 372.759 380.822C373.122 380.078 373.626 379.498 374.27 379.082C374.921 378.66 375.624 378.449 376.38 378.449C377.616 378.449 378.577 378.856 379.262 379.67C379.948 380.485 380.291 381.651 380.291 383.168V383.845H373.848C373.872 384.783 374.144 385.541 374.666 386.122C375.193 386.696 375.861 386.983 376.67 386.983C377.244 386.983 377.73 386.866 378.129 386.631C378.527 386.397 378.876 386.086 379.175 385.7L380.168 386.473C379.371 387.698 378.176 388.31 376.582 388.31ZM376.38 379.785C375.723 379.785 375.173 380.025 374.727 380.505C374.282 380.98 374.007 381.648 373.901 382.509H378.665V382.386C378.618 381.56 378.395 380.921 377.997 380.47C377.598 380.013 377.059 379.785 376.38 379.785ZM386.777 380.083C386.531 380.042 386.264 380.022 385.977 380.022C384.911 380.022 384.187 380.476 383.806 381.384V388.134H382.18V378.624H383.762L383.789 379.723C384.322 378.874 385.078 378.449 386.056 378.449C386.373 378.449 386.613 378.49 386.777 378.572V380.083ZM395.856 385.752L398.071 378.624H399.811L395.988 389.602C395.396 391.184 394.456 391.975 393.167 391.975L392.859 391.949L392.253 391.834V390.516L392.692 390.551C393.243 390.551 393.671 390.44 393.975 390.217C394.286 389.995 394.541 389.587 394.74 388.996L395.1 388.029L391.708 378.624H393.483L395.856 385.752ZM400.699 383.291C400.699 382.36 400.881 381.522 401.244 380.778C401.613 380.034 402.123 379.459 402.773 379.055C403.429 378.651 404.177 378.449 405.014 378.449C406.309 378.449 407.355 378.897 408.152 379.793C408.955 380.69 409.356 381.882 409.356 383.371V383.485C409.356 384.411 409.177 385.243 408.82 385.981C408.469 386.713 407.962 387.285 407.3 387.695C406.643 388.105 405.887 388.31 405.032 388.31C403.743 388.31 402.697 387.862 401.894 386.965C401.097 386.069 400.699 384.882 400.699 383.406V383.291ZM402.334 383.485C402.334 384.54 402.577 385.386 403.063 386.025C403.555 386.664 404.212 386.983 405.032 386.983C405.858 386.983 406.514 386.661 407.001 386.016C407.487 385.366 407.73 384.457 407.73 383.291C407.73 382.249 407.481 381.405 406.983 380.76C406.491 380.11 405.835 379.785 405.014 379.785C404.212 379.785 403.564 380.104 403.072 380.743C402.58 381.381 402.334 382.295 402.334 383.485ZM417.266 387.194C416.634 387.938 415.705 388.31 414.48 388.31C413.467 388.31 412.693 388.017 412.16 387.431C411.633 386.839 411.366 385.966 411.36 384.812V378.624H412.986V384.768C412.986 386.209 413.572 386.93 414.744 386.93C415.986 386.93 416.812 386.467 417.222 385.541V378.624H418.848V388.134H417.302L417.266 387.194ZM425.924 380.083C425.677 380.042 425.411 380.022 425.124 380.022C424.057 380.022 423.334 380.476 422.953 381.384V388.134H421.327V378.624H422.909L422.935 379.723C423.469 378.874 424.224 378.449 425.203 378.449C425.519 378.449 425.76 378.49 425.924 378.572V380.083ZM434.097 376.322V378.624H435.873V379.881H434.097V385.779C434.097 386.16 434.177 386.447 434.335 386.64C434.493 386.828 434.762 386.921 435.143 386.921C435.331 386.921 435.589 386.886 435.917 386.816V388.134C435.489 388.251 435.073 388.31 434.669 388.31C433.942 388.31 433.394 388.09 433.025 387.651C432.656 387.211 432.471 386.587 432.471 385.779V379.881H430.74V378.624H432.471V376.322H434.097ZM439.547 388.134H437.921V378.624H439.547V388.134ZM437.789 376.102C437.789 375.838 437.868 375.616 438.026 375.434C438.19 375.252 438.43 375.162 438.747 375.162C439.063 375.162 439.303 375.252 439.468 375.434C439.632 375.616 439.714 375.838 439.714 376.102C439.714 376.366 439.632 376.585 439.468 376.761C439.303 376.937 439.063 377.025 438.747 377.025C438.43 377.025 438.19 376.937 438.026 376.761C437.868 376.585 437.789 376.366 437.789 376.102ZM443.686 378.624L443.73 379.679C444.427 378.859 445.368 378.449 446.552 378.449C447.882 378.449 448.787 378.958 449.267 379.978C449.584 379.521 449.994 379.152 450.498 378.871C451.008 378.589 451.608 378.449 452.3 378.449C454.385 378.449 455.446 379.553 455.481 381.762V388.134H453.855V381.859C453.855 381.179 453.7 380.672 453.389 380.338C453.079 379.999 452.557 379.829 451.825 379.829C451.221 379.829 450.72 380.01 450.322 380.374C449.924 380.731 449.692 381.214 449.628 381.824V388.134H447.993V381.903C447.993 380.52 447.316 379.829 445.963 379.829C444.896 379.829 444.167 380.283 443.774 381.191V388.134H442.148V378.624H443.686ZM461.888 388.31C460.599 388.31 459.551 387.888 458.742 387.044C457.933 386.195 457.529 385.061 457.529 383.643V383.344C457.529 382.401 457.708 381.56 458.065 380.822C458.428 380.078 458.932 379.498 459.577 379.082C460.227 378.66 460.93 378.449 461.686 378.449C462.923 378.449 463.884 378.856 464.569 379.67C465.255 380.485 465.597 381.651 465.597 383.168V383.845H459.155C459.178 384.783 459.451 385.541 459.972 386.122C460.5 386.696 461.168 386.983 461.976 386.983C462.551 386.983 463.037 386.866 463.435 386.631C463.834 386.397 464.182 386.086 464.481 385.7L465.474 386.473C464.677 387.698 463.482 388.31 461.888 388.31ZM461.686 379.785C461.03 379.785 460.479 380.025 460.034 380.505C459.589 380.98 459.313 381.648 459.208 382.509H463.971V382.386C463.925 381.56 463.702 380.921 463.303 380.47C462.905 380.013 462.366 379.785 461.686 379.785ZM474.158 376.322V378.624H475.933V379.881H474.158V385.779C474.158 386.16 474.237 386.447 474.395 386.64C474.553 386.828 474.823 386.921 475.204 386.921C475.391 386.921 475.649 386.886 475.977 386.816V388.134C475.55 388.251 475.134 388.31 474.729 388.31C474.003 388.31 473.455 388.09 473.086 387.651C472.717 387.211 472.532 386.587 472.532 385.779V379.881H470.801V378.624H472.532V376.322H474.158ZM483.712 388.134C483.618 387.947 483.542 387.613 483.483 387.132C482.727 387.917 481.825 388.31 480.776 388.31C479.839 388.31 479.068 388.046 478.465 387.519C477.867 386.986 477.568 386.312 477.568 385.498C477.568 384.507 477.943 383.74 478.693 383.195C479.449 382.644 480.51 382.369 481.875 382.369H483.457V381.622C483.457 381.053 483.287 380.602 482.947 380.268C482.607 379.928 482.106 379.758 481.444 379.758C480.864 379.758 480.378 379.905 479.985 380.198C479.593 380.491 479.396 380.845 479.396 381.261H477.761C477.761 380.787 477.928 380.33 478.262 379.89C478.602 379.445 479.059 379.093 479.634 378.835C480.214 378.578 480.849 378.449 481.541 378.449C482.636 378.449 483.495 378.724 484.116 379.275C484.737 379.82 485.059 380.573 485.083 381.534V385.911C485.083 386.784 485.194 387.478 485.417 387.994V388.134H483.712ZM481.013 386.895C481.523 386.895 482.007 386.763 482.464 386.499C482.921 386.236 483.252 385.893 483.457 385.471V383.52H482.182C480.19 383.52 479.194 384.103 479.194 385.269C479.194 385.779 479.364 386.177 479.704 386.464C480.044 386.751 480.48 386.895 481.013 386.895ZM493.169 385.612C493.169 385.172 493.002 384.832 492.668 384.592C492.34 384.346 491.762 384.135 490.936 383.959C490.116 383.784 489.463 383.573 488.976 383.327C488.496 383.081 488.138 382.788 487.904 382.448C487.676 382.108 487.561 381.704 487.561 381.235C487.561 380.456 487.889 379.796 488.546 379.257C489.208 378.718 490.052 378.449 491.077 378.449C492.155 378.449 493.028 378.727 493.696 379.284C494.37 379.84 494.707 380.552 494.707 381.419H493.072C493.072 380.974 492.882 380.59 492.501 380.268C492.126 379.946 491.651 379.785 491.077 379.785C490.485 379.785 490.022 379.914 489.688 380.171C489.354 380.429 489.187 380.766 489.187 381.182C489.187 381.575 489.343 381.871 489.653 382.07C489.964 382.269 490.523 382.459 491.332 382.641C492.146 382.823 492.805 383.04 493.309 383.291C493.813 383.543 494.185 383.848 494.426 384.206C494.672 384.557 494.795 384.988 494.795 385.498C494.795 386.347 494.455 387.03 493.775 387.545C493.095 388.055 492.214 388.31 491.13 388.31C490.368 388.31 489.694 388.175 489.108 387.906C488.522 387.636 488.062 387.261 487.728 386.781C487.4 386.294 487.236 385.77 487.236 385.207H488.862C488.891 385.752 489.108 386.186 489.512 386.508C489.923 386.825 490.462 386.983 491.13 386.983C491.745 386.983 492.237 386.86 492.606 386.614C492.981 386.362 493.169 386.028 493.169 385.612ZM499.567 383.731L498.548 384.794V388.134H496.922V374.634H498.548V382.799L499.418 381.753L502.38 378.624H504.357L500.657 382.597L504.788 388.134H502.881L499.567 383.731ZM511.573 385.612C511.573 385.172 511.406 384.832 511.072 384.592C510.744 384.346 510.167 384.135 509.341 383.959C508.52 383.784 507.867 383.573 507.381 383.327C506.9 383.081 506.543 382.788 506.308 382.448C506.08 382.108 505.966 381.704 505.966 381.235C505.966 380.456 506.294 379.796 506.95 379.257C507.612 378.718 508.456 378.449 509.481 378.449C510.559 378.449 511.432 378.727 512.1 379.284C512.774 379.84 513.111 380.552 513.111 381.419H511.476C511.476 380.974 511.286 380.59 510.905 380.268C510.53 379.946 510.055 379.785 509.481 379.785C508.889 379.785 508.427 379.914 508.093 380.171C507.759 380.429 507.592 380.766 507.592 381.182C507.592 381.575 507.747 381.871 508.057 382.07C508.368 382.269 508.927 382.459 509.736 382.641C510.551 382.823 511.21 383.04 511.714 383.291C512.218 383.543 512.59 383.848 512.83 384.206C513.076 384.557 513.199 384.988 513.199 385.498C513.199 386.347 512.859 387.03 512.179 387.545C511.5 388.055 510.618 388.31 509.534 388.31C508.772 388.31 508.098 388.175 507.512 387.906C506.927 387.636 506.467 387.261 506.133 386.781C505.804 386.294 505.64 385.77 505.64 385.207H507.266C507.296 385.752 507.512 386.186 507.917 386.508C508.327 386.825 508.866 386.983 509.534 386.983C510.149 386.983 510.641 386.86 511.01 386.614C511.385 386.362 511.573 386.028 511.573 385.612ZM515.352 387.282C515.352 387 515.434 386.766 515.598 386.579C515.768 386.391 516.02 386.297 516.354 386.297C516.688 386.297 516.94 386.391 517.11 386.579C517.286 386.766 517.374 387 517.374 387.282C517.374 387.551 517.286 387.777 517.11 387.958C516.94 388.14 516.688 388.231 516.354 388.231C516.02 388.231 515.768 388.14 515.598 387.958C515.434 387.777 515.352 387.551 515.352 387.282ZM54.4099 396.337L58.5935 406.779L62.7771 396.337H64.9656V409.134H63.2781V404.151L63.4363 398.772L59.2351 409.134H57.9431L53.7507 398.798L53.9177 404.151V409.134H52.2302V396.337H54.4099ZM73.5613 409.134C73.4675 408.947 73.3914 408.613 73.3328 408.132C72.5769 408.917 71.6746 409.31 70.6257 409.31C69.6882 409.31 68.9177 409.046 68.3142 408.519C67.7166 407.986 67.4177 407.312 67.4177 406.498C67.4177 405.507 67.7927 404.74 68.5427 404.195C69.2986 403.644 70.3591 403.369 71.7244 403.369H73.3064V402.622C73.3064 402.053 73.1365 401.602 72.7966 401.268C72.4568 400.928 71.9558 400.758 71.2937 400.758C70.7136 400.758 70.2273 400.905 69.8347 401.198C69.4421 401.491 69.2458 401.845 69.2458 402.261H67.6111C67.6111 401.787 67.7781 401.33 68.1121 400.89C68.4519 400.445 68.9089 400.093 69.4832 399.835C70.0632 399.578 70.699 399.449 71.3904 399.449C72.4861 399.449 73.3445 399.724 73.9656 400.275C74.5867 400.82 74.9089 401.573 74.9324 402.534V406.911C74.9324 407.784 75.0437 408.478 75.2664 408.994V409.134H73.5613ZM70.863 407.895C71.3728 407.895 71.8562 407.763 72.3132 407.499C72.7703 407.236 73.1013 406.893 73.3064 406.471V404.52H72.032C70.0398 404.52 69.0437 405.103 69.0437 406.269C69.0437 406.779 69.2136 407.177 69.5535 407.464C69.8933 407.751 70.3298 407.895 70.863 407.895ZM79.0193 399.624L79.072 400.82C79.7986 399.906 80.7478 399.449 81.9197 399.449C83.9294 399.449 84.9431 400.582 84.9607 402.85V409.134H83.3347V402.841C83.3289 402.156 83.1707 401.649 82.8601 401.321C82.5554 400.993 82.0779 400.829 81.4275 400.829C80.9001 400.829 80.4373 400.969 80.0388 401.25C79.6404 401.532 79.3298 401.901 79.1072 402.358V409.134H77.4812V399.624H79.0193ZM93.2839 409.134C93.1902 408.947 93.114 408.613 93.0554 408.132C92.2996 408.917 91.3972 409.31 90.3484 409.31C89.4109 409.31 88.6404 409.046 88.0369 408.519C87.4392 407.986 87.1404 407.312 87.1404 406.498C87.1404 405.507 87.5154 404.74 88.2654 404.195C89.0212 403.644 90.0818 403.369 91.447 403.369H93.0291V402.622C93.0291 402.053 92.8591 401.602 92.5193 401.268C92.1794 400.928 91.6785 400.758 91.0164 400.758C90.4363 400.758 89.95 400.905 89.5574 401.198C89.1648 401.491 88.9685 401.845 88.9685 402.261H87.3337C87.3337 401.787 87.5007 401.33 87.8347 400.89C88.1746 400.445 88.6316 400.093 89.2058 399.835C89.7859 399.578 90.4216 399.449 91.113 399.449C92.2087 399.449 93.0671 399.724 93.6882 400.275C94.3093 400.82 94.6316 401.573 94.655 402.534V406.911C94.655 407.784 94.7664 408.478 94.989 408.994V409.134H93.2839ZM90.5857 407.895C91.0955 407.895 91.5789 407.763 92.0359 407.499C92.4929 407.236 92.824 406.893 93.0291 406.471V404.52H91.7546C89.7625 404.52 88.7664 405.103 88.7664 406.269C88.7664 406.779 88.9363 407.177 89.2761 407.464C89.616 407.751 90.0525 407.895 90.5857 407.895ZM96.8171 404.3C96.8171 402.818 97.1599 401.64 97.8455 400.767C98.531 399.888 99.4392 399.449 100.57 399.449C101.73 399.449 102.635 399.859 103.286 400.679L103.365 399.624H104.85V408.906C104.85 410.136 104.484 411.106 103.752 411.815C103.025 412.524 102.047 412.878 100.816 412.878C100.131 412.878 99.4597 412.732 98.8035 412.439C98.1472 412.146 97.6462 411.745 97.3005 411.235L98.1443 410.259C98.8416 411.121 99.6941 411.551 100.702 411.551C101.493 411.551 102.108 411.329 102.548 410.883C102.993 410.438 103.216 409.811 103.216 409.002V408.185C102.565 408.935 101.677 409.31 100.552 409.31C99.4392 409.31 98.5369 408.862 97.8455 407.965C97.1599 407.069 96.8171 405.847 96.8171 404.3ZM98.4519 404.485C98.4519 405.557 98.6716 406.401 99.1111 407.016C99.5505 407.625 100.166 407.93 100.957 407.93C101.982 407.93 102.735 407.464 103.216 406.533V402.191C102.718 401.283 101.97 400.829 100.974 400.829C100.183 400.829 99.5652 401.136 99.1199 401.751C98.6746 402.367 98.4519 403.278 98.4519 404.485ZM111.258 409.31C109.969 409.31 108.92 408.888 108.111 408.044C107.302 407.195 106.898 406.061 106.898 404.643V404.344C106.898 403.401 107.077 402.56 107.434 401.822C107.798 401.078 108.302 400.498 108.946 400.082C109.596 399.66 110.3 399.449 111.055 399.449C112.292 399.449 113.253 399.856 113.938 400.67C114.624 401.485 114.967 402.651 114.967 404.168V404.845H108.524C108.548 405.783 108.82 406.541 109.342 407.122C109.869 407.696 110.537 407.983 111.345 407.983C111.92 407.983 112.406 407.866 112.804 407.631C113.203 407.397 113.552 407.086 113.85 406.7L114.844 407.473C114.047 408.698 112.851 409.31 111.258 409.31ZM111.055 400.785C110.399 400.785 109.848 401.025 109.403 401.505C108.958 401.98 108.682 402.648 108.577 403.509H113.341V403.386C113.294 402.56 113.071 401.921 112.673 401.47C112.274 401.013 111.735 400.785 111.055 400.785ZM123.527 397.322V399.624H125.302V400.881H123.527V406.779C123.527 407.16 123.606 407.447 123.764 407.64C123.923 407.828 124.192 407.921 124.573 407.921C124.76 407.921 125.018 407.886 125.346 407.816V409.134C124.919 409.251 124.503 409.31 124.098 409.31C123.372 409.31 122.824 409.09 122.455 408.651C122.086 408.211 121.901 407.587 121.901 406.779V400.881H120.17V399.624H121.901V397.322H123.527ZM133.081 409.134C132.987 408.947 132.911 408.613 132.852 408.132C132.096 408.917 131.194 409.31 130.145 409.31C129.208 409.31 128.437 409.046 127.834 408.519C127.236 407.986 126.937 407.312 126.937 406.498C126.937 405.507 127.312 404.74 128.062 404.195C128.818 403.644 129.879 403.369 131.244 403.369H132.826V402.622C132.826 402.053 132.656 401.602 132.316 401.268C131.976 400.928 131.475 400.758 130.813 400.758C130.233 400.758 129.747 400.905 129.354 401.198C128.962 401.491 128.765 401.845 128.765 402.261H127.131C127.131 401.787 127.298 401.33 127.632 400.89C127.971 400.445 128.428 400.093 129.003 399.835C129.583 399.578 130.219 399.449 130.91 399.449C132.006 399.449 132.864 399.724 133.485 400.275C134.106 400.82 134.428 401.573 134.452 402.534V406.911C134.452 407.784 134.563 408.478 134.786 408.994V409.134H133.081ZM130.383 407.895C130.892 407.895 131.376 407.763 131.833 407.499C132.29 407.236 132.621 406.893 132.826 406.471V404.52H131.552C129.559 404.52 128.563 405.103 128.563 406.269C128.563 406.779 128.733 407.177 129.073 407.464C129.413 407.751 129.849 407.895 130.383 407.895ZM142.538 406.612C142.538 406.172 142.371 405.832 142.037 405.592C141.709 405.346 141.132 405.135 140.305 404.959C139.485 404.784 138.832 404.573 138.345 404.327C137.865 404.081 137.508 403.788 137.273 403.448C137.045 403.108 136.93 402.704 136.93 402.235C136.93 401.456 137.259 400.796 137.915 400.257C138.577 399.718 139.421 399.449 140.446 399.449C141.524 399.449 142.397 399.727 143.065 400.284C143.739 400.84 144.076 401.552 144.076 402.419H142.441C142.441 401.974 142.251 401.59 141.87 401.268C141.495 400.946 141.02 400.785 140.446 400.785C139.854 400.785 139.391 400.914 139.057 401.171C138.723 401.429 138.556 401.766 138.556 402.182C138.556 402.575 138.712 402.871 139.022 403.07C139.333 403.269 139.892 403.459 140.701 403.641C141.515 403.823 142.175 404.04 142.678 404.291C143.182 404.543 143.554 404.848 143.795 405.206C144.041 405.557 144.164 405.988 144.164 406.498C144.164 407.347 143.824 408.03 143.144 408.545C142.465 409.055 141.583 409.31 140.499 409.31C139.737 409.31 139.063 409.175 138.477 408.906C137.891 408.636 137.431 408.261 137.097 407.781C136.769 407.294 136.605 406.77 136.605 406.207H138.231C138.26 406.752 138.477 407.186 138.882 407.508C139.292 407.825 139.831 407.983 140.499 407.983C141.114 407.983 141.606 407.86 141.975 407.614C142.35 407.362 142.538 407.028 142.538 406.612ZM148.936 404.731L147.917 405.794V409.134H146.291V395.634H147.917V403.799L148.787 402.753L151.749 399.624H153.726L150.026 403.597L154.157 409.134H152.25L148.936 404.731ZM160.942 406.612C160.942 406.172 160.775 405.832 160.441 405.592C160.113 405.346 159.536 405.135 158.71 404.959C157.889 404.784 157.236 404.573 156.75 404.327C156.269 404.081 155.912 403.788 155.677 403.448C155.449 403.108 155.335 402.704 155.335 402.235C155.335 401.456 155.663 400.796 156.319 400.257C156.981 399.718 157.825 399.449 158.85 399.449C159.928 399.449 160.802 399.727 161.469 400.284C162.143 400.84 162.48 401.552 162.48 402.419H160.845C160.845 401.974 160.655 401.59 160.274 401.268C159.899 400.946 159.425 400.785 158.85 400.785C158.259 400.785 157.796 400.914 157.462 401.171C157.128 401.429 156.961 401.766 156.961 402.182C156.961 402.575 157.116 402.871 157.427 403.07C157.737 403.269 158.297 403.459 159.105 403.641C159.92 403.823 160.579 404.04 161.083 404.291C161.587 404.543 161.959 404.848 162.199 405.206C162.445 405.557 162.568 405.988 162.568 406.498C162.568 407.347 162.228 408.03 161.549 408.545C160.869 409.055 159.987 409.31 158.903 409.31C158.141 409.31 157.468 409.175 156.882 408.906C156.296 408.636 155.836 408.261 155.502 407.781C155.174 407.294 155.01 406.77 155.01 406.207H156.635C156.665 406.752 156.882 407.186 157.286 407.508C157.696 407.825 158.235 407.983 158.903 407.983C159.518 407.983 160.01 407.86 160.38 407.614C160.755 407.362 160.942 407.028 160.942 406.612ZM175.022 409.134C174.928 408.947 174.852 408.613 174.794 408.132C174.038 408.917 173.135 409.31 172.087 409.31C171.149 409.31 170.379 409.046 169.775 408.519C169.177 407.986 168.879 407.312 168.879 406.498C168.879 405.507 169.254 404.74 170.004 404.195C170.76 403.644 171.82 403.369 173.185 403.369H174.767V402.622C174.767 402.053 174.597 401.602 174.258 401.268C173.918 400.928 173.417 400.758 172.755 400.758C172.175 400.758 171.688 400.905 171.296 401.198C170.903 401.491 170.707 401.845 170.707 402.261H169.072C169.072 401.787 169.239 401.33 169.573 400.89C169.913 400.445 170.37 400.093 170.944 399.835C171.524 399.578 172.16 399.449 172.851 399.449C173.947 399.449 174.805 399.724 175.427 400.275C176.048 400.82 176.37 401.573 176.393 402.534V406.911C176.393 407.784 176.505 408.478 176.727 408.994V409.134H175.022ZM172.324 407.895C172.834 407.895 173.317 407.763 173.774 407.499C174.231 407.236 174.562 406.893 174.767 406.471V404.52H173.493C171.501 404.52 170.505 405.103 170.505 406.269C170.505 406.779 170.675 407.177 171.014 407.464C171.354 407.751 171.791 407.895 172.324 407.895ZM180.48 399.624L180.533 400.82C181.26 399.906 182.209 399.449 183.381 399.449C185.39 399.449 186.404 400.582 186.422 402.85V409.134H184.796V402.841C184.79 402.156 184.632 401.649 184.321 401.321C184.016 400.993 183.539 400.829 182.888 400.829C182.361 400.829 181.898 400.969 181.5 401.25C181.101 401.532 180.791 401.901 180.568 402.358V409.134H178.942V399.624H180.48ZM188.478 404.3C188.478 402.841 188.824 401.669 189.515 400.785C190.207 399.894 191.112 399.449 192.231 399.449C193.344 399.449 194.226 399.83 194.877 400.591V395.634H196.503V409.134H195.009L194.929 408.115C194.279 408.912 193.374 409.31 192.214 409.31C191.112 409.31 190.213 408.859 189.515 407.957C188.824 407.054 188.478 405.876 188.478 404.423V404.3ZM190.104 404.485C190.104 405.563 190.327 406.407 190.772 407.016C191.218 407.625 191.833 407.93 192.618 407.93C193.649 407.93 194.402 407.467 194.877 406.541V402.173C194.39 401.277 193.643 400.829 192.635 400.829C191.839 400.829 191.218 401.136 190.772 401.751C190.327 402.367 190.104 403.278 190.104 404.485ZM205.705 397.322V399.624H207.48V400.881H205.705V406.779C205.705 407.16 205.784 407.447 205.942 407.64C206.1 407.828 206.37 407.921 206.751 407.921C206.938 407.921 207.196 407.886 207.524 407.816V409.134C207.096 409.251 206.68 409.31 206.276 409.31C205.55 409.31 205.002 409.09 204.633 408.651C204.263 408.211 204.079 407.587 204.079 406.779V400.881H202.347V399.624H204.079V397.322H205.705ZM213.334 409.31C212.045 409.31 210.996 408.888 210.187 408.044C209.379 407.195 208.974 406.061 208.974 404.643V404.344C208.974 403.401 209.153 402.56 209.51 401.822C209.874 401.078 210.378 400.498 211.022 400.082C211.673 399.66 212.376 399.449 213.132 399.449C214.368 399.449 215.329 399.856 216.014 400.67C216.7 401.485 217.043 402.651 217.043 404.168V404.845H210.6C210.624 405.783 210.896 406.541 211.418 407.122C211.945 407.696 212.613 407.983 213.422 407.983C213.996 407.983 214.482 407.866 214.881 407.631C215.279 407.397 215.628 407.086 215.927 406.7L216.92 407.473C216.123 408.698 214.927 409.31 213.334 409.31ZM213.132 400.785C212.475 400.785 211.925 401.025 211.479 401.505C211.034 401.98 210.759 402.648 210.653 403.509H215.417V403.386C215.37 402.56 215.147 401.921 214.749 401.47C214.35 401.013 213.811 400.785 213.132 400.785ZM224.803 409.134C224.71 408.947 224.634 408.613 224.575 408.132C223.819 408.917 222.917 409.31 221.868 409.31C220.93 409.31 220.16 409.046 219.556 408.519C218.959 407.986 218.66 407.312 218.66 406.498C218.66 405.507 219.035 404.74 219.785 404.195C220.541 403.644 221.601 403.369 222.967 403.369H224.549V402.622C224.549 402.053 224.379 401.602 224.039 401.268C223.699 400.928 223.198 400.758 222.536 400.758C221.956 400.758 221.469 400.905 221.077 401.198C220.684 401.491 220.488 401.845 220.488 402.261H218.853C218.853 401.787 219.02 401.33 219.354 400.89C219.694 400.445 220.151 400.093 220.725 399.835C221.305 399.578 221.941 399.449 222.633 399.449C223.728 399.449 224.587 399.724 225.208 400.275C225.829 400.82 226.151 401.573 226.175 402.534V406.911C226.175 407.784 226.286 408.478 226.509 408.994V409.134H224.803ZM222.105 407.895C222.615 407.895 223.098 407.763 223.555 407.499C224.012 407.236 224.344 406.893 224.549 406.471V404.52H223.274C221.282 404.52 220.286 405.103 220.286 406.269C220.286 406.779 220.456 407.177 220.796 407.464C221.135 407.751 221.572 407.895 222.105 407.895ZM230.253 399.624L230.297 400.679C230.994 399.859 231.934 399.449 233.118 399.449C234.448 399.449 235.353 399.958 235.834 400.978C236.15 400.521 236.56 400.152 237.064 399.871C237.574 399.589 238.175 399.449 238.866 399.449C240.952 399.449 242.012 400.553 242.048 402.762V409.134H240.422V402.859C240.422 402.179 240.266 401.672 239.956 401.338C239.645 400.999 239.124 400.829 238.391 400.829C237.788 400.829 237.287 401.01 236.888 401.374C236.49 401.731 236.259 402.214 236.194 402.824V409.134H234.559V402.903C234.559 401.52 233.883 400.829 232.529 400.829C231.463 400.829 230.733 401.283 230.341 402.191V409.134H228.715V399.624H230.253ZM250.046 406.612C250.046 406.172 249.879 405.832 249.545 405.592C249.217 405.346 248.639 405.135 247.813 404.959C246.993 404.784 246.34 404.573 245.853 404.327C245.373 404.081 245.015 403.788 244.781 403.448C244.552 403.108 244.438 402.704 244.438 402.235C244.438 401.456 244.766 400.796 245.423 400.257C246.085 399.718 246.928 399.449 247.954 399.449C249.032 399.449 249.905 399.727 250.573 400.284C251.247 400.84 251.584 401.552 251.584 402.419H249.949C249.949 401.974 249.759 401.59 249.378 401.268C249.003 400.946 248.528 400.785 247.954 400.785C247.362 400.785 246.899 400.914 246.565 401.171C246.231 401.429 246.064 401.766 246.064 402.182C246.064 402.575 246.219 402.871 246.53 403.07C246.841 403.269 247.4 403.459 248.209 403.641C249.023 403.823 249.682 404.04 250.186 404.291C250.69 404.543 251.062 404.848 251.302 405.206C251.549 405.557 251.672 405.988 251.672 406.498C251.672 407.347 251.332 408.03 250.652 408.545C249.972 409.055 249.091 409.31 248.007 409.31C247.245 409.31 246.571 409.175 245.985 408.906C245.399 408.636 244.939 408.261 244.605 407.781C244.277 407.294 244.113 406.77 244.113 406.207H245.739C245.768 406.752 245.985 407.186 246.389 407.508C246.8 407.825 247.339 407.983 248.007 407.983C248.622 407.983 249.114 407.86 249.483 407.614C249.858 407.362 250.046 407.028 250.046 406.612ZM253.737 411.683L252.814 411.05C253.365 410.283 253.652 409.492 253.676 408.677V407.209H255.266V408.484C255.266 409.076 255.12 409.667 254.827 410.259C254.54 410.851 254.177 411.326 253.737 411.683ZM265.602 407.983C266.182 407.983 266.689 407.807 267.123 407.456C267.556 407.104 267.797 406.665 267.844 406.137H269.382C269.352 406.682 269.165 407.201 268.819 407.693C268.473 408.185 268.01 408.578 267.43 408.871C266.856 409.164 266.247 409.31 265.602 409.31C264.307 409.31 263.276 408.879 262.509 408.018C261.747 407.151 261.366 405.967 261.366 404.467V404.195C261.366 403.269 261.536 402.446 261.876 401.725C262.216 401.004 262.702 400.445 263.335 400.046C263.973 399.648 264.726 399.449 265.594 399.449C266.66 399.449 267.545 399.768 268.248 400.407C268.957 401.045 269.335 401.874 269.382 402.894H267.844C267.797 402.279 267.562 401.775 267.14 401.382C266.724 400.984 266.209 400.785 265.594 400.785C264.767 400.785 264.126 401.083 263.669 401.681C263.218 402.273 262.992 403.131 262.992 404.256V404.564C262.992 405.66 263.218 406.503 263.669 407.095C264.12 407.687 264.764 407.983 265.602 407.983ZM275.806 401.083C275.56 401.042 275.294 401.022 275.007 401.022C273.94 401.022 273.217 401.476 272.836 402.384V409.134H271.21V399.624H272.792L272.818 400.723C273.351 399.874 274.107 399.449 275.086 399.449C275.402 399.449 275.642 399.49 275.806 399.572V401.083ZM281.08 409.31C279.791 409.31 278.742 408.888 277.933 408.044C277.125 407.195 276.72 406.061 276.72 404.643V404.344C276.72 403.401 276.899 402.56 277.257 401.822C277.62 401.078 278.124 400.498 278.768 400.082C279.419 399.66 280.122 399.449 280.878 399.449C282.114 399.449 283.075 399.856 283.76 400.67C284.446 401.485 284.789 402.651 284.789 404.168V404.845H278.346C278.37 405.783 278.642 406.541 279.164 407.122C279.691 407.696 280.359 407.983 281.168 407.983C281.742 407.983 282.228 407.866 282.627 407.631C283.025 407.397 283.374 407.086 283.673 406.7L284.666 407.473C283.869 408.698 282.674 409.31 281.08 409.31ZM280.878 400.785C280.221 400.785 279.671 401.025 279.225 401.505C278.78 401.98 278.505 402.648 278.399 403.509H283.163V403.386C283.116 402.56 282.893 401.921 282.495 401.47C282.096 401.013 281.557 400.785 280.878 400.785ZM292.55 409.134C292.456 408.947 292.38 408.613 292.321 408.132C291.565 408.917 290.663 409.31 289.614 409.31C288.677 409.31 287.906 409.046 287.302 408.519C286.705 407.986 286.406 407.312 286.406 406.498C286.406 405.507 286.781 404.74 287.531 404.195C288.287 403.644 289.347 403.369 290.713 403.369H292.295V402.622C292.295 402.053 292.125 401.602 291.785 401.268C291.445 400.928 290.944 400.758 290.282 400.758C289.702 400.758 289.216 400.905 288.823 401.198C288.43 401.491 288.234 401.845 288.234 402.261H286.599C286.599 401.787 286.766 401.33 287.1 400.89C287.44 400.445 287.897 400.093 288.471 399.835C289.052 399.578 289.687 399.449 290.379 399.449C291.474 399.449 292.333 399.724 292.954 400.275C293.575 400.82 293.897 401.573 293.921 402.534V406.911C293.921 407.784 294.032 408.478 294.255 408.994V409.134H292.55ZM289.851 407.895C290.361 407.895 290.844 407.763 291.302 407.499C291.759 407.236 292.09 406.893 292.295 406.471V404.52H291.02C289.028 404.52 288.032 405.103 288.032 406.269C288.032 406.779 288.202 407.177 288.542 407.464C288.882 407.751 289.318 407.895 289.851 407.895ZM298.676 397.322V399.624H300.451V400.881H298.676V406.779C298.676 407.16 298.755 407.447 298.913 407.64C299.071 407.828 299.341 407.921 299.721 407.921C299.909 407.921 300.167 407.886 300.495 407.816V409.134C300.067 409.251 299.651 409.31 299.247 409.31C298.52 409.31 297.972 409.09 297.603 408.651C297.234 408.211 297.05 407.587 297.05 406.779V400.881H295.318V399.624H297.05V397.322H298.676ZM306.304 409.31C305.015 409.31 303.967 408.888 303.158 408.044C302.349 407.195 301.945 406.061 301.945 404.643V404.344C301.945 403.401 302.124 402.56 302.481 401.822C302.844 401.078 303.348 400.498 303.993 400.082C304.643 399.66 305.346 399.449 306.102 399.449C307.339 399.449 308.3 399.856 308.985 400.67C309.671 401.485 310.013 402.651 310.013 404.168V404.845H303.571C303.594 405.783 303.867 406.541 304.388 407.122C304.916 407.696 305.584 407.983 306.392 407.983C306.967 407.983 307.453 407.866 307.851 407.631C308.25 407.397 308.598 407.086 308.897 406.7L309.89 407.473C309.094 408.698 307.898 409.31 306.304 409.31ZM306.102 400.785C305.446 400.785 304.895 401.025 304.45 401.505C304.005 401.98 303.729 402.648 303.624 403.509H308.387V403.386C308.341 402.56 308.118 401.921 307.719 401.47C307.321 401.013 306.782 400.785 306.102 400.785ZM320.965 401.083C320.719 401.042 320.452 401.022 320.165 401.022C319.098 401.022 318.375 401.476 317.994 402.384V409.134H316.368V399.624H317.95L317.976 400.723C318.51 399.874 319.265 399.449 320.244 399.449C320.56 399.449 320.801 399.49 320.965 399.572V401.083ZM326.238 409.31C324.949 409.31 323.9 408.888 323.092 408.044C322.283 407.195 321.879 406.061 321.879 404.643V404.344C321.879 403.401 322.057 402.56 322.415 401.822C322.778 401.078 323.282 400.498 323.927 400.082C324.577 399.66 325.28 399.449 326.036 399.449C327.272 399.449 328.233 399.856 328.919 400.67C329.604 401.485 329.947 402.651 329.947 404.168V404.845H323.505C323.528 405.783 323.801 406.541 324.322 407.122C324.849 407.696 325.517 407.983 326.326 407.983C326.9 407.983 327.386 407.866 327.785 407.631C328.183 407.397 328.532 407.086 328.831 406.7L329.824 407.473C329.027 408.698 327.832 409.31 326.238 409.31ZM326.036 400.785C325.38 400.785 324.829 401.025 324.384 401.505C323.938 401.98 323.663 402.648 323.557 403.509H328.321V403.386C328.274 402.56 328.052 401.921 327.653 401.47C327.255 401.013 326.716 400.785 326.036 400.785ZM339.87 404.485C339.87 405.932 339.539 407.098 338.877 407.983C338.215 408.868 337.318 409.31 336.187 409.31C335.033 409.31 334.125 408.944 333.463 408.211V412.79H331.837V399.624H333.322L333.401 400.679C334.063 399.859 334.983 399.449 336.161 399.449C337.303 399.449 338.206 399.879 338.868 400.741C339.536 401.602 339.87 402.8 339.87 404.335V404.485ZM338.244 404.3C338.244 403.228 338.015 402.381 337.558 401.76C337.101 401.139 336.474 400.829 335.677 400.829C334.693 400.829 333.955 401.265 333.463 402.138V406.682C333.949 407.549 334.693 407.983 335.695 407.983C336.474 407.983 337.093 407.675 337.55 407.06C338.012 406.439 338.244 405.519 338.244 404.3ZM341.513 404.291C341.513 403.36 341.695 402.522 342.058 401.778C342.427 401.034 342.937 400.459 343.588 400.055C344.244 399.651 344.991 399.449 345.829 399.449C347.124 399.449 348.17 399.897 348.967 400.793C349.769 401.69 350.171 402.882 350.171 404.371V404.485C350.171 405.411 349.992 406.243 349.635 406.981C349.283 407.713 348.776 408.285 348.114 408.695C347.458 409.105 346.702 409.31 345.846 409.31C344.557 409.31 343.511 408.862 342.709 407.965C341.912 407.069 341.513 405.882 341.513 404.406V404.291ZM343.148 404.485C343.148 405.54 343.391 406.386 343.878 407.025C344.37 407.664 345.026 407.983 345.846 407.983C346.673 407.983 347.329 407.661 347.815 407.016C348.302 406.366 348.545 405.457 348.545 404.291C348.545 403.249 348.296 402.405 347.798 401.76C347.305 401.11 346.649 400.785 345.829 400.785C345.026 400.785 344.379 401.104 343.886 401.743C343.394 402.381 343.148 403.295 343.148 404.485ZM356.806 401.083C356.56 401.042 356.294 401.022 356.007 401.022C354.94 401.022 354.217 401.476 353.836 402.384V409.134H352.21V399.624H353.792L353.818 400.723C354.351 399.874 355.107 399.449 356.086 399.449C356.402 399.449 356.642 399.49 356.806 399.572V401.083ZM360.955 397.322V399.624H362.73V400.881H360.955V406.779C360.955 407.16 361.034 407.447 361.192 407.64C361.35 407.828 361.62 407.921 362.001 407.921C362.188 407.921 362.446 407.886 362.774 407.816V409.134C362.346 409.251 361.93 409.31 361.526 409.31C360.8 409.31 360.252 409.09 359.883 408.651C359.513 408.211 359.329 407.587 359.329 406.779V400.881H357.597V399.624H359.329V397.322H360.955ZM370.175 406.612C370.175 406.172 370.008 405.832 369.674 405.592C369.345 405.346 368.768 405.135 367.942 404.959C367.122 404.784 366.469 404.573 365.982 404.327C365.502 404.081 365.144 403.788 364.91 403.448C364.681 403.108 364.567 402.704 364.567 402.235C364.567 401.456 364.895 400.796 365.552 400.257C366.214 399.718 367.057 399.449 368.083 399.449C369.161 399.449 370.034 399.727 370.702 400.284C371.376 400.84 371.713 401.552 371.713 402.419H370.078C370.078 401.974 369.887 401.59 369.507 401.268C369.132 400.946 368.657 400.785 368.083 400.785C367.491 400.785 367.028 400.914 366.694 401.171C366.36 401.429 366.193 401.766 366.193 402.182C366.193 402.575 366.348 402.871 366.659 403.07C366.969 403.269 367.529 403.459 368.338 403.641C369.152 403.823 369.811 404.04 370.315 404.291C370.819 404.543 371.191 404.848 371.431 405.206C371.677 405.557 371.801 405.988 371.801 406.498C371.801 407.347 371.461 408.03 370.781 408.545C370.101 409.055 369.219 409.31 368.135 409.31C367.374 409.31 366.7 409.175 366.114 408.906C365.528 408.636 365.068 408.261 364.734 407.781C364.406 407.294 364.242 406.77 364.242 406.207H365.868C365.897 406.752 366.114 407.186 366.518 407.508C366.928 407.825 367.468 407.983 368.135 407.983C368.751 407.983 369.243 407.86 369.612 407.614C369.987 407.362 370.175 407.028 370.175 406.612ZM384.255 409.134C384.161 408.947 384.085 408.613 384.026 408.132C383.27 408.917 382.368 409.31 381.319 409.31C380.382 409.31 379.611 409.046 379.008 408.519C378.41 407.986 378.111 407.312 378.111 406.498C378.111 405.507 378.486 404.74 379.236 404.195C379.992 403.644 381.052 403.369 382.418 403.369H384V402.622C384 402.053 383.83 401.602 383.49 401.268C383.15 400.928 382.649 400.758 381.987 400.758C381.407 400.758 380.921 400.905 380.528 401.198C380.135 401.491 379.939 401.845 379.939 402.261H378.304C378.304 401.787 378.471 401.33 378.805 400.89C379.145 400.445 379.602 400.093 380.177 399.835C380.757 399.578 381.392 399.449 382.084 399.449C383.179 399.449 384.038 399.724 384.659 400.275C385.28 400.82 385.602 401.573 385.626 402.534V406.911C385.626 407.784 385.737 408.478 385.96 408.994V409.134H384.255ZM381.556 407.895C382.066 407.895 382.55 407.763 383.007 407.499C383.464 407.236 383.795 406.893 384 406.471V404.52H382.725C380.733 404.52 379.737 405.103 379.737 406.269C379.737 406.779 379.907 407.177 380.247 407.464C380.587 407.751 381.023 407.895 381.556 407.895ZM389.713 399.624L389.765 400.82C390.492 399.906 391.441 399.449 392.613 399.449C394.623 399.449 395.636 400.582 395.654 402.85V409.134H394.028V402.841C394.022 402.156 393.864 401.649 393.553 401.321C393.249 400.993 392.771 400.829 392.121 400.829C391.594 400.829 391.131 400.969 390.732 401.25C390.334 401.532 390.023 401.901 389.801 402.358V409.134H388.175V399.624H389.713ZM397.711 404.3C397.711 402.841 398.056 401.669 398.748 400.785C399.439 399.894 400.344 399.449 401.464 399.449C402.577 399.449 403.459 399.83 404.109 400.591V395.634H405.735V409.134H404.241L404.162 408.115C403.511 408.912 402.606 409.31 401.446 409.31C400.344 409.31 399.445 408.859 398.748 407.957C398.056 407.054 397.711 405.876 397.711 404.423V404.3ZM399.337 404.485C399.337 405.563 399.559 406.407 400.005 407.016C400.45 407.625 401.065 407.93 401.85 407.93C402.882 407.93 403.635 407.467 404.109 406.541V402.173C403.623 401.277 402.876 400.829 401.868 400.829C401.071 400.829 400.45 401.136 400.005 401.751C399.559 402.367 399.337 403.278 399.337 404.485ZM414.498 409.134H412.872V399.624H414.498V409.134ZM412.74 397.102C412.74 396.838 412.819 396.616 412.977 396.434C413.141 396.252 413.382 396.162 413.698 396.162C414.014 396.162 414.255 396.252 414.419 396.434C414.583 396.616 414.665 396.838 414.665 397.102C414.665 397.366 414.583 397.585 414.419 397.761C414.255 397.937 414.014 398.025 413.698 398.025C413.382 398.025 413.141 397.937 412.977 397.761C412.819 397.585 412.74 397.366 412.74 397.102ZM418.637 399.624L418.681 400.679C419.379 399.859 420.319 399.449 421.503 399.449C422.833 399.449 423.738 399.958 424.219 400.978C424.535 400.521 424.945 400.152 425.449 399.871C425.959 399.589 426.559 399.449 427.251 399.449C429.337 399.449 430.397 400.553 430.432 402.762V409.134H428.806V402.859C428.806 402.179 428.651 401.672 428.341 401.338C428.03 400.999 427.509 400.829 426.776 400.829C426.173 400.829 425.672 401.01 425.273 401.374C424.875 401.731 424.643 402.214 424.579 402.824V409.134H422.944V402.903C422.944 401.52 422.267 400.829 420.914 400.829C419.847 400.829 419.118 401.283 418.725 402.191V409.134H417.099V399.624H418.637ZM440.927 404.485C440.927 405.932 440.595 407.098 439.933 407.983C439.271 408.868 438.375 409.31 437.244 409.31C436.09 409.31 435.181 408.944 434.519 408.211V412.79H432.893V399.624H434.379L434.458 400.679C435.12 399.859 436.04 399.449 437.218 399.449C438.36 399.449 439.262 399.879 439.925 400.741C440.593 401.602 440.927 402.8 440.927 404.335V404.485ZM439.301 404.3C439.301 403.228 439.072 402.381 438.615 401.76C438.158 401.139 437.531 400.829 436.734 400.829C435.75 400.829 435.011 401.265 434.519 402.138V406.682C435.006 407.549 435.75 407.983 436.752 407.983C437.531 407.983 438.149 407.675 438.606 407.06C439.069 406.439 439.301 405.519 439.301 404.3ZM447.597 401.083C447.351 401.042 447.085 401.022 446.798 401.022C445.731 401.022 445.008 401.476 444.627 402.384V409.134H443.001V399.624H444.583L444.609 400.723C445.142 399.874 445.898 399.449 446.877 399.449C447.193 399.449 447.433 399.49 447.597 399.572V401.083ZM448.494 404.291C448.494 403.36 448.676 402.522 449.039 401.778C449.408 401.034 449.918 400.459 450.568 400.055C451.224 399.651 451.971 399.449 452.809 399.449C454.104 399.449 455.15 399.897 455.947 400.793C456.75 401.69 457.151 402.882 457.151 404.371V404.485C457.151 405.411 456.972 406.243 456.615 406.981C456.263 407.713 455.757 408.285 455.094 408.695C454.438 409.105 453.682 409.31 452.827 409.31C451.538 409.31 450.492 408.862 449.689 407.965C448.892 407.069 448.494 405.882 448.494 404.406V404.291ZM450.129 404.485C450.129 405.54 450.372 406.386 450.858 407.025C451.35 407.664 452.007 407.983 452.827 407.983C453.653 407.983 454.309 407.661 454.796 407.016C455.282 406.366 455.525 405.457 455.525 404.291C455.525 403.249 455.276 402.405 454.778 401.76C454.286 401.11 453.63 400.785 452.809 400.785C452.007 400.785 451.359 401.104 450.867 401.743C450.375 402.381 450.129 403.295 450.129 404.485ZM462.187 406.928L464.543 399.624H466.204L462.794 409.134H461.554L458.109 399.624H459.77L462.187 406.928ZM471.592 409.31C470.302 409.31 469.254 408.888 468.445 408.044C467.636 407.195 467.232 406.061 467.232 404.643V404.344C467.232 403.401 467.411 402.56 467.768 401.822C468.132 401.078 468.635 400.498 469.28 400.082C469.93 399.66 470.634 399.449 471.389 399.449C472.626 399.449 473.587 399.856 474.272 400.67C474.958 401.485 475.301 402.651 475.301 404.168V404.845H468.858C468.882 405.783 469.154 406.541 469.676 407.122C470.203 407.696 470.871 407.983 471.679 407.983C472.254 407.983 472.74 407.866 473.138 407.631C473.537 407.397 473.885 407.086 474.184 406.7L475.177 407.473C474.381 408.698 473.185 409.31 471.592 409.31ZM471.389 400.785C470.733 400.785 470.182 401.025 469.737 401.505C469.292 401.98 469.016 402.648 468.911 403.509H473.675V403.386C473.628 402.56 473.405 401.921 473.007 401.47C472.608 401.013 472.069 400.785 471.389 400.785ZM484.766 406.752L486.981 399.624H488.721L484.898 410.602C484.306 412.184 483.366 412.975 482.077 412.975L481.769 412.949L481.163 412.834V411.516L481.602 411.551C482.153 411.551 482.581 411.44 482.885 411.217C483.196 410.995 483.451 410.587 483.65 409.996L484.01 409.029L480.618 399.624H482.393L484.766 406.752ZM489.609 404.291C489.609 403.36 489.791 402.522 490.154 401.778C490.523 401.034 491.033 400.459 491.683 400.055C492.34 399.651 493.087 399.449 493.925 399.449C495.219 399.449 496.265 399.897 497.062 400.793C497.865 401.69 498.266 402.882 498.266 404.371V404.485C498.266 405.411 498.088 406.243 497.73 406.981C497.379 407.713 496.872 408.285 496.21 408.695C495.553 409.105 494.798 409.31 493.942 409.31C492.653 409.31 491.607 408.862 490.804 407.965C490.008 407.069 489.609 405.882 489.609 404.406V404.291ZM491.244 404.485C491.244 405.54 491.487 406.386 491.973 407.025C492.466 407.664 493.122 407.983 493.942 407.983C494.768 407.983 495.425 407.661 495.911 407.016C496.397 406.366 496.64 405.457 496.64 404.291C496.64 403.249 496.391 402.405 495.893 401.76C495.401 401.11 494.745 400.785 493.925 400.785C493.122 400.785 492.474 401.104 491.982 401.743C491.49 402.381 491.244 403.295 491.244 404.485ZM506.177 408.194C505.544 408.938 504.615 409.31 503.39 409.31C502.377 409.31 501.603 409.017 501.07 408.431C500.543 407.839 500.276 406.966 500.27 405.812V399.624H501.896V405.768C501.896 407.209 502.482 407.93 503.654 407.93C504.896 407.93 505.722 407.467 506.133 406.541V399.624H507.759V409.134H506.212L506.177 408.194ZM514.834 401.083C514.588 401.042 514.321 401.022 514.034 401.022C512.968 401.022 512.244 401.476 511.863 402.384V409.134H510.237V399.624H511.819L511.845 400.723C512.379 399.874 513.135 399.449 514.113 399.449C514.429 399.449 514.67 399.49 514.834 399.572V401.083ZM60.0085 425.485C60.0085 426.932 59.6775 428.098 59.0154 428.983C58.3533 429.868 57.4568 430.31 56.3259 430.31C55.1716 430.31 54.2634 429.944 53.6013 429.211V433.79H51.9753V420.624H53.4607L53.5398 421.679C54.2019 420.859 55.1218 420.449 56.2996 420.449C57.4421 420.449 58.3445 420.879 59.0066 421.741C59.6746 422.602 60.0085 423.8 60.0085 425.335V425.485ZM58.3826 425.3C58.3826 424.228 58.1541 423.381 57.697 422.76C57.24 422.139 56.613 421.829 55.8162 421.829C54.8318 421.829 54.0935 422.265 53.6013 423.138V427.682C54.0876 428.549 54.8318 428.983 55.8337 428.983C56.613 428.983 57.2312 428.675 57.6882 428.06C58.1511 427.439 58.3826 426.519 58.3826 425.3ZM66.0291 430.31C64.74 430.31 63.6912 429.888 62.8826 429.044C62.074 428.195 61.6697 427.061 61.6697 425.643V425.344C61.6697 424.401 61.8484 423.56 62.2058 422.822C62.5691 422.078 63.073 421.498 63.7175 421.082C64.3679 420.66 65.071 420.449 65.8269 420.449C67.0632 420.449 68.0242 420.856 68.7097 421.67C69.3953 422.485 69.738 423.651 69.738 425.168V425.845H63.2957C63.3191 426.783 63.5916 427.541 64.113 428.122C64.6404 428.696 65.3083 428.983 66.1169 428.983C66.6912 428.983 67.1775 428.866 67.5759 428.631C67.9744 428.397 68.323 428.086 68.6218 427.7L69.615 428.473C68.8181 429.698 67.6228 430.31 66.0291 430.31ZM65.8269 421.785C65.1707 421.785 64.6199 422.025 64.1746 422.505C63.7292 422.98 63.4539 423.648 63.3484 424.509H68.1121V424.386C68.0652 423.56 67.8425 422.921 67.4441 422.47C67.0457 422.013 66.5066 421.785 65.8269 421.785ZM76.2244 422.083C75.9783 422.042 75.7117 422.022 75.4246 422.022C74.3582 422.022 73.6345 422.476 73.2537 423.384V430.134H71.6277V420.624H73.2097L73.2361 421.723C73.7693 420.874 74.5251 420.449 75.5037 420.449C75.8201 420.449 76.0603 420.49 76.2244 420.572V422.083ZM78.6677 430.134V421.881H77.1648V420.624H78.6677V419.649C78.6677 418.629 78.9402 417.841 79.4851 417.285C80.03 416.728 80.8005 416.45 81.7966 416.45C82.1716 416.45 82.5437 416.499 82.9128 416.599L82.825 417.917C82.5496 417.865 82.2566 417.838 81.946 417.838C81.4187 417.838 81.0115 417.994 80.7244 418.304C80.4373 418.609 80.2937 419.048 80.2937 419.623V420.624H82.324V421.881H80.2937V430.134H78.6677ZM83.6951 425.291C83.6951 424.36 83.8767 423.522 84.24 422.778C84.6091 422.034 85.1189 421.459 85.7693 421.055C86.4255 420.651 87.1726 420.449 88.0105 420.449C89.3054 420.449 90.3513 420.897 91.1482 421.793C91.9509 422.69 92.3523 423.882 92.3523 425.371V425.485C92.3523 426.411 92.1736 427.243 91.8162 427.981C91.4646 428.713 90.9578 429.285 90.2957 429.695C89.6394 430.105 88.8835 430.31 88.0281 430.31C86.739 430.31 85.6931 429.862 84.8904 428.965C84.0935 428.069 83.6951 426.882 83.6951 425.406V425.291ZM85.3298 425.485C85.3298 426.54 85.573 427.386 86.0593 428.025C86.5515 428.664 87.2078 428.983 88.0281 428.983C88.8542 428.983 89.5105 428.661 89.9968 428.016C90.4832 427.366 90.7263 426.457 90.7263 425.291C90.7263 424.249 90.4773 423.405 89.9792 422.76C89.4871 422.11 88.8308 421.785 88.0105 421.785C87.2078 421.785 86.5603 422.104 86.0681 422.743C85.5759 423.381 85.3298 424.295 85.3298 425.485ZM98.988 422.083C98.7419 422.042 98.4753 422.022 98.1882 422.022C97.1218 422.022 96.3982 422.476 96.0173 423.384V430.134H94.3914V420.624H95.9734L95.9998 421.723C96.533 420.874 97.2888 420.449 98.2673 420.449C98.5837 420.449 98.824 420.49 98.988 420.572V422.083ZM102.02 420.624L102.064 421.679C102.761 420.859 103.702 420.449 104.885 420.449C106.216 420.449 107.121 420.958 107.601 421.978C107.918 421.521 108.328 421.152 108.832 420.871C109.342 420.589 109.942 420.449 110.634 420.449C112.719 420.449 113.78 421.553 113.815 423.762V430.134H112.189V423.859C112.189 423.179 112.034 422.672 111.723 422.338C111.413 421.999 110.891 421.829 110.159 421.829C109.555 421.829 109.054 422.01 108.656 422.374C108.258 422.731 108.026 423.214 107.962 423.824V430.134H106.327V423.903C106.327 422.52 105.65 421.829 104.297 421.829C103.23 421.829 102.501 422.283 102.108 423.191V430.134H100.482V420.624H102.02ZM122.147 430.134C122.053 429.947 121.977 429.613 121.919 429.132C121.163 429.917 120.26 430.31 119.212 430.31C118.274 430.31 117.504 430.046 116.9 429.519C116.302 428.986 116.004 428.312 116.004 427.498C116.004 426.507 116.379 425.74 117.129 425.195C117.885 424.644 118.945 424.369 120.31 424.369H121.892V423.622C121.892 423.053 121.722 422.602 121.383 422.268C121.043 421.928 120.542 421.758 119.88 421.758C119.3 421.758 118.813 421.905 118.421 422.198C118.028 422.491 117.832 422.845 117.832 423.261H116.197C116.197 422.787 116.364 422.33 116.698 421.89C117.038 421.445 117.495 421.093 118.069 420.835C118.649 420.578 119.285 420.449 119.976 420.449C121.072 420.449 121.93 420.724 122.552 421.275C123.173 421.82 123.495 422.573 123.518 423.534V427.911C123.518 428.784 123.63 429.478 123.852 429.994V430.134H122.147ZM119.449 428.895C119.959 428.895 120.442 428.763 120.899 428.499C121.356 428.236 121.687 427.893 121.892 427.471V425.52H120.618C118.626 425.52 117.63 426.103 117.63 427.269C117.63 427.779 117.8 428.177 118.139 428.464C118.479 428.751 118.916 428.895 119.449 428.895ZM129.882 428.983C130.462 428.983 130.969 428.807 131.402 428.456C131.836 428.104 132.076 427.665 132.123 427.137H133.661C133.632 427.682 133.444 428.201 133.098 428.693C132.753 429.185 132.29 429.578 131.71 429.871C131.135 430.164 130.526 430.31 129.882 430.31C128.587 430.31 127.555 429.879 126.788 429.018C126.026 428.151 125.645 426.967 125.645 425.467V425.195C125.645 424.269 125.815 423.446 126.155 422.725C126.495 422.004 126.981 421.445 127.614 421.046C128.253 420.648 129.006 420.449 129.873 420.449C130.939 420.449 131.824 420.768 132.527 421.407C133.236 422.045 133.614 422.874 133.661 423.894H132.123C132.076 423.279 131.842 422.775 131.42 422.382C131.004 421.984 130.488 421.785 129.873 421.785C129.047 421.785 128.405 422.083 127.948 422.681C127.497 423.273 127.271 424.131 127.271 425.256V425.564C127.271 426.66 127.497 427.503 127.948 428.095C128.399 428.687 129.044 428.983 129.882 428.983ZM139.435 430.31C138.146 430.31 137.097 429.888 136.289 429.044C135.48 428.195 135.076 427.061 135.076 425.643V425.344C135.076 424.401 135.255 423.56 135.612 422.822C135.975 422.078 136.479 421.498 137.124 421.082C137.774 420.66 138.477 420.449 139.233 420.449C140.469 420.449 141.43 420.856 142.116 421.67C142.802 422.485 143.144 423.651 143.144 425.168V425.845H136.702C136.725 426.783 136.998 427.541 137.519 428.122C138.047 428.696 138.715 428.983 139.523 428.983C140.097 428.983 140.584 428.866 140.982 428.631C141.381 428.397 141.729 428.086 142.028 427.7L143.021 428.473C142.224 429.698 141.029 430.31 139.435 430.31ZM139.233 421.785C138.577 421.785 138.026 422.025 137.581 422.505C137.135 422.98 136.86 423.648 136.755 424.509H141.518V424.386C141.471 423.56 141.249 422.921 140.85 422.47C140.452 422.013 139.913 421.785 139.233 421.785Z" fill="white"/>
<path d="M158.46 210.212H140.179V260.915H132.718V210.212H114.476V204.04H158.46V210.212ZM174.944 260.915H167.444V204.04H174.944V260.915ZM198.382 204.04L216.976 250.446L235.569 204.04H245.296V260.915H237.796V238.767L238.499 214.86L219.827 260.915H214.085L195.452 214.978L196.194 238.767V260.915H188.694V204.04H198.382ZM290.687 234.626H266.038V254.782H294.671V260.915H258.538V204.04H294.28V210.212H266.038V228.493H290.687V234.626ZM345.843 242.868C345.14 248.884 342.913 253.532 339.163 256.814C335.439 260.069 330.478 261.696 324.28 261.696C317.562 261.696 312.171 259.287 308.108 254.47C304.072 249.652 302.054 243.207 302.054 235.134V229.665C302.054 224.379 302.991 219.73 304.866 215.72C306.767 211.709 309.45 208.636 312.913 206.501C316.377 204.34 320.387 203.259 324.944 203.259C330.986 203.259 335.83 204.952 339.476 208.337C343.121 211.696 345.244 216.358 345.843 222.321H338.304C337.653 217.79 336.233 214.509 334.046 212.478C331.884 210.446 328.851 209.431 324.944 209.431C320.153 209.431 316.39 211.202 313.655 214.743C310.947 218.285 309.593 223.324 309.593 229.86V235.368C309.593 241.54 310.882 246.449 313.46 250.095C316.038 253.741 319.645 255.564 324.28 255.564C328.447 255.564 331.637 254.626 333.851 252.751C336.09 250.85 337.575 247.556 338.304 242.868H345.843ZM399.866 234.314C399.866 239.886 398.929 244.756 397.054 248.923C395.179 253.064 392.522 256.228 389.085 258.415C385.647 260.603 381.637 261.696 377.054 261.696C372.575 261.696 368.603 260.603 365.14 258.415C361.676 256.202 358.981 253.064 357.054 249.001C355.153 244.912 354.176 240.186 354.124 234.821V230.72C354.124 225.251 355.075 220.42 356.976 216.228C358.877 212.035 361.559 208.832 365.022 206.618C368.512 204.379 372.496 203.259 376.976 203.259C381.533 203.259 385.543 204.366 389.007 206.579C392.496 208.767 395.179 211.957 397.054 216.149C398.929 220.316 399.866 225.173 399.866 230.72V234.314ZM392.405 230.642C392.405 223.897 391.051 218.728 388.343 215.134C385.634 211.514 381.845 209.704 376.976 209.704C372.236 209.704 368.499 211.514 365.765 215.134C363.056 218.728 361.663 223.728 361.585 230.134V234.314C361.585 240.85 362.952 245.993 365.687 249.743C368.447 253.467 372.236 255.329 377.054 255.329C381.897 255.329 385.647 253.571 388.304 250.056C390.96 246.514 392.327 241.449 392.405 234.86V230.642ZM411.116 260.915V204.04H427.171C432.119 204.04 436.494 205.134 440.296 207.321C444.098 209.509 447.028 212.621 449.085 216.657C451.168 220.694 452.223 225.329 452.249 230.564V234.196C452.249 239.561 451.207 244.261 449.124 248.298C447.067 252.334 444.111 255.433 440.257 257.595C436.429 259.756 431.963 260.863 426.858 260.915H411.116ZM418.616 210.212V254.782H426.507C432.288 254.782 436.78 252.985 439.983 249.392C443.213 245.798 444.827 240.681 444.827 234.04V230.72C444.827 224.261 443.304 219.248 440.257 215.681C437.236 212.087 432.939 210.264 427.366 210.212H418.616ZM495.765 234.626H471.116V254.782H499.749V260.915H463.616V204.04H499.358V210.212H471.116V228.493H495.765V234.626Z" fill="white"/>
<path d="M85.7449 216.861C85.7449 216.158 85.198 215.611 84.4949 215.611H81.9949C81.2918 215.611 80.7449 216.158 80.7449 216.861V230.611H71.9949C71.2917 230.611 70.7449 231.158 70.7449 231.861V234.361C70.7449 235.064 71.2917 235.611 71.9949 235.611H84.4949C85.198 235.611 85.7449 235.064 85.7449 234.361V216.861ZM101.995 230.611C101.995 242.33 92.4636 251.861 80.7449 251.861C69.0261 251.861 59.4949 242.33 59.4949 230.611C59.4949 218.892 69.0261 209.361 80.7449 209.361C92.4636 209.361 101.995 218.892 101.995 230.611ZM110.745 230.611C110.745 214.048 97.3074 200.611 80.7449 200.611C64.1824 200.611 50.7449 214.048 50.7449 230.611C50.7449 247.173 64.1824 260.611 80.7449 260.611C97.3074 260.611 110.745 247.173 110.745 230.611Z" fill="white"/>
</svg>
